  0
SECTION
  2
HEADER
  9
$ACADVER
  1
AC1032
  9
$ACADMAINTVER
 90
      197
  9
$DWGCODEPAGE
  3
ANSI_1252
  9
$REQUIREDVERSIONS
160
                 0
  9
$INSBASE
 10
0.0
 20
0.0
 30
0.0
  9
$EXTMIN
 10
1.000000000000000E+20
 20
1.000000000000000E+20
 30
1.000000000000000E+20
  9
$EXTMAX
 10
-1.000000000000000E+20
 20
-1.000000000000000E+20
 30
-1.000000000000000E+20
  9
$LIMMIN
 10
0.0
 20
0.0
  9
$LIMMAX
 10
12.0
 20
9.0
  9
$ORTHOMODE
 70
     0
  9
$REGENMODE
 70
     1
  9
$FILLMODE
 70
     1
  9
$QTEXTMODE
 70
     0
  9
$MIRRTEXT
 70
     0
  9
$LTSCALE
 40
1.0
  9
$ATTMODE
 70
     1
  9
$TEXTSIZE
 40
0.2
  9
$TRACEWID
 40
0.05
  9
$TEXTSTYLE
  7
Standard
  9
$CLAYER
  8
0
  9
$CELTYPE
  6
ByLayer
  9
$CECOLOR
 62
   256
  9
$CELTSCALE
 40
1.0
  9
$DISPSILH
 70
     0
  9
$DIMSCALE
 40
1.0
  9
$DIMASZ
 40
0.18
  9
$DIMEXO
 40
0.0625
  9
$DIMDLI
 40
0.38
  9
$DIMRND
 40
0.0
  9
$DIMDLE
 40
0.0
  9
$DIMEXE
 40
0.18
  9
$DIMTP
 40
0.0
  9
$DIMTM
 40
0.0
  9
$DIMTXT
 40
0.18
  9
$DIMCEN
 40
0.09
  9
$DIMTSZ
 40
0.0
  9
$DIMTOL
 70
     0
  9
$DIMLIM
 70
     0
  9
$DIMTIH
 70
     1
  9
$DIMTOH
 70
     1
  9
$DIMSE1
 70
     0
  9
$DIMSE2
 70
     0
  9
$DIMTAD
 70
     0
  9
$DIMZIN
 70
     0
  9
$DIMBLK
  1

  9
$DIMASO
 70
     1
  9
$DIMSHO
 70
     1
  9
$DIMPOST
  1

  9
$DIMAPOST
  1

  9
$DIMALT
 70
     0
  9
$DIMALTD
 70
     2
  9
$DIMALTF
 40
25.4
  9
$DIMLFAC
 40
1.0
  9
$DIMTOFL
 70
     0
  9
$DIMTVP
 40
0.0
  9
$DIMTIX
 70
     0
  9
$DIMSOXD
 70
     0
  9
$DIMSAH
 70
     0
  9
$DIMBLK1
  1

  9
$DIMBLK2
  1

  9
$DIMSTYLE
  2
Standard
  9
$DIMCLRD
 70
     0
  9
$DIMCLRE
 70
     0
  9
$DIMCLRT
 70
     0
  9
$DIMTFAC
 40
1.0
  9
$DIMGAP
 40
0.09
  9
$DIMJUST
 70
     0
  9
$DIMSD1
 70
     0
  9
$DIMSD2
 70
     0
  9
$DIMTOLJ
 70
     1
  9
$DIMTZIN
 70
     0
  9
$DIMALTZ
 70
     0
  9
$DIMALTTZ
 70
     0
  9
$DIMUPT
 70
     0
  9
$DIMDEC
 70
     4
  9
$DIMTDEC
 70
     4
  9
$DIMALTU
 70
     2
  9
$DIMALTTD
 70
     2
  9
$DIMTXSTY
  7
Standard
  9
$DIMAUNIT
 70
     0
  9
$DIMADEC
 70
     0
  9
$DIMALTRND
 40
0.0
  9
$DIMAZIN
 70
     0
  9
$DIMDSEP
 70
    46
  9
$DIMATFIT
 70
     3
  9
$DIMFRAC
 70
     0
  9
$DIMLDRBLK
  1

  9
$DIMLUNIT
 70
     2
  9
$DIMLWD
 70
    -2
  9
$DIMLWE
 70
    -2
  9
$DIMTMOVE
 70
     0
  9
$DIMFXL
 40
1.0
  9
$DIMFXLON
 70
     0
  9
$DIMJOGANG
 40
0.7853981633974483
  9
$DIMTFILL
 70
     0
  9
$DIMTFILLCLR
 70
     0
  9
$DIMARCSYM
 70
     0
  9
$DIMLTYPE
  6

  9
$DIMLTEX1
  6

  9
$DIMLTEX2
  6

  9
$DIMTXTDIRECTION
 70
     0
  9
$LUNITS
 70
     2
  9
$LUPREC
 70
     4
  9
$SKETCHINC
 40
0.1
  9
$FILLETRAD
 40
0.0
  9
$AUNITS
 70
     0
  9
$AUPREC
 70
     0
  9
$MENU
  1
.
  9
$ELEVATION
 40
0.0
  9
$PELEVATION
 40
0.0
  9
$THICKNESS
 40
0.0
  9
$LIMCHECK
 70
     0
  9
$CHAMFERA
 40
0.0
  9
$CHAMFERB
 40
0.0
  9
$CHAMFERC
 40
0.0
  9
$CHAMFERD
 40
0.0
  9
$SKPOLY
 70
     0
  9
$TDCREATE
 40
2459588.786597222
  9
$TDUCREATE
 40
2459589.036597222
  9
$TDUPDATE
 40
2459588.786597222
  9
$TDUUPDATE
 40
2459589.036597222
  9
$TDINDWG
 40
0.0000115741
  9
$TDUSRTIMER
 40
0.0000115741
  9
$USRTIMER
 70
     1
  9
$ANGBASE
 50
0.0
  9
$ANGDIR
 70
     0
  9
$PDMODE
 70
     0
  9
$PDSIZE
 40
0.0
  9
$PLINEWID
 40
0.0
  9
$SPLFRAME
 70
     0
  9
$SPLINETYPE
 70
     6
  9
$SPLINESEGS
 70
     8
  9
$HANDSEED
  5
181
  9
$SURFTAB1
 70
     6
  9
$SURFTAB2
 70
     6
  9
$SURFTYPE
 70
     6
  9
$SURFU
 70
     6
  9
$SURFV
 70
     6
  9
$UCSBASE
  2

  9
$UCSNAME
  2

  9
$UCSORG
 10
0.0
 20
0.0
 30
0.0
  9
$UCSXDIR
 10
1.0
 20
0.0
 30
0.0
  9
$UCSYDIR
 10
0.0
 20
1.0
 30
0.0
  9
$UCSORTHOREF
  2

  9
$UCSORTHOVIEW
 70
     0
  9
$UCSORGTOP
 10
0.0
 20
0.0
 30
0.0
  9
$UCSORGBOTTOM
 10
0.0
 20
0.0
 30
0.0
  9
$UCSORGLEFT
 10
0.0
 20
0.0
 30
0.0
  9
$UCSORGRIGHT
 10
0.0
 20
0.0
 30
0.0
  9
$UCSORGFRONT
 10
0.0
 20
0.0
 30
0.0
  9
$UCSORGBACK
 10
0.0
 20
0.0
 30
0.0
  9
$PUCSBASE
  2

  9
$PUCSNAME
  2

  9
$PUCSORG
 10
0.0
 20
0.0
 30
0.0
  9
$PUCSXDIR
 10
1.0
 20
0.0
 30
0.0
  9
$PUCSYDIR
 10
0.0
 20
1.0
 30
0.0
  9
$PUCSORTHOREF
  2

  9
$PUCSORTHOVIEW
 70
     0
  9
$PUCSORGTOP
 10
0.0
 20
0.0
 30
0.0
  9
$PUCSORGBOTTOM
 10
0.0
 20
0.0
 30
0.0
  9
$PUCSORGLEFT
 10
0.0
 20
0.0
 30
0.0
  9
$PUCSORGRIGHT
 10
0.0
 20
0.0
 30
0.0
  9
$PUCSORGFRONT
 10
0.0
 20
0.0
 30
0.0
  9
$PUCSORGBACK
 10
0.0
 20
0.0
 30
0.0
  9
$USERI1
 70
     0
  9
$USERI2
 70
     0
  9
$USERI3
 70
     0
  9
$USERI4
 70
     0
  9
$USERI5
 70
     0
  9
$USERR1
 40
0.0
  9
$USERR2
 40
0.0
  9
$USERR3
 40
0.0
  9
$USERR4
 40
0.0
  9
$USERR5
 40
0.0
  9
$WORLDVIEW
 70
     1
  9
$SHADEDGE
 70
     3
  9
$SHADEDIF
 70
    70
  9
$TILEMODE
 70
     1
  9
$MAXACTVP
 70
    64
  9
$PINSBASE
 10
0.0
 20
0.0
 30
0.0
  9
$PLIMCHECK
 70
     0
  9
$PEXTMIN
 10
1.000000000000000E+20
 20
1.000000000000000E+20
 30
1.000000000000000E+20
  9
$PEXTMAX
 10
-1.000000000000000E+20
 20
-1.000000000000000E+20
 30
-1.000000000000000E+20
  9
$PLIMMIN
 10
0.0
 20
0.0
  9
$PLIMMAX
 10
12.0
 20
9.0
  9
$UNITMODE
 70
     0
  9
$VISRETAIN
 70
     1
  9
$PLINEGEN
 70
     0
  9
$PSLTSCALE
 70
     1
  9
$TREEDEPTH
 70
  3020
  9
$CMLSTYLE
  2
Standard
  9
$CMLJUST
 70
     0
  9
$CMLSCALE
 40
1.0
  9
$PROXYGRAPHICS
 70
     1
  9
$MEASUREMENT
 70
     0
  9
$CELWEIGHT
370
    -1
  9
$ENDCAPS
280
     0
  9
$JOINSTYLE
280
     0
  9
$LWDISPLAY
290
     1
  9
$INSUNITS
 70
     4
  9
$HYPERLINKBASE
  1

  9
$STYLESHEET
  1

  9
$XEDIT
290
     1
  9
$CEPSNTYPE
380
     0
  9
$PSTYLEMODE
290
     1
  9
$FINGERPRINTGUID
  2
{BA6765CC-0610-2442-806D-AD6650144A3A}
  9
$VERSIONGUID
  2
{A3474B9C-73F2-454C-8702-8F17A8435C9A}
  9
$EXTNAMES
290
     1
  9
$PSVPSCALE
 40
0.0
  9
$OLESTARTUP
290
     0
  9
$SORTENTS
280
   127
  9
$INDEXCTL
280
     0
  9
$HIDETEXT
280
     1
  9
$XCLIPFRAME
280
     2
  9
$HALOGAP
280
     0
  9
$OBSCOLOR
 70
   257
  9
$OBSLTYPE
280
     0
  9
$INTERSECTIONDISPLAY
280
     0
  9
$INTERSECTIONCOLOR
 70
   257
  9
$DIMASSOC
280
     2
  9
$PROJECTNAME
  1

  9
$CAMERADISPLAY
290
     0
  9
$LENSLENGTH
 40
50.0
  9
$CAMERAHEIGHT
 40
0.0
  9
$STEPSPERSEC
 40
2.0
  9
$STEPSIZE
 40
6.0
  9
$3DDWFPREC
 40
2.0
  9
$PSOLWIDTH
 40
0.25
  9
$PSOLHEIGHT
 40
4.0
  9
$LOFTANG1
 40
1.570796326794896
  9
$LOFTANG2
 40
1.570796326794896
  9
$LOFTMAG1
 40
0.0
  9
$LOFTMAG2
 40
0.0
  9
$LOFTPARAM
 70
     7
  9
$LOFTNORMALS
280
     1
  9
$LATITUDE
 40
37.795
  9
$LONGITUDE
 40
-122.394
  9
$NORTHDIRECTION
 40
0.0
  9
$TIMEZONE
 70
 -8000
  9
$LIGHTGLYPHDISPLAY
280
     1
  9
$TILEMODELIGHTSYNCH
280
     1
  9
$CMATERIAL
347
11
  9
$SOLIDHIST
280
     0
  9
$SHOWHIST
280
     1
  9
$DWFFRAME
280
     2
  9
$DGNFRAME
280
     0
  9
$REALWORLDSCALE
290
     1
  9
$INTERFERECOLOR
 62
     1
  9
$INTERFEREOBJVS
345
33
  9
$INTERFEREVPVS
346
30
  9
$CSHADOW
280
     0
  9
$SHADOWPLANELOCATION
 40
0.0
  0
ENDSEC
  0
SECTION
  2
CLASSES
  0
CLASS
  1
ACDBDICTIONARYWDFLT
  2
AcDbDictionaryWithDefault
  3
ObjectDBX Classes
 90
        0
 91
        1
280
     0
281
     0
  0
CLASS
  1
MATERIAL
  2
AcDbMaterial
  3
ObjectDBX Classes
 90
     1153
 91
        3
280
     0
281
     0
  0
CLASS
  1
VISUALSTYLE
  2
AcDbVisualStyle
  3
ObjectDBX Classes
 90
     4095
 91
       24
280
     0
281
     0
  0
CLASS
  1
SCALE
  2
AcDbScale
  3
ObjectDBX Classes
 90
     1153
 91
       17
280
     0
281
     0
  0
CLASS
  1
TABLESTYLE
  2
AcDbTableStyle
  3
ObjectDBX Classes
 90
     4095
 91
        1
280
     0
281
     0
  0
CLASS
  1
MLEADERSTYLE
  2
AcDbMLeaderStyle
  3
ACDB_MLEADERSTYLE_CLASS
 90
     4095
 91
        1
280
     0
281
     0
  0
CLASS
  1
ACDBSECTIONVIEWSTYLE
  2
AcDbSectionViewStyle
  3
ObjectDBX Classes
 90
     1025
 91
        1
280
     0
281
     0
  0
CLASS
  1
ACDBDETAILVIEWSTYLE
  2
AcDbDetailViewStyle
  3
ObjectDBX Classes
 90
     1025
 91
        1
280
     0
281
     0
  0
CLASS
  1
DICTIONARYVAR
  2
AcDbDictionaryVar
  3
ObjectDBX Classes
 90
        0
 91
        5
280
     0
281
     0
  0
CLASS
  1
CELLSTYLEMAP
  2
AcDbCellStyleMap
  3
ObjectDBX Classes
 90
     1152
 91
        1
280
     0
281
     0
  0
ENDSEC
  0
SECTION
  2
TABLES
  0
TABLE
  2
VPORT
  5
8
330
0
100
AcDbSymbolTable
 70
     1
  0
VPORT
  5
57
330
8
100
AcDbSymbolTableRecord
100
AcDbViewportTableRecord
  2
*Active
 70
     0
 10
0.0
 20
0.0
 11
1.0
 21
1.0
 12
0.0
 22
0.0
 13
0.0
 23
0.0
 14
1.0
 24
1.0
 15
0.0
 25
0.0
 16
0.0
 26
0.0
 36
1.0
 17
44.75746685935123
 27
-96.33422525624339
 37
0.0
 40
264.9429724108286
 41
1.270334928229665
 42
50.0
 43
0.0
 44
0.0
 50
0.0
 51
0.0
 71
     0
 72
   100
 73
     1
 74
     1
 75
     0
 76
     0
 77
     0
 78
     0
281
     0
 65
     1
110
0.0
120
0.0
130
0.0
111
1.0
121
0.0
131
0.0
112
0.0
122
1.0
132
0.0
 79
     0
146
0.0
 60
     3
 61
     5
292
     1
282
     1
141
0.0
142
0.0
 63
   250
421
  3355443
  0
ENDTAB
  0
TABLE
  2
LTYPE
  5
5
330
0
100
AcDbSymbolTable
 70
     1
  0
LTYPE
  5
5B
330
5
100
AcDbSymbolTableRecord
100
AcDbLinetypeTableRecord
  2
ByBlock
 70
     0
  3

 72
    65
 73
     0
 40
0.0
  0
LTYPE
  5
5C
330
5
100
AcDbSymbolTableRecord
100
AcDbLinetypeTableRecord
  2
ByLayer
 70
     0
  3

 72
    65
 73
     0
 40
0.0
  0
LTYPE
  5
5D
330
5
100
AcDbSymbolTableRecord
100
AcDbLinetypeTableRecord
  2
Continuous
 70
     0
  3
Solid line
 72
    65
 73
     0
 40
0.0
  0
ENDTAB
  0
TABLE
  2
LAYER
  5
2
330
0
100
AcDbSymbolTable
 70
     4
  0
LAYER
  5
54
330
2
100
AcDbSymbolTableRecord
100
AcDbLayerTableRecord
  2
0
 70
     0
 62
     7
  6
Continuous
370
    -3
390
F
347
21
348
0
  0
LAYER
  5
78
330
2
100
AcDbSymbolTableRecord
100
AcDbLayerTableRecord
  2
Print Artwork
 70
     1
 62
     7
  6
Continuous
370
     0
390
F
347
21
348
0
  0
LAYER
  5
D0
330
2
100
AcDbSymbolTableRecord
100
AcDbLayerTableRecord
  2
Dieline
 70
     0
 62
     7
  6
Continuous
370
     0
390
F
347
21
348
0
  0
LAYER
  5
DE
330
2
100
AcDbSymbolTableRecord
100
AcDbLayerTableRecord
  2
Annotations
 70
     1
 62
     7
  6
Continuous
370
     0
390
F
347
21
348
0
  0
ENDTAB
  0
TABLE
  2
STYLE
  5
3
330
0
100
AcDbSymbolTable
 70
     2
  0
STYLE
  5
55
330
3
100
AcDbSymbolTableRecord
100
AcDbTextStyleTableRecord
  2
Standard
 70
     0
 40
0.0
 41
1.0
 50
0.0
 71
     0
 42
0.2
  3
txt
  4

  0
STYLE
  5
5A
330
3
100
AcDbSymbolTableRecord
100
AcDbTextStyleTableRecord
  2
Annotative
 70
     0
 40
0.0
 41
1.0
 50
0.0
 71
     0
 42
0.2
  3
txt
  4

1001
AcadAnnotative
1000
AnnotativeData
1002
{
1070
     1
1070
     1
1002
}
  0
ENDTAB
  0
TABLE
  2
VIEW
  5
6
330
0
100
AcDbSymbolTable
 70
     0
  0
ENDTAB
  0
TABLE
  2
UCS
  5
7
330
0
100
AcDbSymbolTable
 70
     0
  0
ENDTAB
  0
TABLE
  2
APPID
  5
9
330
0
100
AcDbSymbolTable
 70
     2
  0
APPID
  5
56
330
9
100
AcDbSymbolTableRecord
100
AcDbRegAppTableRecord
  2
ACAD
 70
     0
  0
APPID
  5
5E
330
9
100
AcDbSymbolTableRecord
100
AcDbRegAppTableRecord
  2
AcadAnnotative
 70
     0
  0
ENDTAB
  0
TABLE
  2
DIMSTYLE
  5
A
330
0
100
AcDbSymbolTable
 70
     2
100
AcDbDimStyleTable
 71
     0
  0
DIMSTYLE
105
58
330
A
100
AcDbSymbolTableRecord
100
AcDbDimStyleTableRecord
  2
Standard
 70
     0
340
55
  0
DIMSTYLE
105
59
330
A
100
AcDbSymbolTableRecord
100
AcDbDimStyleTableRecord
  2
Annotative
 70
     0
340
55
1001
AcadAnnotative
1000
AnnotativeData
1002
{
1070
     1
1070
     1
1002
}
  0
ENDTAB
  0
TABLE
  2
BLOCK_RECORD
  5
1
330
0
100
AcDbSymbolTable
 70
    32
  0
BLOCK_RECORD
  5
70
330
1
100
AcDbSymbolTableRecord
100
AcDbBlockTableRecord
  2
*Model_Space
340
73
 70
     0
280
     1
281
     0
  0
BLOCK_RECORD
  5
6C
330
1
100
AcDbSymbolTableRecord
100
AcDbBlockTableRecord
  2
*Paper_Space
340
6F
 70
     0
280
     1
281
     0
  0
BLOCK_RECORD
  5
74
330
1
100
AcDbSymbolTableRecord
100
AcDbBlockTableRecord
  2
*Paper_Space0
340
77
 70
     0
280
     1
281
     0
  0
BLOCK_RECORD
  5
7B
330
1
100
AcDbSymbolTableRecord
100
AcDbBlockTableRecord
  2
Block_0
340
0
102
{BLKREFS
331
7C
102
}
 70
     0
280
     1
281
     0
  0
BLOCK_RECORD
  5
85
330
1
100
AcDbSymbolTableRecord
100
AcDbBlockTableRecord
  2
Block_1
340
0
102
{BLKREFS
331
86
102
}
 70
     0
280
     1
281
     0
  0
BLOCK_RECORD
  5
89
330
1
100
AcDbSymbolTableRecord
100
AcDbBlockTableRecord
  2
Block_2
340
0
102
{BLKREFS
331
8A
102
}
 70
     0
280
     1
281
     0
  0
BLOCK_RECORD
  5
91
330
1
100
AcDbSymbolTableRecord
100
AcDbBlockTableRecord
  2
Block_3
340
0
102
{BLKREFS
331
92
102
}
 70
     0
280
     1
281
     0
  0
BLOCK_RECORD
  5
9D
330
1
100
AcDbSymbolTableRecord
100
AcDbBlockTableRecord
  2
Block_4
340
0
102
{BLKREFS
331
9E
102
}
 70
     0
280
     1
281
     0
  0
BLOCK_RECORD
  5
A7
330
1
100
AcDbSymbolTableRecord
100
AcDbBlockTableRecord
  2
Block_5
340
0
102
{BLKREFS
331
A8
102
}
 70
     0
280
     1
281
     0
  0
BLOCK_RECORD
  5
B1
330
1
100
AcDbSymbolTableRecord
100
AcDbBlockTableRecord
  2
Block_6
340
0
102
{BLKREFS
331
B2
102
}
 70
     0
280
     1
281
     0
  0
BLOCK_RECORD
  5
BB
330
1
100
AcDbSymbolTableRecord
100
AcDbBlockTableRecord
  2
Block_7
340
0
102
{BLKREFS
331
BC
102
}
 70
     0
280
     1
281
     0
  0
BLOCK_RECORD
  5
BF
330
1
100
AcDbSymbolTableRecord
100
AcDbBlockTableRecord
  2
Block_8
340
0
102
{BLKREFS
331
C0
102
}
 70
     0
280
     1
281
     0
  0
BLOCK_RECORD
  5
C8
330
1
100
AcDbSymbolTableRecord
100
AcDbBlockTableRecord
  2
Block_9
340
0
102
{BLKREFS
331
C9
102
}
 70
     0
280
     1
281
     0
  0
BLOCK_RECORD
  5
D1
330
1
100
AcDbSymbolTableRecord
100
AcDbBlockTableRecord
  2
Block_10
340
0
102
{BLKREFS
331
D2
102
}
 70
     0
280
     1
281
     0
  0
BLOCK_RECORD
  5
EB
330
1
100
AcDbSymbolTableRecord
100
AcDbBlockTableRecord
  2
Block_11
340
0
102
{BLKREFS
331
EC
102
}
 70
     0
280
     1
281
     0
  0
BLOCK_RECORD
  5
EF
330
1
100
AcDbSymbolTableRecord
100
AcDbBlockTableRecord
  2
Block_12
340
0
102
{BLKREFS
331
F0
102
}
 70
     0
280
     1
281
     0
  0
BLOCK_RECORD
  5
FC
330
1
100
AcDbSymbolTableRecord
100
AcDbBlockTableRecord
  2
Block_13
340
0
102
{BLKREFS
331
FD
102
}
 70
     0
280
     1
281
     0
  0
BLOCK_RECORD
  5
10E
330
1
100
AcDbSymbolTableRecord
100
AcDbBlockTableRecord
  2
Block_14
340
0
102
{BLKREFS
331
10F
102
}
 70
     0
280
     1
281
     0
  0
BLOCK_RECORD
  5
113
330
1
100
AcDbSymbolTableRecord
100
AcDbBlockTableRecord
  2
Block_15
340
0
102
{BLKREFS
331
114
102
}
 70
     0
280
     1
281
     0
  0
BLOCK_RECORD
  5
118
330
1
100
AcDbSymbolTableRecord
100
AcDbBlockTableRecord
  2
Block_16
340
0
102
{BLKREFS
331
119
102
}
 70
     0
280
     1
281
     0
  0
BLOCK_RECORD
  5
11E
330
1
100
AcDbSymbolTableRecord
100
AcDbBlockTableRecord
  2
Block_17
340
0
102
{BLKREFS
331
11F
102
}
 70
     0
280
     1
281
     0
  0
BLOCK_RECORD
  5
123
330
1
100
AcDbSymbolTableRecord
100
AcDbBlockTableRecord
  2
Block_18
340
0
102
{BLKREFS
331
124
102
}
 70
     0
280
     1
281
     0
  0
BLOCK_RECORD
  5
129
330
1
100
AcDbSymbolTableRecord
100
AcDbBlockTableRecord
  2
Block_19
340
0
102
{BLKREFS
331
12A
102
}
 70
     0
280
     1
281
     0
  0
BLOCK_RECORD
  5
12E
330
1
100
AcDbSymbolTableRecord
100
AcDbBlockTableRecord
  2
Block_20
340
0
102
{BLKREFS
331
12F
102
}
 70
     0
280
     1
281
     0
  0
BLOCK_RECORD
  5
132
330
1
100
AcDbSymbolTableRecord
100
AcDbBlockTableRecord
  2
Block_21
340
0
102
{BLKREFS
331
133
102
}
 70
     0
280
     1
281
     0
  0
BLOCK_RECORD
  5
138
330
1
100
AcDbSymbolTableRecord
100
AcDbBlockTableRecord
  2
Block_22
340
0
102
{BLKREFS
331
139
102
}
 70
     0
280
     1
281
     0
  0
BLOCK_RECORD
  5
13E
330
1
100
AcDbSymbolTableRecord
100
AcDbBlockTableRecord
  2
Block_23
340
0
102
{BLKREFS
331
13F
102
}
 70
     0
280
     1
281
     0
  0
BLOCK_RECORD
  5
146
330
1
100
AcDbSymbolTableRecord
100
AcDbBlockTableRecord
  2
Block_24
340
0
102
{BLKREFS
331
147
102
}
 70
     0
280
     1
281
     0
  0
BLOCK_RECORD
  5
14C
330
1
100
AcDbSymbolTableRecord
100
AcDbBlockTableRecord
  2
Block_25
340
0
102
{BLKREFS
331
14D
102
}
 70
     0
280
     1
281
     0
  0
BLOCK_RECORD
  5
158
330
1
100
AcDbSymbolTableRecord
100
AcDbBlockTableRecord
  2
Block_26
340
0
102
{BLKREFS
331
159
102
}
 70
     0
280
     1
281
     0
  0
BLOCK_RECORD
  5
15E
330
1
100
AcDbSymbolTableRecord
100
AcDbBlockTableRecord
  2
Block_27
340
0
102
{BLKREFS
331
15F
102
}
 70
     0
280
     1
281
     0
  0
BLOCK_RECORD
  5
164
330
1
100
AcDbSymbolTableRecord
100
AcDbBlockTableRecord
  2
Block_28
340
0
102
{BLKREFS
331
165
102
}
 70
     0
280
     1
281
     0
  0
BLOCK_RECORD
  5
16A
330
1
100
AcDbSymbolTableRecord
100
AcDbBlockTableRecord
  2
Block_29
340
0
102
{BLKREFS
331
16B
102
}
 70
     0
280
     1
281
     0
  0
BLOCK_RECORD
  5
170
330
1
100
AcDbSymbolTableRecord
100
AcDbBlockTableRecord
  2
Block_30
340
0
102
{BLKREFS
331
171
102
}
 70
     0
280
     1
281
     0
  0
ENDTAB
  0
ENDSEC
  0
SECTION
  2
BLOCKS
  0
BLOCK
  5
71
330
70
100
AcDbEntity
  8
0
100
AcDbBlockBegin
  2
*Model_Space
 70
     0
 10
0.0
 20
0.0
 30
0.0
  3
*Model_Space
  1

  0
ENDBLK
  5
72
330
70
100
AcDbEntity
  8
0
100
AcDbBlockEnd
  0
BLOCK
  5
6D
330
6C
100
AcDbEntity
 67
     1
  8
0
100
AcDbBlockBegin
  2
*Paper_Space
 70
     0
 10
0.0
 20
0.0
 30
0.0
  3
*Paper_Space
  1

  0
ENDBLK
  5
6E
330
6C
100
AcDbEntity
 67
     1
  8
0
100
AcDbBlockEnd
  0
BLOCK
  5
75
330
74
100
AcDbEntity
 67
     1
  8
0
100
AcDbBlockBegin
  2
*Paper_Space0
 70
     0
 10
0.0
 20
0.0
 30
0.0
  3
*Paper_Space0
  1

  0
ENDBLK
  5
76
330
74
100
AcDbEntity
 67
     1
  8
0
100
AcDbBlockEnd
  0
BLOCK
  5
7D
330
7B
100
AcDbEntity
  8
0
100
AcDbBlockBegin
  2
Block_0
 70
     0
 10
0.0
 20
0.0
 30
0.0
  3
Block_0
  1

  0
LWPOLYLINE
  5
7F
330
7B
100
AcDbEntity
  8
Print Artwork
100
AcDbPolyline
 90
        7
 70
     1
 43
0.0
 10
83.69604346408308
 20
-138.5849851407882
 10
80.56957735193392
 20
-135.6597143932083
 10
77.44313826686973
 20
-138.5849851407882
 10
79.56506440365867
 20
-138.5849851407882
 10
79.56506440365867
 20
-140.0836815310477
 10
81.57409030020984
 20
-140.0836815310477
 10
81.57409030020984
 20
-138.5849851407882
  0
LWPOLYLINE
  5
80
330
7B
100
AcDbEntity
  8
Print Artwork
100
AcDbPolyline
 90
        7
 70
     1
 43
0.0
 10
62.44313827061962
 20
-137.8048769312181
 10
65.56960438276909
 20
-140.7301476787963
 10
68.69604346783328
 20
-137.8048769312181
 10
66.57411733104403
 20
-137.8048769312181
 10
66.57411733104403
 20
-136.306180540957
 10
64.56509143449285
 20
-136.306180540957
 10
64.56509143449285
 20
-137.8048769312181
  0
SPLINE
  5
81
330
7B
100
AcDbEntity
  8
Print Artwork
100
AcDbSpline
210
0.0
220
0.0
230
1.0
 70
     9
 71
     3
 72
    29
 73
    25
 74
     0
 42
0.0000000001
 43
0.0000000001
 40
0.0
 40
0.0
 40
0.0
 40
0.0
 40
1.0
 40
1.0
 40
1.0
 40
2.0
 40
2.0
 40
2.0
 40
3.0
 40
3.0
 40
3.0
 40
4.0
 40
4.0
 40
4.0
 40
5.0
 40
5.0
 40
5.0
 40
6.0
 40
6.0
 40
6.0
 40
7.0
 40
7.0
 40
7.0
 40
8.0
 40
8.0
 40
8.0
 40
8.0
 10
-74.80402222501813
 20
-133.7611683029864
 30
0.0
 10
-75.76899347043661
 20
-133.7611683029864
 30
0.0
 10
-76.55413073152505
 20
-134.5463055640748
 30
0.0
 10
-76.55413073152505
 20
-135.5112768094933
 30
0.0
 10
-76.55413073152505
 20
-135.5112768094933
 30
0.0
 10
-76.55413073152505
 20
-158.4649144990674
 30
0.0
 10
-76.55413073152505
 20
-158.4649144990674
 30
0.0
 10
-76.55413073152505
 20
-159.4298857444859
 30
0.0
 10
-75.76899347043661
 20
-160.2146784960258
 30
0.0
 10
-74.80402222501813
 20
-160.2146784960258
 30
0.0
 10
-74.80402222501813
 20
-160.2146784960258
 30
0.0
 10
19.28697872801931
 20
-160.2146784960258
 30
0.0
 10
19.28697872801931
 20
-160.2146784960258
 30
0.0
 10
20.25194997343779
 20
-160.2146784960258
 30
0.0
 10
21.03708723452623
 20
-159.4298857444859
 30
0.0
 10
21.03708723452623
 20
-158.4649144990674
 30
0.0
 10
21.03708723452623
 20
-158.4649144990674
 30
0.0
 10
21.03708723452623
 20
-135.5112768094933
 30
0.0
 10
21.03708723452623
 20
-135.5112768094933
 30
0.0
 10
21.03708723452623
 20
-134.5463055640748
 30
0.0
 10
20.25194997343779
 20
-133.7611683029864
 30
0.0
 10
19.28697872801931
 20
-133.7611683029864
 30
0.0
 10
19.28697872801931
 20
-133.7611683029864
 30
0.0
 10
-74.80402222501813
 20
-133.7611683029864
 30
0.0
 10
-74.80402222501813
 20
-133.7611683029864
 30
0.0
  0
SPLINE
  5
82
330
7B
100
AcDbEntity
  8
Print Artwork
100
AcDbSpline
210
0.0
220
0.0
230
1.0
 70
     9
 71
     3
 72
    29
 73
    25
 74
     0
 42
0.0000000001
 43
0.0000000001
 40
0.0
 40
0.0
 40
0.0
 40
0.0
 40
1.0
 40
1.0
 40
1.0
 40
2.0
 40
2.0
 40
2.0
 40
3.0
 40
3.0
 40
3.0
 40
4.0
 40
4.0
 40
4.0
 40
5.0
 40
5.0
 40
5.0
 40
6.0
 40
6.0
 40
6.0
 40
7.0
 40
7.0
 40
7.0
 40
8.0
 40
8.0
 40
8.0
 40
8.0
 10
19.28697872801931
 20
-160.7149063604841
 30
0.0
 10
19.28697872801931
 20
-160.7149063604841
 30
0.0
 10
-74.80402222501813
 20
-160.7149063604841
 30
0.0
 10
-74.80402222501813
 20
-160.7149063604841
 30
0.0
 10
-76.04477336403085
 20
-160.7149063604841
 30
0.0
 10
-77.05401408643479
 20
-159.7054933833059
 30
0.0
 10
-77.05401408643479
 20
-158.4649144990674
 30
0.0
 10
-77.05401408643479
 20
-158.4649144990674
 30
0.0
 10
-77.05401408643479
 20
-135.5112768094933
 30
0.0
 10
-77.05401408643479
 20
-135.5112768094933
 30
0.0
 10
-77.05401408643479
 20
-134.2705256704806
 30
0.0
 10
-76.04477336403085
 20
-133.2612849480766
 30
0.0
 10
-74.80402222501813
 20
-133.2612849480766
 30
0.0
 10
-74.80402222501813
 20
-133.2612849480766
 30
0.0
 10
19.28697872801931
 20
-133.2612849480766
 30
0.0
 10
19.28697872801931
 20
-133.2612849480766
 30
0.0
 10
20.52772986703204
 20
-133.2612849480766
 30
0.0
 10
21.53697058943599
 20
-134.2705256704806
 30
0.0
 10
21.53697058943599
 20
-135.5112768094933
 30
0.0
 10
21.53697058943599
 20
-135.5112768094933
 30
0.0
 10
21.53697058943599
 20
-158.4649144990674
 30
0.0
 10
21.53697058943599
 20
-158.4649144990674
 30
0.0
 10
21.53697058943599
 20
-159.7054933833059
 30
0.0
 10
20.52772986703204
 20
-160.7149063604841
 30
0.0
 10
19.28697872801931
 20
-160.7149063604841
 30
0.0
  0
SPLINE
  5
83
330
7B
100
AcDbEntity
  8
Print Artwork
100
AcDbSpline
210
0.0
220
0.0
230
1.0
 70
     9
 71
     3
 72
    29
 73
    25
 74
     0
 42
0.0000000001
 43
0.0000000001
 40
0.0
 40
0.0
 40
0.0
 40
0.0
 40
1.0
 40
1.0
 40
1.0
 40
2.0
 40
2.0
 40
2.0
 40
3.0
 40
3.0
 40
3.0
 40
4.0
 40
4.0
 40
4.0
 40
5.0
 40
5.0
 40
5.0
 40
6.0
 40
6.0
 40
6.0
 40
7.0
 40
7.0
 40
7.0
 40
8.0
 40
8.0
 40
8.0
 40
8.0
 10
31.36531124453098
 20
-133.7611683029864
 30
0.0
 10
30.4003399991125
 20
-133.7611683029864
 30
0.0
 10
29.61520273802407
 20
-134.5463055640748
 30
0.0
 10
29.61520273802407
 20
-135.5112768094933
 30
0.0
 10
29.61520273802407
 20
-135.5112768094933
 30
0.0
 10
29.61520273802407
 20
-158.4649144990674
 30
0.0
 10
29.61520273802407
 20
-158.4649144990674
 30
0.0
 10
29.61520273802407
 20
-159.4298857444859
 30
0.0
 10
30.4003399991125
 20
-160.2146784960258
 30
0.0
 10
31.36531124453098
 20
-160.2146784960258
 30
0.0
 10
31.36531124453098
 20
-160.2146784960258
 30
0.0
 10
118.7120899227811
 20
-160.2146784960258
 30
0.0
 10
118.7120899227811
 20
-160.2146784960258
 30
0.0
 10
119.6770611681996
 20
-160.2146784960258
 30
0.0
 10
120.462198429288
 20
-159.4298857444859
 30
0.0
 10
120.462198429288
 20
-158.4649144990674
 30
0.0
 10
120.462198429288
 20
-158.4649144990674
 30
0.0
 10
120.462198429288
 20
-135.5112768094933
 30
0.0
 10
120.462198429288
 20
-135.5112768094933
 30
0.0
 10
120.462198429288
 20
-134.5463055640748
 30
0.0
 10
119.6770611681996
 20
-133.7611683029864
 30
0.0
 10
118.7120899227811
 20
-133.7611683029864
 30
0.0
 10
118.7120899227811
 20
-133.7611683029864
 30
0.0
 10
31.36531124453098
 20
-133.7611683029864
 30
0.0
 10
31.36531124453098
 20
-133.7611683029864
 30
0.0
  0
SPLINE
  5
84
330
7B
100
AcDbEntity
  8
Print Artwork
100
AcDbSpline
210
0.0
220
0.0
230
1.0
 70
     9
 71
     3
 72
    29
 73
    25
 74
     0
 42
0.0000000001
 43
0.0000000001
 40
0.0
 40
0.0
 40
0.0
 40
0.0
 40
1.0
 40
1.0
 40
1.0
 40
2.0
 40
2.0
 40
2.0
 40
3.0
 40
3.0
 40
3.0
 40
4.0
 40
4.0
 40
4.0
 40
5.0
 40
5.0
 40
5.0
 40
6.0
 40
6.0
 40
6.0
 40
7.0
 40
7.0
 40
7.0
 40
8.0
 40
8.0
 40
8.0
 40
8.0
 10
118.7120899227811
 20
-160.7149063604841
 30
0.0
 10
118.7120899227811
 20
-160.7149063604841
 30
0.0
 10
31.36531124453098
 20
-160.7149063604841
 30
0.0
 10
31.36531124453098
 20
-160.7149063604841
 30
0.0
 10
30.12456010551825
 20
-160.7149063604841
 30
0.0
 10
29.11531938311432
 20
-159.7054933833059
 30
0.0
 10
29.11531938311432
 20
-158.4649144990674
 30
0.0
 10
29.11531938311432
 20
-158.4649144990674
 30
0.0
 10
29.11531938311432
 20
-135.5112768094933
 30
0.0
 10
29.11531938311432
 20
-135.5112768094933
 30
0.0
 10
29.11531938311432
 20
-134.2705256704806
 30
0.0
 10
30.12456010551825
 20
-133.2612849480766
 30
0.0
 10
31.36531124453098
 20
-133.2612849480766
 30
0.0
 10
31.36531124453098
 20
-133.2612849480766
 30
0.0
 10
118.7120899227811
 20
-133.2612849480766
 30
0.0
 10
118.7120899227811
 20
-133.2612849480766
 30
0.0
 10
119.9528410617938
 20
-133.2612849480766
 30
0.0
 10
120.9620817841977
 20
-134.2705256704806
 30
0.0
 10
120.9620817841977
 20
-135.5112768094933
 30
0.0
 10
120.9620817841977
 20
-135.5112768094933
 30
0.0
 10
120.9620817841977
 20
-158.4649144990674
 30
0.0
 10
120.9620817841977
 20
-158.4649144990674
 30
0.0
 10
120.9620817841977
 20
-159.7054933833059
 30
0.0
 10
119.9528410617938
 20
-160.7149063604841
 30
0.0
 10
118.7120899227811
 20
-160.7149063604841
 30
0.0
  0
INSERT
  5
86
330
7B
100
AcDbEntity
  8
Print Artwork
100
AcDbBlockReference
  2
Block_1
 10
0.0
 20
0.0
 30
0.0
  0
INSERT
  5
9E
330
7B
100
AcDbEntity
  8
Print Artwork
100
AcDbBlockReference
  2
Block_4
 10
0.0
 20
0.0
 30
0.0
  0
INSERT
  5
A8
330
7B
100
AcDbEntity
  8
Print Artwork
100
AcDbBlockReference
  2
Block_5
 10
0.0
 20
0.0
 30
0.0
  0
INSERT
  5
B2
330
7B
100
AcDbEntity
  8
Print Artwork
100
AcDbBlockReference
  2
Block_6
 10
0.0
 20
0.0
 30
0.0
  0
INSERT
  5
BC
330
7B
100
AcDbEntity
  8
Print Artwork
100
AcDbBlockReference
  2
Block_7
 10
0.0
 20
0.0
 30
0.0
  0
ENDBLK
  5
7E
330
7B
100
AcDbEntity
  8
0
100
AcDbBlockEnd
  0
BLOCK
  5
87
330
85
100
AcDbEntity
  8
0
100
AcDbBlockBegin
  2
Block_1
 70
     0
 10
0.0
 20
0.0
 30
0.0
  3
Block_1
  1

  0
INSERT
  5
8A
330
85
100
AcDbEntity
  8
Print Artwork
100
AcDbBlockReference
  2
Block_2
 10
0.0
 20
0.0
 30
0.0
  0
SPLINE
  5
90
330
85
100
AcDbEntity
  8
Print Artwork
100
AcDbSpline
210
0.0
220
0.0
230
1.0
 70
    11
 71
     3
 72
    29
 73
    25
 74
     0
 42
0.0000000001
 43
0.0000000001
 40
0.0
 40
0.0
 40
0.0
 40
0.0
 40
1.0
 40
1.0
 40
1.0
 40
2.0
 40
2.0
 40
2.0
 40
3.0
 40
3.0
 40
3.0
 40
4.0
 40
4.0
 40
4.0
 40
5.0
 40
5.0
 40
5.0
 40
6.0
 40
6.0
 40
6.0
 40
7.0
 40
7.0
 40
7.0
 40
8.0
 40
8.0
 40
8.0
 40
8.0
 10
126.830552252903
 20
-147.5106610295833
 30
0.0
 10
126.830552252903
 20
-147.5106610295833
 30
0.0
 10
126.3306688979932
 20
-147.5106610295833
 30
0.0
 10
126.3306688979932
 20
-147.5106610295833
 30
0.0
 10
126.3306688979932
 20
-147.5106610295833
 30
0.0
 10
126.3306688979932
 20
-138.6718074076615
 30
0.0
 10
126.3306688979932
 20
-138.6718074076615
 30
0.0
 10
126.3306688979932
 20
-138.2582236946573
 30
0.0
 10
126.6670824721279
 20
-137.9218101205226
 30
0.0
 10
127.0806661851321
 20
-137.9218101205226
 30
0.0
 10
127.0806661851321
 20
-137.9218101205226
 30
0.0
 10
129.8624085346971
 20
-137.9218101205226
 30
0.0
 10
129.8624085346971
 20
-137.9218101205226
 30
0.0
 10
129.8624085346971
 20
-137.9218101205226
 30
0.0
 10
129.8624085346971
 20
-138.4216934754324
 30
0.0
 10
129.8624085346971
 20
-138.4216934754324
 30
0.0
 10
129.8624085346971
 20
-138.4216934754324
 30
0.0
 10
127.0806661851321
 20
-138.4216934754324
 30
0.0
 10
127.0806661851321
 20
-138.4216934754324
 30
0.0
 10
126.9428623657221
 20
-138.4216934754324
 30
0.0
 10
126.830552252903
 20
-138.5340035882515
 30
0.0
 10
126.830552252903
 20
-138.6718074076615
 30
0.0
 10
126.830552252903
 20
-138.6718074076615
 30
0.0
 10
126.830552252903
 20
-147.5106610295833
 30
0.0
 10
126.830552252903
 20
-147.5106610295833
 30
0.0
  0
INSERT
  5
92
330
85
100
AcDbEntity
  8
Print Artwork
100
AcDbBlockReference
  2
Block_3
 10
0.0
 20
0.0
 30
0.0
  0
ENDBLK
  5
88
330
85
100
AcDbEntity
  8
0
100
AcDbBlockEnd
  0
BLOCK
  5
8B
330
89
100
AcDbEntity
  8
0
100
AcDbBlockBegin
  2
Block_2
 70
     0
 10
0.0
 20
0.0
 30
0.0
  3
Block_2
  1

  0
SPLINE
  5
8D
330
89
100
AcDbEntity
  8
Print Artwork
100
AcDbSpline
210
0.0
220
0.0
230
1.0
 70
    11
 71
     3
 72
    17
 73
    13
 74
     0
 42
0.0000000001
 43
0.0000000001
 40
0.0
 40
0.0
 40
0.0
 40
0.0
 40
1.0
 40
1.0
 40
1.0
 40
2.0
 40
2.0
 40
2.0
 40
3.0
 40
3.0
 40
3.0
 40
4.0
 40
4.0
 40
4.0
 40
4.0
 10
133.6501876678651
 20
-136.9406066281872
 30
0.0
 10
132.9713316024967
 20
-136.9406066281872
 30
0.0
 10
132.4190827962111
 20
-137.4928554344728
 30
0.0
 10
132.4190827962111
 20
-138.1717114998412
 30
0.0
 10
132.4190827962111
 20
-138.8505675652097
 30
0.0
 10
132.9713316024967
 20
-139.4029886262695
 30
0.0
 10
133.6501876678651
 20
-139.4029886262695
 30
0.0
 10
134.3290437332336
 20
-139.4029886262695
 30
0.0
 10
134.8812925395192
 20
-138.8505675652097
 30
0.0
 10
134.8812925395192
 20
-138.1717114998412
 30
0.0
 10
134.8812925395192
 20
-137.4928554344728
 30
0.0
 10
134.3290437332336
 20
-136.9406066281872
 30
0.0
 10
133.6501876678651
 20
-136.9406066281872
 30
0.0
  0
SPLINE
  5
8E
330
89
100
AcDbEntity
  8
Print Artwork
100
AcDbSpline
210
0.0
220
0.0
230
1.0
 70
    11
 71
     3
 72
    17
 73
    13
 74
     0
 42
0.0000000001
 43
0.0000000001
 40
0.0
 40
0.0
 40
0.0
 40
0.0
 40
1.0
 40
1.0
 40
1.0
 40
2.0
 40
2.0
 40
2.0
 40
3.0
 40
3.0
 40
3.0
 40
4.0
 40
4.0
 40
4.0
 40
4.0
 10
133.6501876678651
 20
-139.7557664039591
 30
0.0
 10
132.7768559623543
 20
-139.7557664039591
 30
0.0
 10
132.0663050185215
 20
-139.0452154601263
 30
0.0
 10
132.0663050185215
 20
-138.1717114998412
 30
0.0
 10
132.0663050185215
 20
-137.2983797943304
 30
0.0
 10
132.7768559623543
 20
-136.5878288504976
 30
0.0
 10
133.6501876678651
 20
-136.5878288504976
 30
0.0
 10
134.523519373376
 20
-136.5878288504976
 30
0.0
 10
135.2340703172087
 20
-137.2983797943304
 30
0.0
 10
135.2340703172087
 20
-138.1717114998412
 30
0.0
 10
135.2340703172087
 20
-139.0452154601263
 30
0.0
 10
134.523519373376
 20
-139.7557664039591
 30
0.0
 10
133.6501876678651
 20
-139.7557664039591
 30
0.0
  0
SPLINE
  5
8F
330
89
100
AcDbEntity
  8
Print Artwork
100
AcDbSpline
210
0.0
220
0.0
230
1.0
 70
    11
 71
     3
 72
    23
 73
    19
 74
     0
 42
0.0000000001
 43
0.0000000001
 40
0.0
 40
0.0
 40
0.0
 40
0.0
 40
1.0
 40
1.0
 40
1.0
 40
2.0
 40
2.0
 40
2.0
 40
3.0
 40
3.0
 40
3.0
 40
4.0
 40
4.0
 40
4.0
 40
5.0
 40
5.0
 40
5.0
 40
6.0
 40
6.0
 40
6.0
 40
6.0
 10
133.6501876678651
 20
-139.1638989995932
 30
0.0
 10
133.5526914656326
 20
-139.1638989995932
 30
0.0
 10
133.4737987790203
 20
-139.0850063129809
 30
0.0
 10
133.4737987790203
 20
-138.9875101107484
 30
0.0
 10
133.4737987790203
 20
-138.9875101107484
 30
0.0
 10
133.4737987790203
 20
-137.3173278194993
 30
0.0
 10
133.4737987790203
 20
-137.3173278194993
 30
0.0
 10
133.4737987790203
 20
-137.2198316172667
 30
0.0
 10
133.5526914656326
 20
-137.1409389306545
 30
0.0
 10
133.6501876678651
 20
-137.1409389306545
 30
0.0
 10
133.7476838700977
 20
-137.1409389306545
 30
0.0
 10
133.8265765567099
 20
-137.2198316172667
 30
0.0
 10
133.8265765567099
 20
-137.3173278194993
 30
0.0
 10
133.8265765567099
 20
-137.3173278194993
 30
0.0
 10
133.8265765567099
 20
-138.9875101107484
 30
0.0
 10
133.8265765567099
 20
-138.9875101107484
 30
0.0
 10
133.8265765567099
 20
-139.0850063129809
 30
0.0
 10
133.7476838700977
 20
-139.1638989995932
 30
0.0
 10
133.6501876678651
 20
-139.1638989995932
 30
0.0
  0
ENDBLK
  5
8C
330
89
100
AcDbEntity
  8
0
100
AcDbBlockEnd
  0
BLOCK
  5
93
330
91
100
AcDbEntity
  8
0
100
AcDbBlockBegin
  2
Block_3
 70
     0
 10
0.0
 20
0.0
 30
0.0
  3
Block_3
  1

  0
SPLINE
  5
95
330
91
100
AcDbEntity
  8
Print Artwork
100
AcDbSpline
210
0.0
220
0.0
230
1.0
 70
     9
 71
     3
 72
    20
 73
    16
 74
     0
 42
0.0000000001
 43
0.0000000001
 40
0.0
 40
0.0
 40
0.0
 40
0.0
 40
1.0
 40
1.0
 40
1.0
 40
2.0
 40
2.0
 40
2.0
 40
3.0
 40
3.0
 40
3.0
 40
4.0
 40
4.0
 40
4.0
 40
5.0
 40
5.0
 40
5.0
 40
5.0
 10
137.4127487020801
 20
-138.137989862222
 30
0.0
 10
137.780168135582
 20
-138.137989862222
 30
0.0
 10
137.9026412800826
 20
-137.9385188336261
 30
0.0
 10
137.9026412800826
 20
-137.6866823536543
 30
0.0
 10
137.9026412800826
 20
-137.4486262556235
 30
0.0
 10
137.7625981486072
 20
-137.2842952009771
 30
0.0
 10
137.4792390449454
 20
-137.2842952009771
 30
0.0
 10
137.4792390449454
 20
-137.2842952009771
 30
0.0
 10
136.5204689714004
 20
-137.2842952009771
 30
0.0
 10
136.5204689714004
 20
-137.2842952009771
 30
0.0
 10
136.5204689714004
 20
-137.2842952009771
 30
0.0
 10
136.5204689714004
 20
-138.137989862222
 30
0.0
 10
136.5204689714004
 20
-138.137989862222
 30
0.0
 10
136.5204689714004
 20
-138.137989862222
 30
0.0
 10
137.4127487020801
 20
-138.137989862222
 30
0.0
 10
137.4127487020801
 20
-138.137989862222
 30
0.0
  0
SPLINE
  5
96
330
91
100
AcDbEntity
  8
Print Artwork
100
AcDbSpline
210
0.0
220
0.0
230
1.0
 70
    11
 71
     3
 72
    26
 73
    22
 74
     0
 42
0.0000000001
 43
0.0000000001
 40
0.0
 40
0.0
 40
0.0
 40
0.0
 40
1.0
 40
1.0
 40
1.0
 40
2.0
 40
2.0
 40
2.0
 40
3.0
 40
3.0
 40
3.0
 40
4.0
 40
4.0
 40
4.0
 40
5.0
 40
5.0
 40
5.0
 40
6.0
 40
6.0
 40
6.0
 40
7.0
 40
7.0
 40
7.0
 40
7.0
 10
136.1496044424133
 20
-136.9623510278805
 30
0.0
 10
136.1496044424133
 20
-136.9623510278805
 30
0.0
 10
137.4372088800254
 20
-136.9623510278805
 30
0.0
 10
137.4372088800254
 20
-136.9623510278805
 30
0.0
 10
137.9865293551485
 20
-136.9623510278805
 30
0.0
 10
138.2735058090698
 20
-137.2141875078523
 30
0.0
 10
138.2735058090698
 20
-137.6796199079096
 30
0.0
 10
138.2735058090698
 20
-138.148497403452
 30
0.0
 10
137.9865293551485
 20
-138.4599340353186
 30
0.0
 10
137.4616690579707
 20
-138.4599340353186
 30
0.0
 10
137.4616690579707
 20
-138.4599340353186
 30
0.0
 10
136.5204689714004
 20
-138.4599340353186
 30
0.0
 10
136.5204689714004
 20
-138.4599340353186
 30
0.0
 10
136.5204689714004
 20
-138.4599340353186
 30
0.0
 10
136.5204689714004
 20
-139.4605620190094
 30
0.0
 10
136.5204689714004
 20
-139.4605620190094
 30
0.0
 10
136.5204689714004
 20
-139.4605620190094
 30
0.0
 10
136.1496044424133
 20
-139.4605620190094
 30
0.0
 10
136.1496044424133
 20
-139.4605620190094
 30
0.0
 10
136.1496044424133
 20
-139.4605620190094
 30
0.0
 10
136.1496044424133
 20
-136.9623510278805
 30
0.0
 10
136.1496044424133
 20
-136.9623510278805
 30
0.0
  0
SPLINE
  5
97
330
91
100
AcDbEntity
  8
Print Artwork
100
AcDbSpline
210
0.0
220
0.0
230
1.0
 70
    11
 71
     3
 72
    17
 73
    13
 74
     0
 42
0.0000000001
 43
0.0000000001
 40
0.0
 40
0.0
 40
0.0
 40
0.0
 40
1.0
 40
1.0
 40
1.0
 40
2.0
 40
2.0
 40
2.0
 40
3.0
 40
3.0
 40
3.0
 40
4.0
 40
4.0
 40
4.0
 40
4.0
 10
139.9152660625656
 20
-137.2212499535971
 30
0.0
 10
139.3449305049825
 20
-137.2212499535971
 30
0.0
 10
138.8970680919
 20
-137.5500843176642
 30
0.0
 10
138.8970680919
 20
-138.2113703960579
 30
0.0
 10
138.8970680919
 20
-138.8726564744516
 30
0.0
 10
139.3449305049825
 20
-139.2016630932929
 30
0.0
 10
139.9152660625656
 20
-139.2016630932929
 30
0.0
 10
140.4856016201487
 20
-139.2016630932929
 30
0.0
 10
140.9334640332312
 20
-138.8726564744516
 30
0.0
 10
140.9334640332312
 20
-138.2113703960579
 30
0.0
 10
140.9334640332312
 20
-137.5500843176642
 30
0.0
 10
140.4856016201487
 20
-137.2212499535971
 30
0.0
 10
139.9152660625656
 20
-137.2212499535971
 30
0.0
  0
SPLINE
  5
98
330
91
100
AcDbEntity
  8
Print Artwork
100
AcDbSpline
210
0.0
220
0.0
230
1.0
 70
    11
 71
     3
 72
    17
 73
    13
 74
     0
 42
0.0000000001
 43
0.0000000001
 40
0.0
 40
0.0
 40
0.0
 40
0.0
 40
1.0
 40
1.0
 40
1.0
 40
2.0
 40
2.0
 40
2.0
 40
3.0
 40
3.0
 40
3.0
 40
4.0
 40
4.0
 40
4.0
 40
4.0
 10
139.9152660625656
 20
-136.8993057805004
 30
0.0
 10
140.9229564920012
 20
-136.8993057805004
 30
0.0
 10
141.3043285622183
 20
-137.5710994001242
 30
0.0
 10
141.3043285622183
 20
-138.2113703960579
 30
0.0
 10
141.3043285622183
 20
-138.8518136467658
 30
0.0
 10
140.9229564920012
 20
-139.5236072663895
 30
0.0
 10
139.9152660625656
 20
-139.5236072663895
 30
0.0
 10
138.90757563313
 20
-139.5236072663895
 30
0.0
 10
138.5262035629128
 20
-138.8518136467658
 30
0.0
 10
138.5262035629128
 20
-138.2113703960579
 30
0.0
 10
138.5262035629128
 20
-137.5710994001242
 30
0.0
 10
138.90757563313
 20
-136.8993057805004
 30
0.0
 10
139.9152660625656
 20
-136.8993057805004
 30
0.0
  0
SPLINE
  5
99
330
91
100
AcDbEntity
  8
Print Artwork
100
AcDbSpline
210
0.0
220
0.0
230
1.0
 70
    11
 71
     3
 72
    53
 73
    49
 74
     0
 42
0.0000000001
 43
0.0000000001
 40
0.0
 40
0.0
 40
0.0
 40
0.0
 40
1.0
 40
1.0
 40
1.0
 40
2.0
 40
2.0
 40
2.0
 40
3.0
 40
3.0
 40
3.0
 40
4.0
 40
4.0
 40
4.0
 40
5.0
 40
5.0
 40
5.0
 40
6.0
 40
6.0
 40
6.0
 40
7.0
 40
7.0
 40
7.0
 40
8.0
 40
8.0
 40
8.0
 40
9.0
 40
9.0
 40
9.0
 40
10.0
 40
10.0
 40
10.0
 40
11.0
 40
11.0
 40
11.0
 40
12.0
 40
12.0
 40
12.0
 40
13.0
 40
13.0
 40
13.0
 40
14.0
 40
14.0
 40
14.0
 40
15.0
 40
15.0
 40
15.0
 40
16.0
 40
16.0
 40
16.0
 40
16.0
 10
143.3415857774208
 20
-137.389198358503
 30
0.0
 10
143.3415857774208
 20
-137.389198358503
 30
0.0
 10
143.3345233316761
 20
-137.389198358503
 30
0.0
 10
143.3345233316761
 20
-137.389198358503
 30
0.0
 10
143.3345233316761
 20
-137.389198358503
 30
0.0
 10
142.6453319798518
 20
-139.4605620190094
 30
0.0
 10
142.6453319798518
 20
-139.4605620190094
 30
0.0
 10
142.6453319798518
 20
-139.4605620190094
 30
0.0
 10
142.2358823814299
 20
-139.4605620190094
 30
0.0
 10
142.2358823814299
 20
-139.4605620190094
 30
0.0
 10
142.2358823814299
 20
-139.4605620190094
 30
0.0
 10
141.413710343875
 20
-136.9623510278805
 30
0.0
 10
141.413710343875
 20
-136.9623510278805
 30
0.0
 10
141.413710343875
 20
-136.9623510278805
 30
0.0
 10
141.8160974965522
 20
-136.9623510278805
 30
0.0
 10
141.8160974965522
 20
-136.9623510278805
 30
0.0
 10
141.8160974965522
 20
-136.9623510278805
 30
0.0
 10
142.4563684924859
 20
-138.9916845234669
 30
0.0
 10
142.4563684924859
 20
-138.9916845234669
 30
0.0
 10
142.4563684924859
 20
-138.9916845234669
 30
0.0
 10
142.4634309382306
 20
-138.9916845234669
 30
0.0
 10
142.4634309382306
 20
-138.9916845234669
 30
0.0
 10
142.4634309382306
 20
-138.9916845234669
 30
0.0
 10
143.1316072075949
 20
-136.9623510278805
 30
0.0
 10
143.1316072075949
 20
-136.9623510278805
 30
0.0
 10
143.1316072075949
 20
-136.9623510278805
 30
0.0
 10
143.5725794297068
 20
-136.9623510278805
 30
0.0
 10
143.5725794297068
 20
-136.9623510278805
 30
0.0
 10
143.5725794297068
 20
-136.9623510278805
 30
0.0
 10
144.2583256860458
 20
-138.9916845234669
 30
0.0
 10
144.2583256860458
 20
-138.9916845234669
 30
0.0
 10
144.2583256860458
 20
-138.9916845234669
 30
0.0
 10
144.2653881317906
 20
-138.9916845234669
 30
0.0
 10
144.2653881317906
 20
-138.9916845234669
 30
0.0
 10
144.2653881317906
 20
-138.9916845234669
 30
0.0
 10
144.9020417774647
 20
-136.9623510278805
 30
0.0
 10
144.9020417774647
 20
-136.9623510278805
 30
0.0
 10
144.9020417774647
 20
-136.9623510278805
 30
0.0
 10
145.2870311979414
 20
-136.9623510278805
 30
0.0
 10
145.2870311979414
 20
-136.9623510278805
 30
0.0
 10
145.2870311979414
 20
-136.9623510278805
 30
0.0
 10
144.440226727667
 20
-139.4605620190094
 30
0.0
 10
144.440226727667
 20
-139.4605620190094
 30
0.0
 10
144.440226727667
 20
-139.4605620190094
 30
0.0
 10
144.0343944795046
 20
-139.4605620190094
 30
0.0
 10
144.0343944795046
 20
-139.4605620190094
 30
0.0
 10
144.0343944795046
 20
-139.4605620190094
 30
0.0
 10
143.3415857774208
 20
-137.389198358503
 30
0.0
 10
143.3415857774208
 20
-137.389198358503
 30
0.0
  0
SPLINE
  5
9A
330
91
100
AcDbEntity
  8
Print Artwork
100
AcDbSpline
210
0.0
220
0.0
230
1.0
 70
    11
 71
     3
 72
    41
 73
    37
 74
     0
 42
0.0000000001
 43
0.0000000001
 40
0.0
 40
0.0
 40
0.0
 40
0.0
 40
1.0
 40
1.0
 40
1.0
 40
2.0
 40
2.0
 40
2.0
 40
3.0
 40
3.0
 40
3.0
 40
4.0
 40
4.0
 40
4.0
 40
5.0
 40
5.0
 40
5.0
 40
6.0
 40
6.0
 40
6.0
 40
7.0
 40
7.0
 40
7.0
 40
8.0
 40
8.0
 40
8.0
 40
9.0
 40
9.0
 40
9.0
 40
10.0
 40
10.0
 40
10.0
 40
11.0
 40
11.0
 40
11.0
 40
12.0
 40
12.0
 40
12.0
 40
12.0
 10
145.5330110155882
 20
-136.9623510278805
 30
0.0
 10
145.5330110155882
 20
-136.9623510278805
 30
0.0
 10
147.5413294287146
 20
-136.9623510278805
 30
0.0
 10
147.5413294287146
 20
-136.9623510278805
 30
0.0
 10
147.5413294287146
 20
-136.9623510278805
 30
0.0
 10
147.5413294287146
 20
-137.2842952009771
 30
0.0
 10
147.5413294287146
 20
-137.2842952009771
 30
0.0
 10
147.5413294287146
 20
-137.2842952009771
 30
0.0
 10
145.9038755445754
 20
-137.2842952009771
 30
0.0
 10
145.9038755445754
 20
-137.2842952009771
 30
0.0
 10
145.9038755445754
 20
-137.2842952009771
 30
0.0
 10
145.9038755445754
 20
-138.0084542719766
 30
0.0
 10
145.9038755445754
 20
-138.0084542719766
 30
0.0
 10
145.9038755445754
 20
-138.0084542719766
 30
0.0
 10
147.4924090728241
 20
-138.0084542719766
 30
0.0
 10
147.4924090728241
 20
-138.0084542719766
 30
0.0
 10
147.4924090728241
 20
-138.0084542719766
 30
0.0
 10
147.4924090728241
 20
-138.3303984450732
 30
0.0
 10
147.4924090728241
 20
-138.3303984450732
 30
0.0
 10
147.4924090728241
 20
-138.3303984450732
 30
0.0
 10
145.9038755445754
 20
-138.3303984450732
 30
0.0
 10
145.9038755445754
 20
-138.3303984450732
 30
0.0
 10
145.9038755445754
 20
-138.3303984450732
 30
0.0
 10
145.9038755445754
 20
-139.1386178459129
 30
0.0
 10
145.9038755445754
 20
-139.1386178459129
 30
0.0
 10
145.9038755445754
 20
-139.1386178459129
 30
0.0
 10
147.5764694026642
 20
-139.1386178459129
 30
0.0
 10
147.5764694026642
 20
-139.1386178459129
 30
0.0
 10
147.5764694026642
 20
-139.1386178459129
 30
0.0
 10
147.5764694026642
 20
-139.4605620190094
 30
0.0
 10
147.5764694026642
 20
-139.4605620190094
 30
0.0
 10
147.5764694026642
 20
-139.4605620190094
 30
0.0
 10
145.5330110155882
 20
-139.4605620190094
 30
0.0
 10
145.5330110155882
 20
-139.4605620190094
 30
0.0
 10
145.5330110155882
 20
-139.4605620190094
 30
0.0
 10
145.5330110155882
 20
-136.9623510278805
 30
0.0
 10
145.5330110155882
 20
-136.9623510278805
 30
0.0
  0
SPLINE
  5
9B
330
91
100
AcDbEntity
  8
Print Artwork
100
AcDbSpline
210
0.0
220
0.0
230
1.0
 70
     9
 71
     3
 72
    20
 73
    16
 74
     0
 42
0.0000000001
 43
0.0000000001
 40
0.0
 40
0.0
 40
0.0
 40
0.0
 40
1.0
 40
1.0
 40
1.0
 40
2.0
 40
2.0
 40
2.0
 40
3.0
 40
3.0
 40
3.0
 40
4.0
 40
4.0
 40
4.0
 40
5.0
 40
5.0
 40
5.0
 40
5.0
 10
149.4175284299817
 20
-138.0785619651015
 30
0.0
 10
149.7813305132241
 20
-138.0785619651015
 30
0.0
 10
149.8688359385494
 20
-137.8615209495307
 30
0.0
 10
149.8688359385494
 20
-137.6830650033948
 30
0.0
 10
149.8688359385494
 20
-137.4451811601383
 30
0.0
 10
149.7253477115888
 20
-137.2842952009771
 30
0.0
 10
149.4280359712117
 20
-137.2842952009771
 30
0.0
 10
149.4280359712117
 20
-137.2842952009771
 30
0.0
 10
148.3817604723413
 20
-137.2842952009771
 30
0.0
 10
148.3817604723413
 20
-137.2842952009771
 30
0.0
 10
148.3817604723413
 20
-137.2842952009771
 30
0.0
 10
148.3817604723413
 20
-138.0785619651015
 30
0.0
 10
148.3817604723413
 20
-138.0785619651015
 30
0.0
 10
148.3817604723413
 20
-138.0785619651015
 30
0.0
 10
149.4175284299817
 20
-138.0785619651015
 30
0.0
 10
149.4175284299817
 20
-138.0785619651015
 30
0.0
  0
SPLINE
  5
9C
330
91
100
AcDbEntity
  8
Print Artwork
100
AcDbSpline
210
0.0
220
0.0
230
1.0
 70
    11
 71
     3
 72
    44
 73
    40
 74
     0
 42
0.0000000001
 43
0.0000000001
 40
0.0
 40
0.0
 40
0.0
 40
0.0
 40
1.0
 40
1.0
 40
1.0
 40
2.0
 40
2.0
 40
2.0
 40
3.0
 40
3.0
 40
3.0
 40
4.0
 40
4.0
 40
4.0
 40
5.0
 40
5.0
 40
5.0
 40
6.0
 40
6.0
 40
6.0
 40
7.0
 40
7.0
 40
7.0
 40
8.0
 40
8.0
 40
8.0
 40
9.0
 40
9.0
 40
9.0
 40
10.0
 40
10.0
 40
10.0
 40
11.0
 40
11.0
 40
11.0
 40
12.0
 40
12.0
 40
12.0
 40
13.0
 40
13.0
 40
13.0
 40
13.0
 10
148.0108959433542
 20
-136.9623510278805
 30
0.0
 10
148.0108959433542
 20
-136.9623510278805
 30
0.0
 10
149.5573993066828
 20
-136.9623510278805
 30
0.0
 10
149.5573993066828
 20
-136.9623510278805
 30
0.0
 10
150.0577994259154
 20
-136.9623510278805
 30
0.0
 10
150.2397004675366
 20
-137.3087553789224
 30
0.0
 10
150.2397004675366
 20
-137.6270822017595
 30
0.0
 10
150.2397004675366
 20
-137.9350737381408
 30
0.0
 10
150.0963844953502
 20
-138.1553875944225
 30
0.0
 10
149.8199155826589
 20
-138.2428930197479
 30
0.0
 10
149.8199155826589
 20
-138.2428930197479
 30
0.0
 10
149.8199155826589
 20
-138.2499554654927
 30
0.0
 10
149.8199155826589
 20
-138.2499554654927
 30
0.0
 10
150.0438467892001
 20
-138.2814780891827
 30
0.0
 10
150.169765029186
 20
-138.4878393087492
 30
0.0
 10
150.1837176659013
 20
-138.781705953641
 30
0.0
 10
150.201287652876
 20
-139.243693258213
 30
0.0
 10
150.222302735336
 20
-139.3696114981989
 30
0.0
 10
150.3027457149166
 20
-139.4605620190094
 30
0.0
 10
150.3027457149166
 20
-139.4605620190094
 30
0.0
 10
149.9108661034695
 20
-139.4605620190094
 30
0.0
 10
149.9108661034695
 20
-139.4605620190094
 30
0.0
 10
149.8514382063489
 20
-139.3906265806589
 30
0.0
 10
149.8514382063489
 20
-139.2821060728735
 30
0.0
 10
149.8338682193741
 20
-138.9846220777222
 30
0.0
 10
149.8059629459436
 20
-138.5367596646397
 30
0.0
 10
149.6590296234977
 20
-138.4003338834238
 30
0.0
 10
149.3510380871164
 20
-138.4003338834238
 30
0.0
 10
149.3510380871164
 20
-138.4003338834238
 30
0.0
 10
148.3817604723413
 20
-138.4003338834238
 30
0.0
 10
148.3817604723413
 20
-138.4003338834238
 30
0.0
 10
148.3817604723413
 20
-138.4003338834238
 30
0.0
 10
148.3817604723413
 20
-139.4605620190094
 30
0.0
 10
148.3817604723413
 20
-139.4605620190094
 30
0.0
 10
148.3817604723413
 20
-139.4605620190094
 30
0.0
 10
148.0108959433542
 20
-139.4605620190094
 30
0.0
 10
148.0108959433542
 20
-139.4605620190094
 30
0.0
 10
148.0108959433542
 20
-139.4605620190094
 30
0.0
 10
148.0108959433542
 20
-136.9623510278805
 30
0.0
 10
148.0108959433542
 20
-136.9623510278805
 30
0.0
  0
ENDBLK
  5
94
330
91
100
AcDbEntity
  8
0
100
AcDbBlockEnd
  0
BLOCK
  5
9F
330
9D
100
AcDbEntity
  8
0
100
AcDbBlockBegin
  2
Block_4
 70
     0
 10
0.0
 20
0.0
 30
0.0
  3
Block_4
  1

  0
SPLINE
  5
A1
330
9D
100
AcDbEntity
  8
Print Artwork
100
AcDbSpline
210
0.0
220
0.0
230
1.0
 70
    11
 71
     3
 72
    41
 73
    37
 74
     0
 42
0.0000000001
 43
0.0000000001
 40
0.0
 40
0.0
 40
0.0
 40
0.0
 40
1.0
 40
1.0
 40
1.0
 40
2.0
 40
2.0
 40
2.0
 40
3.0
 40
3.0
 40
3.0
 40
4.0
 40
4.0
 40
4.0
 40
5.0
 40
5.0
 40
5.0
 40
6.0
 40
6.0
 40
6.0
 40
7.0
 40
7.0
 40
7.0
 40
8.0
 40
8.0
 40
8.0
 40
9.0
 40
9.0
 40
9.0
 40
10.0
 40
10.0
 40
10.0
 40
11.0
 40
11.0
 40
11.0
 40
12.0
 40
12.0
 40
12.0
 40
12.0
 10
95.77304221258946
 20
-136.9623510278805
 30
0.0
 10
95.77304221258946
 20
-136.9623510278805
 30
0.0
 10
97.78136062571588
 20
-136.9623510278805
 30
0.0
 10
97.78136062571588
 20
-136.9623510278805
 30
0.0
 10
97.78136062571588
 20
-136.9623510278805
 30
0.0
 10
97.78136062571588
 20
-137.2842952009771
 30
0.0
 10
97.78136062571588
 20
-137.2842952009771
 30
0.0
 10
97.78136062571588
 20
-137.2842952009771
 30
0.0
 10
96.14390674157663
 20
-137.2842952009771
 30
0.0
 10
96.14390674157663
 20
-137.2842952009771
 30
0.0
 10
96.14390674157663
 20
-137.2842952009771
 30
0.0
 10
96.14390674157663
 20
-138.0084542719766
 30
0.0
 10
96.14390674157663
 20
-138.0084542719766
 30
0.0
 10
96.14390674157663
 20
-138.0084542719766
 30
0.0
 10
97.73244026982531
 20
-138.0084542719766
 30
0.0
 10
97.73244026982531
 20
-138.0084542719766
 30
0.0
 10
97.73244026982531
 20
-138.0084542719766
 30
0.0
 10
97.73244026982531
 20
-138.3303984450732
 30
0.0
 10
97.73244026982531
 20
-138.3303984450732
 30
0.0
 10
97.73244026982531
 20
-138.3303984450732
 30
0.0
 10
96.14390674157663
 20
-138.3303984450732
 30
0.0
 10
96.14390674157663
 20
-138.3303984450732
 30
0.0
 10
96.14390674157663
 20
-138.3303984450732
 30
0.0
 10
96.14390674157663
 20
-139.1386178459129
 30
0.0
 10
96.14390674157663
 20
-139.1386178459129
 30
0.0
 10
96.14390674157663
 20
-139.1386178459129
 30
0.0
 10
97.81650059966542
 20
-139.1386178459129
 30
0.0
 10
97.81650059966542
 20
-139.1386178459129
 30
0.0
 10
97.81650059966542
 20
-139.1386178459129
 30
0.0
 10
97.81650059966542
 20
-139.4605620190094
 30
0.0
 10
97.81650059966542
 20
-139.4605620190094
 30
0.0
 10
97.81650059966542
 20
-139.4605620190094
 30
0.0
 10
95.77304221258946
 20
-139.4605620190094
 30
0.0
 10
95.77304221258946
 20
-139.4605620190094
 30
0.0
 10
95.77304221258946
 20
-139.4605620190094
 30
0.0
 10
95.77304221258946
 20
-136.9623510278805
 30
0.0
 10
95.77304221258946
 20
-136.9623510278805
 30
0.0
  0
SPLINE
  5
A2
330
9D
100
AcDbEntity
  8
Print Artwork
100
AcDbSpline
210
0.0
220
0.0
230
1.0
 70
    11
 71
     3
 72
    41
 73
    37
 74
     0
 42
0.0000000001
 43
0.0000000001
 40
0.0
 40
0.0
 40
0.0
 40
0.0
 40
1.0
 40
1.0
 40
1.0
 40
2.0
 40
2.0
 40
2.0
 40
3.0
 40
3.0
 40
3.0
 40
4.0
 40
4.0
 40
4.0
 40
5.0
 40
5.0
 40
5.0
 40
6.0
 40
6.0
 40
6.0
 40
7.0
 40
7.0
 40
7.0
 40
8.0
 40
8.0
 40
8.0
 40
9.0
 40
9.0
 40
9.0
 40
10.0
 40
10.0
 40
10.0
 40
11.0
 40
11.0
 40
11.0
 40
12.0
 40
12.0
 40
12.0
 40
12.0
 10
98.62885411508734
 20
-137.4732586883431
 30
0.0
 10
98.62885411508734
 20
-137.4732586883431
 30
0.0
 10
98.62179166934257
 20
-137.4732586883431
 30
0.0
 10
98.62179166934257
 20
-137.4732586883431
 30
0.0
 10
98.62179166934257
 20
-137.4732586883431
 30
0.0
 10
98.62179166934257
 20
-139.4605620190094
 30
0.0
 10
98.62179166934257
 20
-139.4605620190094
 30
0.0
 10
98.62179166934257
 20
-139.4605620190094
 30
0.0
 10
98.25092714035543
 20
-139.4605620190094
 30
0.0
 10
98.25092714035543
 20
-139.4605620190094
 30
0.0
 10
98.25092714035543
 20
-139.4605620190094
 30
0.0
 10
98.25092714035543
 20
-136.9623510278805
 30
0.0
 10
98.25092714035543
 20
-136.9623510278805
 30
0.0
 10
98.25092714035543
 20
-136.9623510278805
 30
0.0
 10
98.68139182123739
 20
-136.9623510278805
 30
0.0
 10
98.68139182123739
 20
-136.9623510278805
 30
0.0
 10
98.68139182123739
 20
-136.9623510278805
 30
0.0
 10
100.2873230816866
 20
-138.9496543585469
 30
0.0
 10
100.2873230816866
 20
-138.9496543585469
 30
0.0
 10
100.2873230816866
 20
-138.9496543585469
 30
0.0
 10
100.2943855274313
 20
-138.9496543585469
 30
0.0
 10
100.2943855274313
 20
-138.9496543585469
 30
0.0
 10
100.2943855274313
 20
-138.9496543585469
 30
0.0
 10
100.2943855274313
 20
-136.9623510278805
 30
0.0
 10
100.2943855274313
 20
-136.9623510278805
 30
0.0
 10
100.2943855274313
 20
-136.9623510278805
 30
0.0
 10
100.6652500564185
 20
-136.9623510278805
 30
0.0
 10
100.6652500564185
 20
-136.9623510278805
 30
0.0
 10
100.6652500564185
 20
-136.9623510278805
 30
0.0
 10
100.6652500564185
 20
-139.4605620190094
 30
0.0
 10
100.6652500564185
 20
-139.4605620190094
 30
0.0
 10
100.6652500564185
 20
-139.4605620190094
 30
0.0
 10
100.2347853755365
 20
-139.4605620190094
 30
0.0
 10
100.2347853755365
 20
-139.4605620190094
 30
0.0
 10
100.2347853755365
 20
-139.4605620190094
 30
0.0
 10
98.62885411508734
 20
-137.4732586883431
 30
0.0
 10
98.62885411508734
 20
-137.4732586883431
 30
0.0
  0
SPLINE
  5
A3
330
9D
100
AcDbEntity
  8
Print Artwork
100
AcDbSpline
210
0.0
220
0.0
230
1.0
 70
    11
 71
     3
 72
    29
 73
    25
 74
     0
 42
0.0000000001
 43
0.0000000001
 40
0.0
 40
0.0
 40
0.0
 40
0.0
 40
1.0
 40
1.0
 40
1.0
 40
2.0
 40
2.0
 40
2.0
 40
3.0
 40
3.0
 40
3.0
 40
4.0
 40
4.0
 40
4.0
 40
5.0
 40
5.0
 40
5.0
 40
6.0
 40
6.0
 40
6.0
 40
7.0
 40
7.0
 40
7.0
 40
8.0
 40
8.0
 40
8.0
 40
8.0
 10
101.8977329662666
 20
-137.2842952009771
 30
0.0
 10
101.8977329662666
 20
-137.2842952009771
 30
0.0
 10
100.9529155294368
 20
-137.2842952009771
 30
0.0
 10
100.9529155294368
 20
-137.2842952009771
 30
0.0
 10
100.9529155294368
 20
-137.2842952009771
 30
0.0
 10
100.9529155294368
 20
-136.9623510278805
 30
0.0
 10
100.9529155294368
 20
-136.9623510278805
 30
0.0
 10
100.9529155294368
 20
-136.9623510278805
 30
0.0
 10
103.2132426773093
 20
-136.9623510278805
 30
0.0
 10
103.2132426773093
 20
-136.9623510278805
 30
0.0
 10
103.2132426773093
 20
-136.9623510278805
 30
0.0
 10
103.2132426773093
 20
-137.2842952009771
 30
0.0
 10
103.2132426773093
 20
-137.2842952009771
 30
0.0
 10
103.2132426773093
 20
-137.2842952009771
 30
0.0
 10
102.2685974952538
 20
-137.2842952009771
 30
0.0
 10
102.2685974952538
 20
-137.2842952009771
 30
0.0
 10
102.2685974952538
 20
-137.2842952009771
 30
0.0
 10
102.2685974952538
 20
-139.4605620190094
 30
0.0
 10
102.2685974952538
 20
-139.4605620190094
 30
0.0
 10
102.2685974952538
 20
-139.4605620190094
 30
0.0
 10
101.8977329662666
 20
-139.4605620190094
 30
0.0
 10
101.8977329662666
 20
-139.4605620190094
 30
0.0
 10
101.8977329662666
 20
-139.4605620190094
 30
0.0
 10
101.8977329662666
 20
-137.2842952009771
 30
0.0
 10
101.8977329662666
 20
-137.2842952009771
 30
0.0
  0
SPLINE
  5
A4
330
9D
100
AcDbEntity
  8
Print Artwork
100
AcDbSpline
210
0.0
220
0.0
230
1.0
 70
    11
 71
     3
 72
    41
 73
    37
 74
     0
 42
0.0000000001
 43
0.0000000001
 40
0.0
 40
0.0
 40
0.0
 40
0.0
 40
1.0
 40
1.0
 40
1.0
 40
2.0
 40
2.0
 40
2.0
 40
3.0
 40
3.0
 40
3.0
 40
4.0
 40
4.0
 40
4.0
 40
5.0
 40
5.0
 40
5.0
 40
6.0
 40
6.0
 40
6.0
 40
7.0
 40
7.0
 40
7.0
 40
8.0
 40
8.0
 40
8.0
 40
9.0
 40
9.0
 40
9.0
 40
10.0
 40
10.0
 40
10.0
 40
11.0
 40
11.0
 40
11.0
 40
12.0
 40
12.0
 40
12.0
 40
12.0
 10
103.4867832588381
 20
-136.9623510278805
 30
0.0
 10
103.4867832588381
 20
-136.9623510278805
 30
0.0
 10
105.4951016719645
 20
-136.9623510278805
 30
0.0
 10
105.4951016719645
 20
-136.9623510278805
 30
0.0
 10
105.4951016719645
 20
-136.9623510278805
 30
0.0
 10
105.4951016719645
 20
-137.2842952009771
 30
0.0
 10
105.4951016719645
 20
-137.2842952009771
 30
0.0
 10
105.4951016719645
 20
-137.2842952009771
 30
0.0
 10
103.8576477878252
 20
-137.2842952009771
 30
0.0
 10
103.8576477878252
 20
-137.2842952009771
 30
0.0
 10
103.8576477878252
 20
-137.2842952009771
 30
0.0
 10
103.8576477878252
 20
-138.0084542719766
 30
0.0
 10
103.8576477878252
 20
-138.0084542719766
 30
0.0
 10
103.8576477878252
 20
-138.0084542719766
 30
0.0
 10
105.4461813160739
 20
-138.0084542719766
 30
0.0
 10
105.4461813160739
 20
-138.0084542719766
 30
0.0
 10
105.4461813160739
 20
-138.0084542719766
 30
0.0
 10
105.4461813160739
 20
-138.3303984450732
 30
0.0
 10
105.4461813160739
 20
-138.3303984450732
 30
0.0
 10
105.4461813160739
 20
-138.3303984450732
 30
0.0
 10
103.8576477878252
 20
-138.3303984450732
 30
0.0
 10
103.8576477878252
 20
-138.3303984450732
 30
0.0
 10
103.8576477878252
 20
-138.3303984450732
 30
0.0
 10
103.8576477878252
 20
-139.1386178459129
 30
0.0
 10
103.8576477878252
 20
-139.1386178459129
 30
0.0
 10
103.8576477878252
 20
-139.1386178459129
 30
0.0
 10
105.530241645914
 20
-139.1386178459129
 30
0.0
 10
105.530241645914
 20
-139.1386178459129
 30
0.0
 10
105.530241645914
 20
-139.1386178459129
 30
0.0
 10
105.530241645914
 20
-139.4605620190094
 30
0.0
 10
105.530241645914
 20
-139.4605620190094
 30
0.0
 10
105.530241645914
 20
-139.4605620190094
 30
0.0
 10
103.4867832588381
 20
-139.4605620190094
 30
0.0
 10
103.4867832588381
 20
-139.4605620190094
 30
0.0
 10
103.4867832588381
 20
-139.4605620190094
 30
0.0
 10
103.4867832588381
 20
-136.9623510278805
 30
0.0
 10
103.4867832588381
 20
-136.9623510278805
 30
0.0
  0
SPLINE
  5
A5
330
9D
100
AcDbEntity
  8
Print Artwork
100
AcDbSpline
210
0.0
220
0.0
230
1.0
 70
     9
 71
     3
 72
    20
 73
    16
 74
     0
 42
0.0000000001
 43
0.0000000001
 40
0.0
 40
0.0
 40
0.0
 40
0.0
 40
1.0
 40
1.0
 40
1.0
 40
2.0
 40
2.0
 40
2.0
 40
3.0
 40
3.0
 40
3.0
 40
4.0
 40
4.0
 40
4.0
 40
5.0
 40
5.0
 40
5.0
 40
5.0
 10
107.3713006732315
 20
-138.0785619651015
 30
0.0
 10
107.7351027564739
 20
-138.0785619651015
 30
0.0
 10
107.8226081817993
 20
-137.8615209495307
 30
0.0
 10
107.8226081817993
 20
-137.6830650033948
 30
0.0
 10
107.8226081817993
 20
-137.4451811601383
 30
0.0
 10
107.6791199548386
 20
-137.2842952009771
 30
0.0
 10
107.3818082144616
 20
-137.2842952009771
 30
0.0
 10
107.3818082144616
 20
-137.2842952009771
 30
0.0
 10
106.3355327155912
 20
-137.2842952009771
 30
0.0
 10
106.3355327155912
 20
-137.2842952009771
 30
0.0
 10
106.3355327155912
 20
-137.2842952009771
 30
0.0
 10
106.3355327155912
 20
-138.0785619651015
 30
0.0
 10
106.3355327155912
 20
-138.0785619651015
 30
0.0
 10
106.3355327155912
 20
-138.0785619651015
 30
0.0
 10
107.3713006732315
 20
-138.0785619651015
 30
0.0
 10
107.3713006732315
 20
-138.0785619651015
 30
0.0
  0
SPLINE
  5
A6
330
9D
100
AcDbEntity
  8
Print Artwork
100
AcDbSpline
210
0.0
220
0.0
230
1.0
 70
    11
 71
     3
 72
    44
 73
    40
 74
     0
 42
0.0000000001
 43
0.0000000001
 40
0.0
 40
0.0
 40
0.0
 40
0.0
 40
1.0
 40
1.0
 40
1.0
 40
2.0
 40
2.0
 40
2.0
 40
3.0
 40
3.0
 40
3.0
 40
4.0
 40
4.0
 40
4.0
 40
5.0
 40
5.0
 40
5.0
 40
6.0
 40
6.0
 40
6.0
 40
7.0
 40
7.0
 40
7.0
 40
8.0
 40
8.0
 40
8.0
 40
9.0
 40
9.0
 40
9.0
 40
10.0
 40
10.0
 40
10.0
 40
11.0
 40
11.0
 40
11.0
 40
12.0
 40
12.0
 40
12.0
 40
13.0
 40
13.0
 40
13.0
 40
13.0
 10
105.9646681866041
 20
-136.9623510278805
 30
0.0
 10
105.9646681866041
 20
-136.9623510278805
 30
0.0
 10
107.5111715499327
 20
-136.9623510278805
 30
0.0
 10
107.5111715499327
 20
-136.9623510278805
 30
0.0
 10
108.0115716691652
 20
-136.9623510278805
 30
0.0
 10
108.1934727107864
 20
-137.3087553789224
 30
0.0
 10
108.1934727107864
 20
-137.6270822017595
 30
0.0
 10
108.1934727107864
 20
-137.9350737381408
 30
0.0
 10
108.0501567386001
 20
-138.1553875944225
 30
0.0
 10
107.7736878259087
 20
-138.2428930197479
 30
0.0
 10
107.7736878259087
 20
-138.2428930197479
 30
0.0
 10
107.7736878259087
 20
-138.2499554654927
 30
0.0
 10
107.7736878259087
 20
-138.2499554654927
 30
0.0
 10
107.99761903245
 20
-138.2814780891827
 30
0.0
 10
108.1235372724359
 20
-138.4878393087492
 30
0.0
 10
108.1374899091511
 20
-138.781705953641
 30
0.0
 10
108.1550598961259
 20
-139.243693258213
 30
0.0
 10
108.1760749785859
 20
-139.3696114981989
 30
0.0
 10
108.2565179581665
 20
-139.4605620190094
 30
0.0
 10
108.2565179581665
 20
-139.4605620190094
 30
0.0
 10
107.8646383467193
 20
-139.4605620190094
 30
0.0
 10
107.8646383467193
 20
-139.4605620190094
 30
0.0
 10
107.8052104495988
 20
-139.3906265806589
 30
0.0
 10
107.8052104495988
 20
-139.2821060728735
 30
0.0
 10
107.787640462624
 20
-138.9846220777222
 30
0.0
 10
107.7597351891935
 20
-138.5367596646397
 30
0.0
 10
107.6128018667476
 20
-138.4003338834238
 30
0.0
 10
107.3048103303662
 20
-138.4003338834238
 30
0.0
 10
107.3048103303662
 20
-138.4003338834238
 30
0.0
 10
106.3355327155912
 20
-138.4003338834238
 30
0.0
 10
106.3355327155912
 20
-138.4003338834238
 30
0.0
 10
106.3355327155912
 20
-138.4003338834238
 30
0.0
 10
106.3355327155912
 20
-139.4605620190094
 30
0.0
 10
106.3355327155912
 20
-139.4605620190094
 30
0.0
 10
106.3355327155912
 20
-139.4605620190094
 30
0.0
 10
105.9646681866041
 20
-139.4605620190094
 30
0.0
 10
105.9646681866041
 20
-139.4605620190094
 30
0.0
 10
105.9646681866041
 20
-139.4605620190094
 30
0.0
 10
105.9646681866041
 20
-136.9623510278805
 30
0.0
 10
105.9646681866041
 20
-136.9623510278805
 30
0.0
  0
ENDBLK
  5
A0
330
9D
100
AcDbEntity
  8
0
100
AcDbBlockEnd
  0
BLOCK
  5
A9
330
A7
100
AcDbEntity
  8
0
100
AcDbBlockBegin
  2
Block_5
 70
     0
 10
0.0
 20
0.0
 30
0.0
  3
Block_5
  1

  0
SPLINE
  5
AB
330
A7
100
AcDbEntity
  8
Print Artwork
100
AcDbSpline
210
0.0
220
0.0
230
1.0
 70
    11
 71
     3
 72
    23
 73
    19
 74
     0
 42
0.0000000001
 43
0.0000000001
 40
0.0
 40
0.0
 40
0.0
 40
0.0
 40
1.0
 40
1.0
 40
1.0
 40
2.0
 40
2.0
 40
2.0
 40
3.0
 40
3.0
 40
3.0
 40
4.0
 40
4.0
 40
4.0
 40
5.0
 40
5.0
 40
5.0
 40
6.0
 40
6.0
 40
6.0
 40
6.0
 10
-56.10442033082396
 20
-138.9026288051803
 30
0.0
 10
-56.10442033082396
 20
-138.9026288051803
 30
0.0
 10
-55.73355580183681
 20
-138.9026288051803
 30
0.0
 10
-55.73355580183681
 20
-138.9026288051803
 30
0.0
 10
-55.73355580183681
 20
-138.9026288051803
 30
0.0
 10
-55.73355580183681
 20
-141.0788956232126
 30
0.0
 10
-55.73355580183681
 20
-141.0788956232126
 30
0.0
 10
-55.73355580183681
 20
-141.0788956232126
 30
0.0
 10
-54.21495771193868
 20
-141.0788956232126
 30
0.0
 10
-54.21495771193868
 20
-141.0788956232126
 30
0.0
 10
-54.21495771193868
 20
-141.0788956232126
 30
0.0
 10
-54.21495771193868
 20
-141.4008397963092
 30
0.0
 10
-54.21495771193868
 20
-141.4008397963092
 30
0.0
 10
-54.21495771193868
 20
-141.4008397963092
 30
0.0
 10
-56.10442033082396
 20
-141.4008397963092
 30
0.0
 10
-56.10442033082396
 20
-141.4008397963092
 30
0.0
 10
-56.10442033082396
 20
-141.4008397963092
 30
0.0
 10
-56.10442033082396
 20
-138.9026288051803
 30
0.0
 10
-56.10442033082396
 20
-138.9026288051803
 30
0.0
  0
SPLINE
  5
AC
330
A7
100
AcDbEntity
  8
Print Artwork
100
AcDbSpline
210
0.0
220
0.0
230
1.0
 70
    11
 71
     3
 72
    17
 73
    13
 74
     0
 42
0.0000000001
 43
0.0000000001
 40
0.0
 40
0.0
 40
0.0
 40
0.0
 40
1.0
 40
1.0
 40
1.0
 40
2.0
 40
2.0
 40
2.0
 40
3.0
 40
3.0
 40
3.0
 40
4.0
 40
4.0
 40
4.0
 40
4.0
 10
-53.88181697851503
 20
-138.9026288051803
 30
0.0
 10
-53.88181697851503
 20
-138.9026288051803
 30
0.0
 10
-53.51095244952788
 20
-138.9026288051803
 30
0.0
 10
-53.51095244952788
 20
-138.9026288051803
 30
0.0
 10
-53.51095244952788
 20
-138.9026288051803
 30
0.0
 10
-53.51095244952788
 20
-141.4008397963092
 30
0.0
 10
-53.51095244952788
 20
-141.4008397963092
 30
0.0
 10
-53.51095244952788
 20
-141.4008397963092
 30
0.0
 10
-53.88181697851503
 20
-141.4008397963092
 30
0.0
 10
-53.88181697851503
 20
-141.4008397963092
 30
0.0
 10
-53.88181697851503
 20
-141.4008397963092
 30
0.0
 10
-53.88181697851503
 20
-138.9026288051803
 30
0.0
 10
-53.88181697851503
 20
-138.9026288051803
 30
0.0
  0
SPLINE
  5
AD
330
A7
100
AcDbEntity
  8
Print Artwork
100
AcDbSpline
210
0.0
220
0.0
230
1.0
 70
    11
 71
     3
 72
    41
 73
    37
 74
     0
 42
0.0000000001
 43
0.0000000001
 40
0.0
 40
0.0
 40
0.0
 40
0.0
 40
1.0
 40
1.0
 40
1.0
 40
2.0
 40
2.0
 40
2.0
 40
3.0
 40
3.0
 40
3.0
 40
4.0
 40
4.0
 40
4.0
 40
5.0
 40
5.0
 40
5.0
 40
6.0
 40
6.0
 40
6.0
 40
7.0
 40
7.0
 40
7.0
 40
8.0
 40
8.0
 40
8.0
 40
9.0
 40
9.0
 40
9.0
 40
10.0
 40
10.0
 40
10.0
 40
11.0
 40
11.0
 40
11.0
 40
12.0
 40
12.0
 40
12.0
 40
12.0
 10
-52.54839277094908
 20
-139.4135364656428
 30
0.0
 10
-52.54839277094908
 20
-139.4135364656428
 30
0.0
 10
-52.55545521669384
 20
-139.4135364656428
 30
0.0
 10
-52.55545521669384
 20
-139.4135364656428
 30
0.0
 10
-52.55545521669384
 20
-139.4135364656428
 30
0.0
 10
-52.55545521669384
 20
-141.4008397963092
 30
0.0
 10
-52.55545521669384
 20
-141.4008397963092
 30
0.0
 10
-52.55545521669384
 20
-141.4008397963092
 30
0.0
 10
-52.92631974568099
 20
-141.4008397963092
 30
0.0
 10
-52.92631974568099
 20
-141.4008397963092
 30
0.0
 10
-52.92631974568099
 20
-141.4008397963092
 30
0.0
 10
-52.92631974568099
 20
-138.9026288051803
 30
0.0
 10
-52.92631974568099
 20
-138.9026288051803
 30
0.0
 10
-52.92631974568099
 20
-138.9026288051803
 30
0.0
 10
-52.49585506479902
 20
-138.9026288051803
 30
0.0
 10
-52.49585506479902
 20
-138.9026288051803
 30
0.0
 10
-52.49585506479902
 20
-138.9026288051803
 30
0.0
 10
-50.8899238043498
 20
-140.8899321358467
 30
0.0
 10
-50.8899238043498
 20
-140.8899321358467
 30
0.0
 10
-50.8899238043498
 20
-140.8899321358467
 30
0.0
 10
-50.88286135860505
 20
-140.8899321358467
 30
0.0
 10
-50.88286135860505
 20
-140.8899321358467
 30
0.0
 10
-50.88286135860505
 20
-140.8899321358467
 30
0.0
 10
-50.88286135860505
 20
-138.9026288051803
 30
0.0
 10
-50.88286135860505
 20
-138.9026288051803
 30
0.0
 10
-50.88286135860505
 20
-138.9026288051803
 30
0.0
 10
-50.5119968296179
 20
-138.9026288051803
 30
0.0
 10
-50.5119968296179
 20
-138.9026288051803
 30
0.0
 10
-50.5119968296179
 20
-138.9026288051803
 30
0.0
 10
-50.5119968296179
 20
-141.4008397963092
 30
0.0
 10
-50.5119968296179
 20
-141.4008397963092
 30
0.0
 10
-50.5119968296179
 20
-141.4008397963092
 30
0.0
 10
-50.94246151049986
 20
-141.4008397963092
 30
0.0
 10
-50.94246151049986
 20
-141.4008397963092
 30
0.0
 10
-50.94246151049986
 20
-141.4008397963092
 30
0.0
 10
-52.54839277094908
 20
-139.4135364656428
 30
0.0
 10
-52.54839277094908
 20
-139.4135364656428
 30
0.0
  0
SPLINE
  5
AE
330
A7
100
AcDbEntity
  8
Print Artwork
100
AcDbSpline
210
0.0
220
0.0
230
1.0
 70
    11
 71
     3
 72
    41
 73
    37
 74
     0
 42
0.0000000001
 43
0.0000000001
 40
0.0
 40
0.0
 40
0.0
 40
0.0
 40
1.0
 40
1.0
 40
1.0
 40
2.0
 40
2.0
 40
2.0
 40
3.0
 40
3.0
 40
3.0
 40
4.0
 40
4.0
 40
4.0
 40
5.0
 40
5.0
 40
5.0
 40
6.0
 40
6.0
 40
6.0
 40
7.0
 40
7.0
 40
7.0
 40
8.0
 40
8.0
 40
8.0
 40
9.0
 40
9.0
 40
9.0
 40
10.0
 40
10.0
 40
10.0
 40
11.0
 40
11.0
 40
11.0
 40
12.0
 40
12.0
 40
12.0
 40
12.0
 10
-49.95836998513826
 20
-138.9026288051803
 30
0.0
 10
-49.95836998513826
 20
-138.9026288051803
 30
0.0
 10
-47.95005157201186
 20
-138.9026288051803
 30
0.0
 10
-47.95005157201186
 20
-138.9026288051803
 30
0.0
 10
-47.95005157201186
 20
-138.9026288051803
 30
0.0
 10
-47.95005157201186
 20
-139.2245729782769
 30
0.0
 10
-47.95005157201186
 20
-139.2245729782769
 30
0.0
 10
-47.95005157201186
 20
-139.2245729782769
 30
0.0
 10
-49.5875054561511
 20
-139.2245729782769
 30
0.0
 10
-49.5875054561511
 20
-139.2245729782769
 30
0.0
 10
-49.5875054561511
 20
-139.2245729782769
 30
0.0
 10
-49.5875054561511
 20
-139.9487320492764
 30
0.0
 10
-49.5875054561511
 20
-139.9487320492764
 30
0.0
 10
-49.5875054561511
 20
-139.9487320492764
 30
0.0
 10
-47.9989719279024
 20
-139.9487320492764
 30
0.0
 10
-47.9989719279024
 20
-139.9487320492764
 30
0.0
 10
-47.9989719279024
 20
-139.9487320492764
 30
0.0
 10
-47.9989719279024
 20
-140.270676222373
 30
0.0
 10
-47.9989719279024
 20
-140.270676222373
 30
0.0
 10
-47.9989719279024
 20
-140.270676222373
 30
0.0
 10
-49.5875054561511
 20
-140.270676222373
 30
0.0
 10
-49.5875054561511
 20
-140.270676222373
 30
0.0
 10
-49.5875054561511
 20
-140.270676222373
 30
0.0
 10
-49.5875054561511
 20
-141.0788956232126
 30
0.0
 10
-49.5875054561511
 20
-141.0788956232126
 30
0.0
 10
-49.5875054561511
 20
-141.0788956232126
 30
0.0
 10
-47.91491159806231
 20
-141.0788956232126
 30
0.0
 10
-47.91491159806231
 20
-141.0788956232126
 30
0.0
 10
-47.91491159806231
 20
-141.0788956232126
 30
0.0
 10
-47.91491159806231
 20
-141.4008397963092
 30
0.0
 10
-47.91491159806231
 20
-141.4008397963092
 30
0.0
 10
-47.91491159806231
 20
-141.4008397963092
 30
0.0
 10
-49.95836998513826
 20
-141.4008397963092
 30
0.0
 10
-49.95836998513826
 20
-141.4008397963092
 30
0.0
 10
-49.95836998513826
 20
-141.4008397963092
 30
0.0
 10
-49.95836998513826
 20
-138.9026288051803
 30
0.0
 10
-49.95836998513826
 20
-138.9026288051803
 30
0.0
  0
SPLINE
  5
AF
330
A7
100
AcDbEntity
  8
Print Artwork
100
AcDbSpline
210
0.0
220
0.0
230
1.0
 70
    11
 71
     3
 72
    14
 73
    10
 74
     0
 42
0.0000000001
 43
0.0000000001
 40
0.0
 40
0.0
 40
0.0
 40
0.0
 40
1.0
 40
1.0
 40
1.0
 40
2.0
 40
2.0
 40
2.0
 40
3.0
 40
3.0
 40
3.0
 40
3.0
 10
-44.11393774918616
 20
-139.2454158059626
 30
0.0
 10
-44.11393774918616
 20
-139.2454158059626
 30
0.0
 10
-44.58281524472867
 20
-140.3511192019536
 30
0.0
 10
-44.58281524472867
 20
-140.3511192019536
 30
0.0
 10
-44.58281524472867
 20
-140.3511192019536
 30
0.0
 10
-43.63455271241365
 20
-140.3511192019536
 30
0.0
 10
-43.63455271241365
 20
-140.3511192019536
 30
0.0
 10
-43.63455271241365
 20
-140.3511192019536
 30
0.0
 10
-44.11393774918616
 20
-139.2454158059626
 30
0.0
 10
-44.11393774918616
 20
-139.2454158059626
 30
0.0
  0
SPLINE
  5
B0
330
A7
100
AcDbEntity
  8
Print Artwork
100
AcDbSpline
210
0.0
220
0.0
230
1.0
 70
    11
 71
     3
 72
    29
 73
    25
 74
     0
 42
0.0000000001
 43
0.0000000001
 40
0.0
 40
0.0
 40
0.0
 40
0.0
 40
1.0
 40
1.0
 40
1.0
 40
2.0
 40
2.0
 40
2.0
 40
3.0
 40
3.0
 40
3.0
 40
4.0
 40
4.0
 40
4.0
 40
5.0
 40
5.0
 40
5.0
 40
6.0
 40
6.0
 40
6.0
 40
7.0
 40
7.0
 40
7.0
 40
8.0
 40
8.0
 40
8.0
 40
8.0
 10
-43.49812693119775
 20
-140.6730633750502
 30
0.0
 10
-43.49812693119775
 20
-140.6730633750502
 30
0.0
 10
-44.72268612142981
 20
-140.6730633750502
 30
0.0
 10
-44.72268612142981
 20
-140.6730633750502
 30
0.0
 10
-44.72268612142981
 20
-140.6730633750502
 30
0.0
 10
-45.04118519904116
 20
-141.4008397963092
 30
0.0
 10
-45.04118519904116
 20
-141.4008397963092
 30
0.0
 10
-45.04118519904116
 20
-141.4008397963092
 30
0.0
 10
-45.43995500145882
 20
-141.4008397963092
 30
0.0
 10
-45.43995500145882
 20
-141.4008397963092
 30
0.0
 10
-45.43995500145882
 20
-141.4008397963092
 30
0.0
 10
-44.30979142752262
 20
-138.9026288051803
 30
0.0
 10
-44.30979142752262
 20
-138.9026288051803
 30
0.0
 10
-44.30979142752262
 20
-138.9026288051803
 30
0.0
 10
-43.88656144715968
 20
-138.9026288051803
 30
0.0
 10
-43.88656144715968
 20
-138.9026288051803
 30
0.0
 10
-43.88656144715968
 20
-138.9026288051803
 30
0.0
 10
-42.75639787322346
 20
-141.4008397963092
 30
0.0
 10
-42.75639787322346
 20
-141.4008397963092
 30
0.0
 10
-42.75639787322346
 20
-141.4008397963092
 30
0.0
 10
-43.1796278535864
 20
-141.4008397963092
 30
0.0
 10
-43.1796278535864
 20
-141.4008397963092
 30
0.0
 10
-43.1796278535864
 20
-141.4008397963092
 30
0.0
 10
-43.49812693119775
 20
-140.6730633750502
 30
0.0
 10
-43.49812693119775
 20
-140.6730633750502
 30
0.0
  0
ENDBLK
  5
AA
330
A7
100
AcDbEntity
  8
0
100
AcDbBlockEnd
  0
BLOCK
  5
B3
330
B1
100
AcDbEntity
  8
0
100
AcDbBlockBegin
  2
Block_6
 70
     0
 10
0.0
 20
0.0
 30
0.0
  3
Block_6
  1

  0
SPLINE
  5
B5
330
B1
100
AcDbEntity
  8
Print Artwork
100
AcDbSpline
210
0.0
220
0.0
230
1.0
 70
     9
 71
     3
 72
    20
 73
    16
 74
     0
 42
0.0000000001
 43
0.0000000001
 40
0.0
 40
0.0
 40
0.0
 40
0.0
 40
1.0
 40
1.0
 40
1.0
 40
2.0
 40
2.0
 40
2.0
 40
3.0
 40
3.0
 40
3.0
 40
4.0
 40
4.0
 40
4.0
 40
5.0
 40
5.0
 40
5.0
 40
5.0
 10
-10.1472625298104
 20
-140.0188397424012
 30
0.0
 10
-9.783460446568019
 20
-140.0188397424012
 30
0.0
 10
-9.695955021242674
 20
-139.8017987268305
 30
0.0
 10
-9.695955021242674
 20
-139.6233427806945
 30
0.0
 10
-9.695955021242674
 20
-139.3854589374381
 30
0.0
 10
-9.839443248203329
 20
-139.2245729782769
 30
0.0
 10
-10.13675498858039
 20
-139.2245729782769
 30
0.0
 10
-10.13675498858039
 20
-139.2245729782769
 30
0.0
 10
-11.18303048745076
 20
-139.2245729782769
 30
0.0
 10
-11.18303048745076
 20
-139.2245729782769
 30
0.0
 10
-11.18303048745076
 20
-139.2245729782769
 30
0.0
 10
-11.18303048745076
 20
-140.0188397424012
 30
0.0
 10
-11.18303048745076
 20
-140.0188397424012
 30
0.0
 10
-11.18303048745076
 20
-140.0188397424012
 30
0.0
 10
-10.1472625298104
 20
-140.0188397424012
 30
0.0
 10
-10.1472625298104
 20
-140.0188397424012
 30
0.0
  0
SPLINE
  5
B6
330
B1
100
AcDbEntity
  8
Print Artwork
100
AcDbSpline
210
0.0
220
0.0
230
1.0
 70
    11
 71
     3
 72
    44
 73
    40
 74
     0
 42
0.0000000001
 43
0.0000000001
 40
0.0
 40
0.0
 40
0.0
 40
0.0
 40
1.0
 40
1.0
 40
1.0
 40
2.0
 40
2.0
 40
2.0
 40
3.0
 40
3.0
 40
3.0
 40
4.0
 40
4.0
 40
4.0
 40
5.0
 40
5.0
 40
5.0
 40
6.0
 40
6.0
 40
6.0
 40
7.0
 40
7.0
 40
7.0
 40
8.0
 40
8.0
 40
8.0
 40
9.0
 40
9.0
 40
9.0
 40
10.0
 40
10.0
 40
10.0
 40
11.0
 40
11.0
 40
11.0
 40
12.0
 40
12.0
 40
12.0
 40
13.0
 40
13.0
 40
13.0
 40
13.0
 10
-11.55389501643791
 20
-138.9026288051803
 30
0.0
 10
-11.55389501643791
 20
-138.9026288051803
 30
0.0
 10
-10.00739165310926
 20
-138.9026288051803
 30
0.0
 10
-10.00739165310926
 20
-138.9026288051803
 30
0.0
 10
-9.506991533876719
 20
-138.9026288051803
 30
0.0
 10
-9.325090492255529
 20
-139.2490331562222
 30
0.0
 10
-9.325090492255529
 20
-139.5673599790592
 30
0.0
 10
-9.325090492255529
 20
-139.8753515154406
 30
0.0
 10
-9.468406464441923
 20
-140.0956653717223
 30
0.0
 10
-9.744875377133221
 20
-140.1831707970477
 30
0.0
 10
-9.744875377133221
 20
-140.1831707970477
 30
0.0
 10
-9.744875377133221
 20
-140.1902332427924
 30
0.0
 10
-9.744875377133221
 20
-140.1902332427924
 30
0.0
 10
-9.520944170591983
 20
-140.2217558664825
 30
0.0
 10
-9.395025930606101
 20
-140.4281170860489
 30
0.0
 10
-9.381073293890839
 20
-140.7219837309407
 30
0.0
 10
-9.363503306916065
 20
-141.1839710355127
 30
0.0
 10
-9.34248822445604
 20
-141.3098892754986
 30
0.0
 10
-9.262045244875457
 20
-141.4008397963092
 30
0.0
 10
-9.262045244875457
 20
-141.4008397963092
 30
0.0
 10
-9.653924856322626
 20
-141.4008397963092
 30
0.0
 10
-9.653924856322626
 20
-141.4008397963092
 30
0.0
 10
-9.713352753443185
 20
-141.3309043579586
 30
0.0
 10
-9.713352753443185
 20
-141.2223838501733
 30
0.0
 10
-9.730922740417959
 20
-140.924899855022
 30
0.0
 10
-9.758828013848484
 20
-140.4770374419395
 30
0.0
 10
-9.905933591068651
 20
-140.3406116607236
 30
0.0
 10
-10.21375287267572
 20
-140.3406116607236
 30
0.0
 10
-10.21375287267572
 20
-140.3406116607236
 30
0.0
 10
-11.18303048745076
 20
-140.3406116607236
 30
0.0
 10
-11.18303048745076
 20
-140.3406116607236
 30
0.0
 10
-11.18303048745076
 20
-140.3406116607236
 30
0.0
 10
-11.18303048745076
 20
-141.4008397963092
 30
0.0
 10
-11.18303048745076
 20
-141.4008397963092
 30
0.0
 10
-11.18303048745076
 20
-141.4008397963092
 30
0.0
 10
-11.55389501643791
 20
-141.4008397963092
 30
0.0
 10
-11.55389501643791
 20
-141.4008397963092
 30
0.0
 10
-11.55389501643791
 20
-141.4008397963092
 30
0.0
 10
-11.55389501643791
 20
-138.9026288051803
 30
0.0
 10
-11.55389501643791
 20
-138.9026288051803
 30
0.0
  0
SPLINE
  5
B7
330
B1
100
AcDbEntity
  8
Print Artwork
100
AcDbSpline
210
0.0
220
0.0
230
1.0
 70
    11
 71
     3
 72
    50
 73
    46
 74
     0
 42
0.0000000001
 43
0.0000000001
 40
0.0
 40
0.0
 40
0.0
 40
0.0
 40
1.0
 40
1.0
 40
1.0
 40
2.0
 40
2.0
 40
2.0
 40
3.0
 40
3.0
 40
3.0
 40
4.0
 40
4.0
 40
4.0
 40
5.0
 40
5.0
 40
5.0
 40
6.0
 40
6.0
 40
6.0
 40
7.0
 40
7.0
 40
7.0
 40
8.0
 40
8.0
 40
8.0
 40
9.0
 40
9.0
 40
9.0
 40
10.0
 40
10.0
 40
10.0
 40
11.0
 40
11.0
 40
11.0
 40
12.0
 40
12.0
 40
12.0
 40
13.0
 40
13.0
 40
13.0
 40
14.0
 40
14.0
 40
14.0
 40
15.0
 40
15.0
 40
15.0
 40
15.0
 10
-7.543287107284313
 20
-140.0538074615765
 30
0.0
 10
-7.543287107284313
 20
-140.0538074615765
 30
0.0
 10
-6.39555354637333
 20
-140.0538074615765
 30
0.0
 10
-6.39555354637333
 20
-140.0538074615765
 30
0.0
 10
-6.39555354637333
 20
-140.0538074615765
 30
0.0
 10
-6.39555354637333
 20
-141.4008397963092
 30
0.0
 10
-6.39555354637333
 20
-141.4008397963092
 30
0.0
 10
-6.39555354637333
 20
-141.4008397963092
 30
0.0
 10
-6.661514917834617
 20
-141.4008397963092
 30
0.0
 10
-6.661514917834617
 20
-141.4008397963092
 30
0.0
 10
-6.661514917834617
 20
-141.4008397963092
 30
0.0
 10
-6.724560165214689
 20
-141.0439279040373
 30
0.0
 10
-6.724560165214689
 20
-141.0439279040373
 30
0.0
 10
-6.888891219861106
 20
-141.2363364868885
 30
0.0
 10
-7.154852591322393
 20
-141.4638850436893
 30
0.0
 10
-7.683157983985456
 20
-141.4638850436893
 30
0.0
 10
-8.683958222450534
 20
-141.4638850436893
 30
0.0
 10
-9.002285045287619
 20
-140.7429988134008
 30
0.0
 10
-9.002285045287619
 20
-140.1936783382777
 30
0.0
 10
-9.002285045287619
 20
-139.2280180737621
 30
0.0
 10
-8.340998966893913
 20
-138.8395835578002
 30
0.0
 10
-7.693665525215468
 20
-138.8395835578002
 30
0.0
 10
-7.182930119527179
 20
-138.8395835578002
 30
0.0
 10
-6.595024574969295
 20
-139.0040868672209
 30
0.0
 10
-6.437583711293378
 20
-139.6898331235599
 30
0.0
 10
-6.437583711293378
 20
-139.6898331235599
 30
0.0
 10
-6.829463322740546
 20
-139.6898331235599
 30
0.0
 10
-6.829463322740546
 20
-139.6898331235599
 30
0.0
 10
-6.944874021496416
 20
-139.3399836770328
 30
0.0
 10
-7.200327851727691
 20
-139.1615277308968
 30
0.0
 10
-7.676267793014956
 20
-139.1615277308968
 30
0.0
 10
-8.337553871408664
 20
-139.1615277308968
 30
0.0
 10
-8.631420516300474
 20
-139.6304052264393
 30
0.0
 10
-8.631420516300474
 20
-140.1621557145876
 30
0.0
 10
-8.631420516300474
 20
-140.8690893081609
 30
0.0
 10
-8.180113007732746
 20
-141.1419408705927
 30
0.0
 10
-7.658697806040183
 20
-141.1419408705927
 30
0.0
 10
-7.116439776661858
 20
-141.1419408705927
 30
0.0
 10
-6.762972979875224
 20
-140.8199966974961
 30
0.0
 10
-6.724560165214689
 20
-140.3755793798989
 30
0.0
 10
-6.724560165214689
 20
-140.3755793798989
 30
0.0
 10
-7.543287107284313
 20
-140.3755793798989
 30
0.0
 10
-7.543287107284313
 20
-140.3755793798989
 30
0.0
 10
-7.543287107284313
 20
-140.3755793798989
 30
0.0
 10
-7.543287107284313
 20
-140.0538074615765
 30
0.0
 10
-7.543287107284313
 20
-140.0538074615765
 30
0.0
  0
SPLINE
  5
B8
330
B1
100
AcDbEntity
  8
Print Artwork
100
AcDbSpline
210
0.0
220
0.0
230
1.0
 70
     9
 71
     3
 72
    20
 73
    16
 74
     0
 42
0.0000000001
 43
0.0000000001
 40
0.0
 40
0.0
 40
0.0
 40
0.0
 40
1.0
 40
1.0
 40
1.0
 40
2.0
 40
2.0
 40
2.0
 40
3.0
 40
3.0
 40
3.0
 40
4.0
 40
4.0
 40
4.0
 40
5.0
 40
5.0
 40
5.0
 40
5.0
 10
-4.491277016901482
 20
-141.0788956232126
 30
0.0
 10
-4.078382322994289
 20
-141.0788956232126
 30
0.0
 10
-3.970034069983181
 20
-140.8654719579014
 30
0.0
 10
-3.970034069983181
 20
-140.6554933880754
 30
0.0
 10
-3.970034069983181
 20
-140.459639709739
 30
0.0
 10
-4.081999673253801
 20
-140.2567235856577
 30
0.0
 10
-4.459754393211446
 20
-140.2567235856577
 30
0.0
 10
-4.459754393211446
 20
-140.2567235856577
 30
0.0
 10
-5.49552235085181
 20
-140.2567235856577
 30
0.0
 10
-5.49552235085181
 20
-140.2567235856577
 30
0.0
 10
-5.49552235085181
 20
-140.2567235856577
 30
0.0
 10
-5.49552235085181
 20
-141.0788956232126
 30
0.0
 10
-5.49552235085181
 20
-141.0788956232126
 30
0.0
 10
-5.49552235085181
 20
-141.0788956232126
 30
0.0
 10
-4.491277016901482
 20
-141.0788956232126
 30
0.0
 10
-4.491277016901482
 20
-141.0788956232126
 30
0.0
  0
SPLINE
  5
B9
330
B1
100
AcDbEntity
  8
Print Artwork
100
AcDbSpline
210
0.0
220
0.0
230
1.0
 70
     9
 71
     3
 72
    20
 73
    16
 74
     0
 42
0.0000000001
 43
0.0000000001
 40
0.0
 40
0.0
 40
0.0
 40
0.0
 40
1.0
 40
1.0
 40
1.0
 40
2.0
 40
2.0
 40
2.0
 40
3.0
 40
3.0
 40
3.0
 40
4.0
 40
4.0
 40
4.0
 40
5.0
 40
5.0
 40
5.0
 40
5.0
 10
-4.484386825930982
 20
-139.9347794125612
 30
0.0
 10
-4.207917913239683
 20
-139.9347794125612
 30
0.0
 10
-4.078382322994289
 20
-139.78440099463
 30
0.0
 10
-4.078382322994289
 20
-139.584929966034
 30
0.0
 10
-4.078382322994289
 20
-139.3573814092333
 30
0.0
 10
-4.197410372009671
 20
-139.2245729782769
 30
0.0
 10
-4.505229653616743
 20
-139.2245729782769
 30
0.0
 10
-4.505229653616743
 20
-139.2245729782769
 30
0.0
 10
-5.49552235085181
 20
-139.2245729782769
 30
0.0
 10
-5.49552235085181
 20
-139.2245729782769
 30
0.0
 10
-5.49552235085181
 20
-139.2245729782769
 30
0.0
 10
-5.49552235085181
 20
-139.9347794125612
 30
0.0
 10
-5.49552235085181
 20
-139.9347794125612
 30
0.0
 10
-5.49552235085181
 20
-139.9347794125612
 30
0.0
 10
-4.484386825930982
 20
-139.9347794125612
 30
0.0
 10
-4.484386825930982
 20
-139.9347794125612
 30
0.0
  0
SPLINE
  5
BA
330
B1
100
AcDbEntity
  8
Print Artwork
100
AcDbSpline
210
0.0
220
0.0
230
1.0
 70
    11
 71
     3
 72
    29
 73
    25
 74
     0
 42
0.0000000001
 43
0.0000000001
 40
0.0
 40
0.0
 40
0.0
 40
0.0
 40
1.0
 40
1.0
 40
1.0
 40
2.0
 40
2.0
 40
2.0
 40
3.0
 40
3.0
 40
3.0
 40
4.0
 40
4.0
 40
4.0
 40
5.0
 40
5.0
 40
5.0
 40
6.0
 40
6.0
 40
6.0
 40
7.0
 40
7.0
 40
7.0
 40
8.0
 40
8.0
 40
8.0
 40
8.0
 10
-5.866386879838954
 20
-138.9026288051803
 30
0.0
 10
-5.866386879838954
 20
-138.9026288051803
 30
0.0
 10
-4.47732438018622
 20
-138.9026288051803
 30
0.0
 10
-4.47732438018622
 20
-138.9026288051803
 30
0.0
 10
-3.945401637263645
 20
-138.9026288051803
 30
0.0
 10
-3.707517794007144
 20
-139.1370675529516
 30
0.0
 10
-3.707517794007144
 20
-139.5289471643987
 30
0.0
 10
-3.707517794007144
 20
-139.8333213505205
 30
0.0
 10
-3.864958657683061
 20
-139.9836997684517
 30
0.0
 10
-4.071492132023789
 20
-140.0572525570618
 30
0.0
 10
-4.071492132023789
 20
-140.0572525570618
 30
0.0
 10
-4.071492132023789
 20
-140.0643150028065
 30
0.0
 10
-4.071492132023789
 20
-140.0643150028065
 30
0.0
 10
-3.781070582617228
 20
-140.1308053456719
 30
0.0
 10
-3.598997286221774
 20
-140.3161514827783
 30
0.0
 10
-3.598997286221774
 20
-140.680125820795
 30
0.0
 10
-3.598997286221774
 20
-141.0334203628073
 30
0.0
 10
-3.84756092548255
 20
-141.4008397963092
 30
0.0
 10
-4.389818954860874
 20
-141.4008397963092
 30
0.0
 10
-4.389818954860874
 20
-141.4008397963092
 30
0.0
 10
-5.866386879838954
 20
-141.4008397963092
 30
0.0
 10
-5.866386879838954
 20
-141.4008397963092
 30
0.0
 10
-5.866386879838954
 20
-141.4008397963092
 30
0.0
 10
-5.866386879838954
 20
-138.9026288051803
 30
0.0
 10
-5.866386879838954
 20
-138.9026288051803
 30
0.0
  0
ENDBLK
  5
B4
330
B1
100
AcDbEntity
  8
0
100
AcDbBlockEnd
  0
BLOCK
  5
BD
330
BB
100
AcDbEntity
  8
0
100
AcDbBlockBegin
  2
Block_7
 70
     0
 10
0.0
 20
0.0
 30
0.0
  3
Block_7
  1

  0
INSERT
  5
C0
330
BB
100
AcDbEntity
  8
Print Artwork
100
AcDbBlockReference
  2
Block_8
 10
0.0
 20
0.0
 30
0.0
  0
INSERT
  5
C9
330
BB
100
AcDbEntity
  8
Print Artwork
100
AcDbBlockReference
  2
Block_9
 10
0.0
 20
0.0
 30
0.0
  0
ENDBLK
  5
BE
330
BB
100
AcDbEntity
  8
0
100
AcDbBlockEnd
  0
BLOCK
  5
C1
330
BF
100
AcDbEntity
  8
0
100
AcDbBlockBegin
  2
Block_8
 70
     0
 10
0.0
 20
0.0
 30
0.0
  3
Block_8
  1

  0
SPLINE
  5
C3
330
BF
100
AcDbEntity
  8
Print Artwork
100
AcDbSpline
210
0.0
220
0.0
230
1.0
 70
    11
 71
     3
 72
    50
 73
    46
 74
     0
 42
0.0000000001
 43
0.0000000001
 40
0.0
 40
0.0
 40
0.0
 40
0.0
 40
1.0
 40
1.0
 40
1.0
 40
2.0
 40
2.0
 40
2.0
 40
3.0
 40
3.0
 40
3.0
 40
4.0
 40
4.0
 40
4.0
 40
5.0
 40
5.0
 40
5.0
 40
6.0
 40
6.0
 40
6.0
 40
7.0
 40
7.0
 40
7.0
 40
8.0
 40
8.0
 40
8.0
 40
9.0
 40
9.0
 40
9.0
 40
10.0
 40
10.0
 40
10.0
 40
11.0
 40
11.0
 40
11.0
 40
12.0
 40
12.0
 40
12.0
 40
13.0
 40
13.0
 40
13.0
 40
14.0
 40
14.0
 40
14.0
 40
15.0
 40
15.0
 40
15.0
 40
15.0
 10
40.89235627059948
 20
-135.4899516684385
 30
0.0
 10
40.89235627059948
 20
-135.4899516684385
 30
0.0
 10
41.40670902654727
 20
-135.4899516684385
 30
0.0
 10
41.40670902654727
 20
-135.4899516684385
 30
0.0
 10
41.40670902654727
 20
-135.4899516684385
 30
0.0
 10
41.40670902654727
 20
-137.9881626595674
 30
0.0
 10
41.40670902654727
 20
-137.9881626595674
 30
0.0
 10
41.40670902654727
 20
-137.9881626595674
 30
0.0
 10
41.03584449756013
 20
-137.9881626595674
 30
0.0
 10
41.03584449756013
 20
-137.9881626595674
 30
0.0
 10
41.03584449756013
 20
-137.9881626595674
 30
0.0
 10
41.03584449756013
 20
-135.916798999061
 30
0.0
 10
41.03584449756013
 20
-135.916798999061
 30
0.0
 10
41.03584449756013
 20
-135.916798999061
 30
0.0
 10
41.02895430658963
 20
-135.916798999061
 30
0.0
 10
41.02895430658963
 20
-135.916798999061
 30
0.0
 10
41.02895430658963
 20
-135.916798999061
 30
0.0
 10
40.05623159632934
 20
-137.9881626595674
 30
0.0
 10
40.05623159632934
 20
-137.9881626595674
 30
0.0
 10
40.05623159632934
 20
-137.9881626595674
 30
0.0
 10
39.72722497748799
 20
-137.9881626595674
 30
0.0
 10
39.72722497748799
 20
-137.9881626595674
 30
0.0
 10
39.72722497748799
 20
-137.9881626595674
 30
0.0
 10
38.7581196174872
 20
-135.958829163981
 30
0.0
 10
38.7581196174872
 20
-135.958829163981
 30
0.0
 10
38.7581196174872
 20
-135.958829163981
 30
0.0
 10
38.75105717174244
 20
-135.958829163981
 30
0.0
 10
38.75105717174244
 20
-135.958829163981
 30
0.0
 10
38.75105717174244
 20
-135.958829163981
 30
0.0
 10
38.75105717174244
 20
-137.9881626595674
 30
0.0
 10
38.75105717174244
 20
-137.9881626595674
 30
0.0
 10
38.75105717174244
 20
-137.9881626595674
 30
0.0
 10
38.3801926427553
 20
-137.9881626595674
 30
0.0
 10
38.3801926427553
 20
-137.9881626595674
 30
0.0
 10
38.3801926427553
 20
-137.9881626595674
 30
0.0
 10
38.3801926427553
 20
-135.4899516684385
 30
0.0
 10
38.3801926427553
 20
-135.4899516684385
 30
0.0
 10
38.3801926427553
 20
-135.4899516684385
 30
0.0
 10
38.90160784444786
 20
-135.4899516684385
 30
0.0
 10
38.90160784444786
 20
-135.4899516684385
 30
0.0
 10
38.90160784444786
 20
-135.4899516684385
 30
0.0
 10
39.89172828690866
 20
-137.561315328945
 30
0.0
 10
39.89172828690866
 20
-137.561315328945
 30
0.0
 10
39.89172828690866
 20
-137.561315328945
 30
0.0
 10
40.89235627059948
 20
-135.4899516684385
 30
0.0
 10
40.89235627059948
 20
-135.4899516684385
 30
0.0
  0
SPLINE
  5
C4
330
BF
100
AcDbEntity
  8
Print Artwork
100
AcDbSpline
210
0.0
220
0.0
230
1.0
 70
    11
 71
     3
 72
    41
 73
    37
 74
     0
 42
0.0000000001
 43
0.0000000001
 40
0.0
 40
0.0
 40
0.0
 40
0.0
 40
1.0
 40
1.0
 40
1.0
 40
2.0
 40
2.0
 40
2.0
 40
3.0
 40
3.0
 40
3.0
 40
4.0
 40
4.0
 40
4.0
 40
5.0
 40
5.0
 40
5.0
 40
6.0
 40
6.0
 40
6.0
 40
7.0
 40
7.0
 40
7.0
 40
8.0
 40
8.0
 40
8.0
 40
9.0
 40
9.0
 40
9.0
 40
10.0
 40
10.0
 40
10.0
 40
11.0
 40
11.0
 40
11.0
 40
12.0
 40
12.0
 40
12.0
 40
12.0
 10
41.94672774386019
 20
-135.4899516684385
 30
0.0
 10
41.94672774386019
 20
-135.4899516684385
 30
0.0
 10
43.95504615698658
 20
-135.4899516684385
 30
0.0
 10
43.95504615698658
 20
-135.4899516684385
 30
0.0
 10
43.95504615698658
 20
-135.4899516684385
 30
0.0
 10
43.95504615698658
 20
-135.8118958415351
 30
0.0
 10
43.95504615698658
 20
-135.8118958415351
 30
0.0
 10
43.95504615698658
 20
-135.8118958415351
 30
0.0
 10
42.31759227284733
 20
-135.8118958415351
 30
0.0
 10
42.31759227284733
 20
-135.8118958415351
 30
0.0
 10
42.31759227284733
 20
-135.8118958415351
 30
0.0
 10
42.31759227284733
 20
-136.5360549125346
 30
0.0
 10
42.31759227284733
 20
-136.5360549125346
 30
0.0
 10
42.31759227284733
 20
-136.5360549125346
 30
0.0
 10
43.90612580109603
 20
-136.5360549125346
 30
0.0
 10
43.90612580109603
 20
-136.5360549125346
 30
0.0
 10
43.90612580109603
 20
-136.5360549125346
 30
0.0
 10
43.90612580109603
 20
-136.8579990856312
 30
0.0
 10
43.90612580109603
 20
-136.8579990856312
 30
0.0
 10
43.90612580109603
 20
-136.8579990856312
 30
0.0
 10
42.31759227284733
 20
-136.8579990856312
 30
0.0
 10
42.31759227284733
 20
-136.8579990856312
 30
0.0
 10
42.31759227284733
 20
-136.8579990856312
 30
0.0
 10
42.31759227284733
 20
-137.6662184864708
 30
0.0
 10
42.31759227284733
 20
-137.6662184864708
 30
0.0
 10
42.31759227284733
 20
-137.6662184864708
 30
0.0
 10
43.99018613093613
 20
-137.6662184864708
 30
0.0
 10
43.99018613093613
 20
-137.6662184864708
 30
0.0
 10
43.99018613093613
 20
-137.6662184864708
 30
0.0
 10
43.99018613093613
 20
-137.9881626595674
 30
0.0
 10
43.99018613093613
 20
-137.9881626595674
 30
0.0
 10
43.99018613093613
 20
-137.9881626595674
 30
0.0
 10
41.94672774386019
 20
-137.9881626595674
 30
0.0
 10
41.94672774386019
 20
-137.9881626595674
 30
0.0
 10
41.94672774386019
 20
-137.9881626595674
 30
0.0
 10
41.94672774386019
 20
-135.4899516684385
 30
0.0
 10
41.94672774386019
 20
-135.4899516684385
 30
0.0
  0
SPLINE
  5
C5
330
BF
100
AcDbEntity
  8
Print Artwork
100
AcDbSpline
210
0.0
220
0.0
230
1.0
 70
    11
 71
     3
 72
    41
 73
    37
 74
     0
 42
0.0000000001
 43
0.0000000001
 40
0.0
 40
0.0
 40
0.0
 40
0.0
 40
1.0
 40
1.0
 40
1.0
 40
2.0
 40
2.0
 40
2.0
 40
3.0
 40
3.0
 40
3.0
 40
4.0
 40
4.0
 40
4.0
 40
5.0
 40
5.0
 40
5.0
 40
6.0
 40
6.0
 40
6.0
 40
7.0
 40
7.0
 40
7.0
 40
8.0
 40
8.0
 40
8.0
 40
9.0
 40
9.0
 40
9.0
 40
10.0
 40
10.0
 40
10.0
 40
11.0
 40
11.0
 40
11.0
 40
12.0
 40
12.0
 40
12.0
 40
12.0
 10
44.80253964635804
 20
-136.0006870741268
 30
0.0
 10
44.80253964635804
 20
-136.0006870741268
 30
0.0
 10
44.79547720061328
 20
-136.0006870741268
 30
0.0
 10
44.79547720061328
 20
-136.0006870741268
 30
0.0
 10
44.79547720061328
 20
-136.0006870741268
 30
0.0
 10
44.79547720061328
 20
-137.9881626595674
 30
0.0
 10
44.79547720061328
 20
-137.9881626595674
 30
0.0
 10
44.79547720061328
 20
-137.9881626595674
 30
0.0
 10
44.42461267162613
 20
-137.9881626595674
 30
0.0
 10
44.42461267162613
 20
-137.9881626595674
 30
0.0
 10
44.42461267162613
 20
-137.9881626595674
 30
0.0
 10
44.42461267162613
 20
-135.4899516684385
 30
0.0
 10
44.42461267162613
 20
-135.4899516684385
 30
0.0
 10
44.42461267162613
 20
-135.4899516684385
 30
0.0
 10
44.8550773525081
 20
-135.4899516684385
 30
0.0
 10
44.8550773525081
 20
-135.4899516684385
 30
0.0
 10
44.8550773525081
 20
-135.4899516684385
 30
0.0
 10
46.46100861295731
 20
-137.4772549991049
 30
0.0
 10
46.46100861295731
 20
-137.4772549991049
 30
0.0
 10
46.46100861295731
 20
-137.4772549991049
 30
0.0
 10
46.46807105870208
 20
-137.4772549991049
 30
0.0
 10
46.46807105870208
 20
-137.4772549991049
 30
0.0
 10
46.46807105870208
 20
-137.4772549991049
 30
0.0
 10
46.46807105870208
 20
-135.4899516684385
 30
0.0
 10
46.46807105870208
 20
-135.4899516684385
 30
0.0
 10
46.46807105870208
 20
-135.4899516684385
 30
0.0
 10
46.83893558768922
 20
-135.4899516684385
 30
0.0
 10
46.83893558768922
 20
-135.4899516684385
 30
0.0
 10
46.83893558768922
 20
-135.4899516684385
 30
0.0
 10
46.83893558768922
 20
-137.9881626595674
 30
0.0
 10
46.83893558768922
 20
-137.9881626595674
 30
0.0
 10
46.83893558768922
 20
-137.9881626595674
 30
0.0
 10
46.40847090680725
 20
-137.9881626595674
 30
0.0
 10
46.40847090680725
 20
-137.9881626595674
 30
0.0
 10
46.40847090680725
 20
-137.9881626595674
 30
0.0
 10
44.80253964635804
 20
-136.0006870741268
 30
0.0
 10
44.80253964635804
 20
-136.0006870741268
 30
0.0
  0
SPLINE
  5
C6
330
BF
100
AcDbEntity
  8
Print Artwork
100
AcDbSpline
210
0.0
220
0.0
230
1.0
 70
    11
 71
     3
 72
    35
 73
    31
 74
     0
 42
0.0000000001
 43
0.0000000001
 40
0.0
 40
0.0
 40
0.0
 40
0.0
 40
1.0
 40
1.0
 40
1.0
 40
2.0
 40
2.0
 40
2.0
 40
3.0
 40
3.0
 40
3.0
 40
4.0
 40
4.0
 40
4.0
 40
5.0
 40
5.0
 40
5.0
 40
6.0
 40
6.0
 40
6.0
 40
7.0
 40
7.0
 40
7.0
 40
8.0
 40
8.0
 40
8.0
 40
9.0
 40
9.0
 40
9.0
 40
10.0
 40
10.0
 40
10.0
 40
10.0
 10
47.38549998642411
 20
-135.4899516684385
 30
0.0
 10
47.38549998642411
 20
-135.4899516684385
 30
0.0
 10
47.75653677018552
 20
-135.4899516684385
 30
0.0
 10
47.75653677018552
 20
-135.4899516684385
 30
0.0
 10
47.75653677018552
 20
-135.4899516684385
 30
0.0
 10
47.75653677018552
 20
-137.0889927379172
 30
0.0
 10
47.75653677018552
 20
-137.0889927379172
 30
0.0
 10
47.75653677018552
 20
-137.540300246485
 30
0.0
 10
48.05729360604782
 20
-137.7292637338509
 30
0.0
 10
48.51566356036031
 20
-137.7292637338509
 30
0.0
 10
48.97403351467281
 20
-137.7292637338509
 30
0.0
 10
49.27496260530938
 20
-137.540300246485
 30
0.0
 10
49.27496260530938
 20
-137.0889927379172
 30
0.0
 10
49.27496260530938
 20
-137.0889927379172
 30
0.0
 10
49.27496260530938
 20
-135.4899516684385
 30
0.0
 10
49.27496260530938
 20
-135.4899516684385
 30
0.0
 10
49.27496260530938
 20
-135.4899516684385
 30
0.0
 10
49.64582713429653
 20
-135.4899516684385
 30
0.0
 10
49.64582713429653
 20
-135.4899516684385
 30
0.0
 10
49.64582713429653
 20
-135.4899516684385
 30
0.0
 10
49.64582713429653
 20
-137.0435174775119
 30
0.0
 10
49.64582713429653
 20
-137.0435174775119
 30
0.0
 10
49.64582713429653
 20
-137.7153110971356
 30
0.0
 10
49.26807241433888
 20
-138.0512079069475
 30
0.0
 10
48.51566356036031
 20
-138.0512079069475
 30
0.0
 10
47.76342696115601
 20
-138.0512079069475
 30
0.0
 10
47.38549998642411
 20
-137.7153110971356
 30
0.0
 10
47.38549998642411
 20
-137.0435174775119
 30
0.0
 10
47.38549998642411
 20
-137.0435174775119
 30
0.0
 10
47.38549998642411
 20
-135.4899516684385
 30
0.0
 10
47.38549998642411
 20
-135.4899516684385
 30
0.0
  0
SPLINE
  5
C7
330
BF
100
AcDbEntity
  8
Print Artwork
100
AcDbSpline
210
0.0
220
0.0
230
1.0
 70
    11
 71
     3
 72
    17
 73
    13
 74
     0
 42
0.0000000001
 43
0.0000000001
 40
0.0
 40
0.0
 40
0.0
 40
0.0
 40
1.0
 40
1.0
 40
1.0
 40
2.0
 40
2.0
 40
2.0
 40
3.0
 40
3.0
 40
3.0
 40
4.0
 40
4.0
 40
4.0
 40
4.0
 10
51.685301537098
 20
-135.4269064210584
 30
0.0
 10
51.685301537098
 20
-135.4269064210584
 30
0.0
 10
52.10990683589773
 20
-135.4269064210584
 30
0.0
 10
52.10990683589773
 20
-135.4269064210584
 30
0.0
 10
52.10990683589773
 20
-135.4269064210584
 30
0.0
 10
50.33363772816934
 20
-138.0512079069475
 30
0.0
 10
50.33363772816934
 20
-138.0512079069475
 30
0.0
 10
50.33363772816934
 20
-138.0512079069475
 30
0.0
 10
49.90903242936962
 20
-138.0512079069475
 30
0.0
 10
49.90903242936962
 20
-138.0512079069475
 30
0.0
 10
49.90903242936962
 20
-138.0512079069475
 30
0.0
 10
51.685301537098
 20
-135.4269064210584
 30
0.0
 10
51.685301537098
 20
-135.4269064210584
 30
0.0
  0
ENDBLK
  5
C2
330
BF
100
AcDbEntity
  8
0
100
AcDbBlockEnd
  0
BLOCK
  5
CA
330
C8
100
AcDbEntity
  8
0
100
AcDbBlockBegin
  2
Block_9
 70
     0
 10
0.0
 20
0.0
 30
0.0
  3
Block_9
  1

  0
SPLINE
  5
CC
330
C8
100
AcDbEntity
  8
Print Artwork
100
AcDbSpline
210
0.0
220
0.0
230
1.0
 70
    11
 71
     3
 72
    41
 73
    37
 74
     0
 42
0.0000000001
 43
0.0000000001
 40
0.0
 40
0.0
 40
0.0
 40
0.0
 40
1.0
 40
1.0
 40
1.0
 40
2.0
 40
2.0
 40
2.0
 40
3.0
 40
3.0
 40
3.0
 40
4.0
 40
4.0
 40
4.0
 40
5.0
 40
5.0
 40
5.0
 40
6.0
 40
6.0
 40
6.0
 40
7.0
 40
7.0
 40
7.0
 40
8.0
 40
8.0
 40
8.0
 40
9.0
 40
9.0
 40
9.0
 40
10.0
 40
10.0
 40
10.0
 40
11.0
 40
11.0
 40
11.0
 40
12.0
 40
12.0
 40
12.0
 40
12.0
 10
40.97291180985777
 20
-138.4361053528561
 30
0.0
 10
40.97291180985777
 20
-138.4361053528561
 30
0.0
 10
42.98123022298417
 20
-138.4361053528561
 30
0.0
 10
42.98123022298417
 20
-138.4361053528561
 30
0.0
 10
42.98123022298417
 20
-138.4361053528561
 30
0.0
 10
42.98123022298417
 20
-138.7580495259527
 30
0.0
 10
42.98123022298417
 20
-138.7580495259527
 30
0.0
 10
42.98123022298417
 20
-138.7580495259527
 30
0.0
 10
41.34377633884493
 20
-138.7580495259527
 30
0.0
 10
41.34377633884493
 20
-138.7580495259527
 30
0.0
 10
41.34377633884493
 20
-138.7580495259527
 30
0.0
 10
41.34377633884493
 20
-139.4822085969523
 30
0.0
 10
41.34377633884493
 20
-139.4822085969523
 30
0.0
 10
41.34377633884493
 20
-139.4822085969523
 30
0.0
 10
42.93230986709362
 20
-139.4822085969523
 30
0.0
 10
42.93230986709362
 20
-139.4822085969523
 30
0.0
 10
42.93230986709362
 20
-139.4822085969523
 30
0.0
 10
42.93230986709362
 20
-139.8041527700489
 30
0.0
 10
42.93230986709362
 20
-139.8041527700489
 30
0.0
 10
42.93230986709362
 20
-139.8041527700489
 30
0.0
 10
41.34377633884493
 20
-139.8041527700489
 30
0.0
 10
41.34377633884493
 20
-139.8041527700489
 30
0.0
 10
41.34377633884493
 20
-139.8041527700489
 30
0.0
 10
41.34377633884493
 20
-140.6123721708885
 30
0.0
 10
41.34377633884493
 20
-140.6123721708885
 30
0.0
 10
41.34377633884493
 20
-140.6123721708885
 30
0.0
 10
43.01637019693372
 20
-140.6123721708885
 30
0.0
 10
43.01637019693372
 20
-140.6123721708885
 30
0.0
 10
43.01637019693372
 20
-140.6123721708885
 30
0.0
 10
43.01637019693372
 20
-140.934316343985
 30
0.0
 10
43.01637019693372
 20
-140.934316343985
 30
0.0
 10
43.01637019693372
 20
-140.934316343985
 30
0.0
 10
40.97291180985777
 20
-140.934316343985
 30
0.0
 10
40.97291180985777
 20
-140.934316343985
 30
0.0
 10
40.97291180985777
 20
-140.934316343985
 30
0.0
 10
40.97291180985777
 20
-138.4361053528561
 30
0.0
 10
40.97291180985777
 20
-138.4361053528561
 30
0.0
  0
SPLINE
  5
CD
330
C8
100
AcDbEntity
  8
Print Artwork
100
AcDbSpline
210
0.0
220
0.0
230
1.0
 70
    11
 71
     3
 72
    41
 73
    37
 74
     0
 42
0.0000000001
 43
0.0000000001
 40
0.0
 40
0.0
 40
0.0
 40
0.0
 40
1.0
 40
1.0
 40
1.0
 40
2.0
 40
2.0
 40
2.0
 40
3.0
 40
3.0
 40
3.0
 40
4.0
 40
4.0
 40
4.0
 40
5.0
 40
5.0
 40
5.0
 40
6.0
 40
6.0
 40
6.0
 40
7.0
 40
7.0
 40
7.0
 40
8.0
 40
8.0
 40
8.0
 40
9.0
 40
9.0
 40
9.0
 40
10.0
 40
10.0
 40
10.0
 40
11.0
 40
11.0
 40
11.0
 40
12.0
 40
12.0
 40
12.0
 40
12.0
 10
45.14078832791303
 20
-138.4361053528561
 30
0.0
 10
45.14078832791303
 20
-138.4361053528561
 30
0.0
 10
45.59915828222552
 20
-138.4361053528561
 30
0.0
 10
45.59915828222552
 20
-138.4361053528561
 30
0.0
 10
45.59915828222552
 20
-138.4361053528561
 30
0.0
 10
44.63694311319524
 20
-139.6537743521177
 30
0.0
 10
44.63694311319524
 20
-139.6537743521177
 30
0.0
 10
44.63694311319524
 20
-139.6537743521177
 30
0.0
 10
45.6272358104303
 20
-140.934316343985
 30
0.0
 10
45.6272358104303
 20
-140.934316343985
 30
0.0
 10
45.6272358104303
 20
-140.934316343985
 30
0.0
 10
45.14078832791303
 20
-140.934316343985
 30
0.0
 10
45.14078832791303
 20
-140.934316343985
 30
0.0
 10
45.14078832791303
 20
-140.934316343985
 30
0.0
 10
44.38510663322348
 20
-139.9231808190642
 30
0.0
 10
44.38510663322348
 20
-139.9231808190642
 30
0.0
 10
44.38510663322348
 20
-139.9231808190642
 30
0.0
 10
43.63287003401917
 20
-140.934316343985
 30
0.0
 10
43.63287003401917
 20
-140.934316343985
 30
0.0
 10
43.63287003401917
 20
-140.934316343985
 30
0.0
 10
43.17088272944717
 20
-140.934316343985
 30
0.0
 10
43.17088272944717
 20
-140.934316343985
 30
0.0
 10
43.17088272944717
 20
-140.934316343985
 30
0.0
 10
44.15755807642272
 20
-139.6537743521177
 30
0.0
 10
44.15755807642272
 20
-139.6537743521177
 30
0.0
 10
44.15755807642272
 20
-139.6537743521177
 30
0.0
 10
43.21997534011198
 20
-138.4361053528561
 30
0.0
 10
43.21997534011198
 20
-138.4361053528561
 30
0.0
 10
43.21997534011198
 20
-138.4361053528561
 30
0.0
 10
43.69229793113974
 20
-138.4361053528561
 30
0.0
 10
43.69229793113974
 20
-138.4361053528561
 30
0.0
 10
43.69229793113974
 20
-138.4361053528561
 30
0.0
 10
44.4061217156835
 20
-139.3983205218864
 30
0.0
 10
44.4061217156835
 20
-139.3983205218864
 30
0.0
 10
44.4061217156835
 20
-139.3983205218864
 30
0.0
 10
45.14078832791303
 20
-138.4361053528561
 30
0.0
 10
45.14078832791303
 20
-138.4361053528561
 30
0.0
  0
SPLINE
  5
CE
330
C8
100
AcDbEntity
  8
Print Artwork
100
AcDbSpline
210
0.0
220
0.0
230
1.0
 70
    11
 71
     3
 72
    17
 73
    13
 74
     0
 42
0.0000000001
 43
0.0000000001
 40
0.0
 40
0.0
 40
0.0
 40
0.0
 40
1.0
 40
1.0
 40
1.0
 40
2.0
 40
2.0
 40
2.0
 40
3.0
 40
3.0
 40
3.0
 40
4.0
 40
4.0
 40
4.0
 40
4.0
 10
45.93247127042344
 20
-138.4361053528561
 30
0.0
 10
45.93247127042344
 20
-138.4361053528561
 30
0.0
 10
46.30333579941058
 20
-138.4361053528561
 30
0.0
 10
46.30333579941058
 20
-138.4361053528561
 30
0.0
 10
46.30333579941058
 20
-138.4361053528561
 30
0.0
 10
46.30333579941058
 20
-140.934316343985
 30
0.0
 10
46.30333579941058
 20
-140.934316343985
 30
0.0
 10
46.30333579941058
 20
-140.934316343985
 30
0.0
 10
45.93247127042344
 20
-140.934316343985
 30
0.0
 10
45.93247127042344
 20
-140.934316343985
 30
0.0
 10
45.93247127042344
 20
-140.934316343985
 30
0.0
 10
45.93247127042344
 20
-138.4361053528561
 30
0.0
 10
45.93247127042344
 20
-138.4361053528561
 30
0.0
  0
SPLINE
  5
CF
330
C8
100
AcDbEntity
  8
Print Artwork
100
AcDbSpline
210
0.0
220
0.0
230
1.0
 70
    11
 71
     3
 72
    29
 73
    25
 74
     0
 42
0.0000000001
 43
0.0000000001
 40
0.0
 40
0.0
 40
0.0
 40
0.0
 40
1.0
 40
1.0
 40
1.0
 40
2.0
 40
2.0
 40
2.0
 40
3.0
 40
3.0
 40
3.0
 40
4.0
 40
4.0
 40
4.0
 40
5.0
 40
5.0
 40
5.0
 40
6.0
 40
6.0
 40
6.0
 40
7.0
 40
7.0
 40
7.0
 40
8.0
 40
8.0
 40
8.0
 40
8.0
 10
47.55269967713644
 20
-138.7580495259527
 30
0.0
 10
47.55269967713644
 20
-138.7580495259527
 30
0.0
 10
46.60788224030667
 20
-138.7580495259527
 30
0.0
 10
46.60788224030667
 20
-138.7580495259527
 30
0.0
 10
46.60788224030667
 20
-138.7580495259527
 30
0.0
 10
46.60788224030667
 20
-138.4361053528561
 30
0.0
 10
46.60788224030667
 20
-138.4361053528561
 30
0.0
 10
46.60788224030667
 20
-138.4361053528561
 30
0.0
 10
48.86820938817909
 20
-138.4361053528561
 30
0.0
 10
48.86820938817909
 20
-138.4361053528561
 30
0.0
 10
48.86820938817909
 20
-138.4361053528561
 30
0.0
 10
48.86820938817909
 20
-138.7580495259527
 30
0.0
 10
48.86820938817909
 20
-138.7580495259527
 30
0.0
 10
48.86820938817909
 20
-138.7580495259527
 30
0.0
 10
47.92356420612359
 20
-138.7580495259527
 30
0.0
 10
47.92356420612359
 20
-138.7580495259527
 30
0.0
 10
47.92356420612359
 20
-138.7580495259527
 30
0.0
 10
47.92356420612359
 20
-140.934316343985
 30
0.0
 10
47.92356420612359
 20
-140.934316343985
 30
0.0
 10
47.92356420612359
 20
-140.934316343985
 30
0.0
 10
47.55269967713644
 20
-140.934316343985
 30
0.0
 10
47.55269967713644
 20
-140.934316343985
 30
0.0
 10
47.55269967713644
 20
-140.934316343985
 30
0.0
 10
47.55269967713644
 20
-138.7580495259527
 30
0.0
 10
47.55269967713644
 20
-138.7580495259527
 30
0.0
  0
ENDBLK
  5
CB
330
C8
100
AcDbEntity
  8
0
100
AcDbBlockEnd
  0
BLOCK
  5
D3
330
D1
100
AcDbEntity
  8
0
100
AcDbBlockBegin
  2
Block_10
 70
     0
 10
0.0
 20
0.0
 30
0.0
  3
Block_10
  1

  0
SPLINE
  5
D5
330
D1
100
AcDbEntity
  8
Dieline
 62
    18
420
        0
370
    35
100
AcDbSpline
210
0.0
220
0.0
230
1.0
 70
     9
 71
     3
 72
    29
 73
    25
 74
     0
 42
0.0000000001
 43
0.0000000001
 40
0.0
 40
0.0
 40
0.0
 40
0.0
 40
1.0
 40
1.0
 40
1.0
 40
2.0
 40
2.0
 40
2.0
 40
3.0
 40
3.0
 40
3.0
 40
4.0
 40
4.0
 40
4.0
 40
5.0
 40
5.0
 40
5.0
 40
6.0
 40
6.0
 40
6.0
 40
7.0
 40
7.0
 40
7.0
 40
8.0
 40
8.0
 40
8.0
 40
8.0
 10
154.3195908470388
 20
-163.5106610255832
 30
0.0
 10
154.3195908470388
 20
-163.5106610255832
 30
0.0
 10
-78.93040909464906
 20
-163.5106610255832
 30
0.0
 10
-78.93040909464906
 20
-163.5106610255832
 30
0.0
 10
-79.48269384434174
 20
-163.5106610255832
 30
0.0
 10
-79.93040909439916
 20
-163.0629457755258
 30
0.0
 10
-79.93040909439916
 20
-162.5106610258324
 30
0.0
 10
-79.93040909439916
 20
-162.5106610258324
 30
0.0
 10
-79.93040909439916
 20
-131.5106610335831
 30
0.0
 10
-79.93040909439916
 20
-131.5106610335831
 30
0.0
 10
-79.93040909439916
 20
-130.9583762838901
 30
0.0
 10
-79.48269384434141
 20
-130.510661033833
 30
0.0
 10
-78.93040909464875
 20
-130.510661033833
 30
0.0
 10
-78.93040909464875
 20
-130.510661033833
 30
0.0
 10
154.3195908470388
 20
-130.510661033833
 30
0.0
 10
154.3195908470388
 20
-130.510661033833
 30
0.0
 10
154.8718755967315
 20
-130.510661033833
 30
0.0
 10
155.3195908467889
 20
-130.9583762838901
 30
0.0
 10
155.3195908467889
 20
-131.5106610335831
 30
0.0
 10
155.3195908467889
 20
-131.5106610335831
 30
0.0
 10
155.3195908467889
 20
-162.5106610258324
 30
0.0
 10
155.3195908467889
 20
-162.5106610258324
 30
0.0
 10
155.3195908467889
 20
-163.0629457755258
 30
0.0
 10
154.8718755967315
 20
-163.5106610255832
 30
0.0
 10
154.3195908470388
 20
-163.5106610255832
 30
0.0
  0
SPLINE
  5
D6
330
D1
100
AcDbEntity
  8
Dieline
 62
    18
420
        0
370
    35
100
AcDbSpline
210
0.0
220
0.0
230
1.0
 70
     9
 71
     3
 72
    29
 73
    25
 74
     0
 42
0.0000000001
 43
0.0000000001
 40
0.0
 40
0.0
 40
0.0
 40
0.0
 40
1.0
 40
1.0
 40
1.0
 40
2.0
 40
2.0
 40
2.0
 40
3.0
 40
3.0
 40
3.0
 40
4.0
 40
4.0
 40
4.0
 40
5.0
 40
5.0
 40
5.0
 40
6.0
 40
6.0
 40
6.0
 40
7.0
 40
7.0
 40
7.0
 40
8.0
 40
8.0
 40
8.0
 40
8.0
 10
69.56958996897514
 20
-142.5106591332072
 30
0.0
 10
69.56958996897514
 20
-142.5106591332072
 30
0.0
 10
61.5696045515958
 20
-142.5106591332072
 30
0.0
 10
61.5696045515958
 20
-142.5106591332072
 30
0.0
 10
61.01731268161667
 20
-142.5106591332072
 30
0.0
 10
60.56960099146168
 20
-142.9583708233622
 30
0.0
 10
60.56960099146168
 20
-143.510662693341
 30
0.0
 10
60.56960099146168
 20
-143.510662693341
 30
0.0
 10
60.56960099146168
 20
-151.5106481107206
 30
0.0
 10
60.56960099146168
 20
-151.5106481107206
 30
0.0
 10
60.56960099146168
 20
-152.0629399806994
 30
0.0
 10
61.01731268161667
 20
-152.5106516708548
 30
0.0
 10
61.5696045515958
 20
-152.5106516708548
 30
0.0
 10
61.5696045515958
 20
-152.5106516708548
 30
0.0
 10
69.56958996897514
 20
-152.5106516708548
 30
0.0
 10
69.56958996897514
 20
-152.5106516708548
 30
0.0
 10
70.12186030710747
 20
-152.5106516708548
 30
0.0
 10
70.56957199726247
 20
-152.0629399806994
 30
0.0
 10
70.56957199726247
 20
-151.5106481107206
 30
0.0
 10
70.56957199726247
 20
-151.5106481107206
 30
0.0
 10
70.56957199726247
 20
-143.510662693341
 30
0.0
 10
70.56957199726247
 20
-143.510662693341
 30
0.0
 10
70.56957199726247
 20
-142.9583708233622
 30
0.0
 10
70.12186030710747
 20
-142.5106591332072
 30
0.0
 10
69.56958996897514
 20
-142.5106591332072
 30
0.0
  0
SPLINE
  5
D7
330
D1
100
AcDbEntity
  8
Dieline
 62
    18
420
        0
370
    35
100
AcDbSpline
210
0.0
220
0.0
230
1.0
 70
     9
 71
     3
 72
    29
 73
    25
 74
     0
 42
0.0000000001
 43
0.0000000001
 40
0.0
 40
0.0
 40
0.0
 40
0.0
 40
1.0
 40
1.0
 40
1.0
 40
2.0
 40
2.0
 40
2.0
 40
3.0
 40
3.0
 40
3.0
 40
4.0
 40
4.0
 40
4.0
 40
5.0
 40
5.0
 40
5.0
 40
6.0
 40
6.0
 40
6.0
 40
7.0
 40
7.0
 40
7.0
 40
8.0
 40
8.0
 40
8.0
 40
8.0
 10
105.5695889427225
 20
-142.5106591332072
 30
0.0
 10
105.5695889427225
 20
-142.5106591332072
 30
0.0
 10
97.56960352534321
 20
-142.5106591332072
 30
0.0
 10
97.56960352534321
 20
-142.5106591332072
 30
0.0
 10
97.01731165536408
 20
-142.5106591332072
 30
0.0
 10
96.56959996520908
 20
-142.9583708233622
 30
0.0
 10
96.56959996520908
 20
-143.510662693341
 30
0.0
 10
96.56959996520908
 20
-143.510662693341
 30
0.0
 10
96.56959996520908
 20
-151.5106481107206
 30
0.0
 10
96.56959996520908
 20
-151.5106481107206
 30
0.0
 10
96.56959996520908
 20
-152.0629399806994
 30
0.0
 10
97.01731165536408
 20
-152.5106516708548
 30
0.0
 10
97.56960352534321
 20
-152.5106516708548
 30
0.0
 10
97.56960352534321
 20
-152.5106516708548
 30
0.0
 10
105.5695889427225
 20
-152.5106516708548
 30
0.0
 10
105.5695889427225
 20
-152.5106516708548
 30
0.0
 10
106.1218592808548
 20
-152.5106516708548
 30
0.0
 10
106.5695925028566
 20
-152.0629399806994
 30
0.0
 10
106.5695925028566
 20
-151.5106481107206
 30
0.0
 10
106.5695925028566
 20
-151.5106481107206
 30
0.0
 10
106.5695925028566
 20
-143.510662693341
 30
0.0
 10
106.5695925028566
 20
-143.510662693341
 30
0.0
 10
106.5695925028566
 20
-142.9583708233622
 30
0.0
 10
106.1218592808548
 20
-142.5106591332072
 30
0.0
 10
105.5695889427225
 20
-142.5106591332072
 30
0.0
  0
SPLINE
  5
D8
330
D1
100
AcDbEntity
  8
Dieline
 62
    18
420
        0
370
    35
100
AcDbSpline
210
0.0
220
0.0
230
1.0
 70
     9
 71
     3
 72
    29
 73
    25
 74
     0
 42
0.0000000001
 43
0.0000000001
 40
0.0
 40
0.0
 40
0.0
 40
0.0
 40
1.0
 40
1.0
 40
1.0
 40
2.0
 40
2.0
 40
2.0
 40
3.0
 40
3.0
 40
3.0
 40
4.0
 40
4.0
 40
4.0
 40
5.0
 40
5.0
 40
5.0
 40
6.0
 40
6.0
 40
6.0
 40
7.0
 40
7.0
 40
7.0
 40
8.0
 40
8.0
 40
8.0
 40
8.0
 10
145.0695896110159
 20
-142.5106591332072
 30
0.0
 10
145.0695896110159
 20
-142.5106591332072
 30
0.0
 10
137.0696041936366
 20
-142.5106591332072
 30
0.0
 10
137.0696041936366
 20
-142.5106591332072
 30
0.0
 10
136.5173123236575
 20
-142.5106591332072
 30
0.0
 10
136.0696006335025
 20
-142.9583708233622
 30
0.0
 10
136.0696006335025
 20
-143.510662693341
 30
0.0
 10
136.0696006335025
 20
-143.510662693341
 30
0.0
 10
136.0696006335025
 20
-151.5106481107206
 30
0.0
 10
136.0696006335025
 20
-151.5106481107206
 30
0.0
 10
136.0696006335025
 20
-152.0629399806994
 30
0.0
 10
136.5173123236575
 20
-152.5106516708548
 30
0.0
 10
137.0696041936366
 20
-152.5106516708548
 30
0.0
 10
137.0696041936366
 20
-152.5106516708548
 30
0.0
 10
145.0695896110159
 20
-152.5106516708548
 30
0.0
 10
145.0695896110159
 20
-152.5106516708548
 30
0.0
 10
145.6218599491482
 20
-152.5106516708548
 30
0.0
 10
146.06959317115
 20
-152.0629399806994
 30
0.0
 10
146.06959317115
 20
-151.5106481107206
 30
0.0
 10
146.06959317115
 20
-151.5106481107206
 30
0.0
 10
146.06959317115
 20
-143.510662693341
 30
0.0
 10
146.06959317115
 20
-143.510662693341
 30
0.0
 10
146.06959317115
 20
-142.9583708233622
 30
0.0
 10
145.6218599491482
 20
-142.5106591332072
 30
0.0
 10
145.0695896110159
 20
-142.5106591332072
 30
0.0
  0
SPLINE
  5
D9
330
D1
100
AcDbEntity
  8
Dieline
 62
    18
420
        0
370
    35
100
AcDbSpline
210
0.0
220
0.0
230
1.0
 70
     9
 71
     3
 72
    29
 73
    25
 74
     0
 42
0.0000000001
 43
0.0000000001
 40
0.0
 40
0.0
 40
0.0
 40
0.0
 40
1.0
 40
1.0
 40
1.0
 40
2.0
 40
2.0
 40
2.0
 40
3.0
 40
3.0
 40
3.0
 40
4.0
 40
4.0
 40
4.0
 40
5.0
 40
5.0
 40
5.0
 40
6.0
 40
6.0
 40
6.0
 40
7.0
 40
7.0
 40
7.0
 40
8.0
 40
8.0
 40
8.0
 40
8.0
 10
84.56957877544651
 20
-142.5106591332072
 30
0.0
 10
84.56957877544651
 20
-142.5106591332072
 30
0.0
 10
76.56959335806715
 20
-142.5106591332072
 30
0.0
 10
76.56959335806715
 20
-142.5106591332072
 30
0.0
 10
76.01732301993482
 20
-142.5106591332072
 30
0.0
 10
75.56958979793304
 20
-142.9583708233622
 30
0.0
 10
75.56958979793304
 20
-143.510662693341
 30
0.0
 10
75.56958979793304
 20
-143.510662693341
 30
0.0
 10
75.56958979793304
 20
-151.5106481107206
 30
0.0
 10
75.56958979793304
 20
-151.5106481107206
 30
0.0
 10
75.56958979793304
 20
-152.0629399806994
 30
0.0
 10
76.01732301993482
 20
-152.5106516708548
 30
0.0
 10
76.56959335806715
 20
-152.5106516708548
 30
0.0
 10
76.56959335806715
 20
-152.5106516708548
 30
0.0
 10
84.56957877544651
 20
-152.5106516708548
 30
0.0
 10
84.56957877544651
 20
-152.5106516708548
 30
0.0
 10
85.12187064542562
 20
-152.5106516708548
 30
0.0
 10
85.56958233558061
 20
-152.0629399806994
 30
0.0
 10
85.56958233558061
 20
-151.5106481107206
 30
0.0
 10
85.56958233558061
 20
-151.5106481107206
 30
0.0
 10
85.56958233558061
 20
-143.510662693341
 30
0.0
 10
85.56958233558061
 20
-143.510662693341
 30
0.0
 10
85.56958233558061
 20
-142.9583708233622
 30
0.0
 10
85.12187064542562
 20
-142.5106591332072
 30
0.0
 10
84.56957877544651
 20
-142.5106591332072
 30
0.0
  0
SPLINE
  5
DA
330
D1
100
AcDbEntity
  8
Dieline
 62
    18
420
        0
370
    35
100
AcDbSpline
210
0.0
220
0.0
230
1.0
 70
     9
 71
     3
 72
    29
 73
    25
 74
     0
 42
0.0000000001
 43
0.0000000001
 40
0.0
 40
0.0
 40
0.0
 40
0.0
 40
1.0
 40
1.0
 40
1.0
 40
2.0
 40
2.0
 40
2.0
 40
3.0
 40
3.0
 40
3.0
 40
4.0
 40
4.0
 40
4.0
 40
5.0
 40
5.0
 40
5.0
 40
6.0
 40
6.0
 40
6.0
 40
7.0
 40
7.0
 40
7.0
 40
8.0
 40
8.0
 40
8.0
 40
8.0
 10
48.5695798016991
 20
-142.5106591332072
 30
0.0
 10
48.5695798016991
 20
-142.5106591332072
 30
0.0
 10
40.56959438431976
 20
-142.5106591332072
 30
0.0
 10
40.56959438431976
 20
-142.5106591332072
 30
0.0
 10
40.01732404618742
 20
-142.5106591332072
 30
0.0
 10
39.56959082418565
 20
-142.9583708233622
 30
0.0
 10
39.56959082418565
 20
-143.510662693341
 30
0.0
 10
39.56959082418565
 20
-143.510662693341
 30
0.0
 10
39.56959082418565
 20
-151.5106481107206
 30
0.0
 10
39.56959082418565
 20
-151.5106481107206
 30
0.0
 10
39.56959082418565
 20
-152.0629399806994
 30
0.0
 10
40.01732404618742
 20
-152.5106516708548
 30
0.0
 10
40.56959438431976
 20
-152.5106516708548
 30
0.0
 10
40.56959438431976
 20
-152.5106516708548
 30
0.0
 10
48.5695798016991
 20
-152.5106516708548
 30
0.0
 10
48.5695798016991
 20
-152.5106516708548
 30
0.0
 10
49.12187167167822
 20
-152.5106516708548
 30
0.0
 10
49.56958336183322
 20
-152.0629399806994
 30
0.0
 10
49.56958336183322
 20
-151.5106481107206
 30
0.0
 10
49.56958336183322
 20
-151.5106481107206
 30
0.0
 10
49.56958336183322
 20
-143.510662693341
 30
0.0
 10
49.56958336183322
 20
-143.510662693341
 30
0.0
 10
49.56958336183322
 20
-142.9583708233622
 30
0.0
 10
49.12187167167822
 20
-142.5106591332072
 30
0.0
 10
48.5695798016991
 20
-142.5106591332072
 30
0.0
  0
SPLINE
  5
DB
330
D1
100
AcDbEntity
  8
Dieline
 62
    18
420
        0
370
    35
100
AcDbSpline
210
0.0
220
0.0
230
1.0
 70
    11
 71
     3
 72
    17
 73
    13
 74
     0
 42
0.0000000001
 43
0.0000000001
 40
0.0
 40
0.0
 40
0.0
 40
0.0
 40
1.0
 40
1.0
 40
1.0
 40
2.0
 40
2.0
 40
2.0
 40
3.0
 40
3.0
 40
3.0
 40
4.0
 40
4.0
 40
4.0
 40
4.0
 10
126.5695991099986
 20
-146.2606455689016
 30
0.0
 10
125.879245038448
 20
-146.2606455689016
 30
0.0
 10
125.3195892768692
 20
-146.8203013304805
 30
0.0
 10
125.3195892768692
 20
-147.510655402031
 30
0.0
 10
125.3195892768692
 20
-148.2010094735815
 30
0.0
 10
125.879245038448
 20
-148.7606652351603
 30
0.0
 10
126.5695991099986
 20
-148.7606652351603
 30
0.0
 10
127.2599531815491
 20
-148.7606652351603
 30
0.0
 10
127.8195874112811
 20
-148.2010094735815
 30
0.0
 10
127.8195874112811
 20
-147.510655402031
 30
0.0
 10
127.8195874112811
 20
-146.8203013304805
 30
0.0
 10
127.2599531815491
 20
-146.2606455689016
 30
0.0
 10
126.5695991099986
 20
-146.2606455689016
 30
0.0
  0
SPLINE
  5
DC
330
D1
100
AcDbEntity
  8
Dieline
 62
    18
420
        0
370
    35
100
AcDbSpline
210
0.0
220
0.0
230
1.0
 70
     9
 71
     3
 72
    29
 73
    25
 74
     0
 42
0.0000000001
 43
0.0000000001
 40
0.0
 40
0.0
 40
0.0
 40
0.0
 40
1.0
 40
1.0
 40
1.0
 40
2.0
 40
2.0
 40
2.0
 40
3.0
 40
3.0
 40
3.0
 40
4.0
 40
4.0
 40
4.0
 40
5.0
 40
5.0
 40
5.0
 40
6.0
 40
6.0
 40
6.0
 40
7.0
 40
7.0
 40
7.0
 40
8.0
 40
8.0
 40
8.0
 40
8.0
 10
-46.93040305067398
 20
-151.0106554011561
 30
0.0
 10
-46.93040305067398
 20
-151.0106554011561
 30
0.0
 10
-51.93040304942349
 20
-151.0106554011561
 30
0.0
 10
-51.93040304942349
 20
-151.0106554011561
 30
0.0
 10
-52.48268779911648
 20
-151.0106554011561
 30
0.0
 10
-52.9304030491739
 20
-150.562940151099
 30
0.0
 10
-52.9304030491739
 20
-150.010655401406
 30
0.0
 10
-52.9304030491739
 20
-150.010655401406
 30
0.0
 10
-52.9304030491739
 20
-145.0106554026562
 30
0.0
 10
-52.9304030491739
 20
-145.0106554026562
 30
0.0
 10
-52.9304030491739
 20
-144.4583706529635
 30
0.0
 10
-52.48268779911648
 20
-144.0106554029061
 30
0.0
 10
-51.93040304942349
 20
-144.0106554029061
 30
0.0
 10
-51.93040304942349
 20
-144.0106554029061
 30
0.0
 10
-46.93040305067398
 20
-144.0106554029061
 30
0.0
 10
-46.93040305067398
 20
-144.0106554029061
 30
0.0
 10
-46.37811830098099
 20
-144.0106554029061
 30
0.0
 10
-45.93040305092357
 20
-144.4583706529635
 30
0.0
 10
-45.93040305092357
 20
-145.0106554026562
 30
0.0
 10
-45.93040305092357
 20
-145.0106554026562
 30
0.0
 10
-45.93040305092357
 20
-150.010655401406
 30
0.0
 10
-45.93040305092357
 20
-150.010655401406
 30
0.0
 10
-45.93040305092357
 20
-150.562940151099
 30
0.0
 10
-46.37811830098099
 20
-151.0106554011561
 30
0.0
 10
-46.93040305067398
 20
-151.0106554011561
 30
0.0
  0
SPLINE
  5
DD
330
D1
100
AcDbEntity
  8
Dieline
 62
    18
420
        0
370
    35
100
AcDbSpline
210
0.0
220
0.0
230
1.0
 70
     9
 71
     3
 72
    29
 73
    25
 74
     0
 42
0.0000000001
 43
0.0000000001
 40
0.0
 40
0.0
 40
0.0
 40
0.0
 40
1.0
 40
1.0
 40
1.0
 40
2.0
 40
2.0
 40
2.0
 40
3.0
 40
3.0
 40
3.0
 40
4.0
 40
4.0
 40
4.0
 40
5.0
 40
5.0
 40
5.0
 40
6.0
 40
6.0
 40
6.0
 40
7.0
 40
7.0
 40
7.0
 40
8.0
 40
8.0
 40
8.0
 40
8.0
 10
-4.930404247968688
 20
-151.0106554011565
 30
0.0
 10
-4.930404247968688
 20
-151.0106554011565
 30
0.0
 10
-9.930404246718193
 20
-151.0106554011565
 30
0.0
 10
-9.930404246718193
 20
-151.0106554011565
 30
0.0
 10
-10.48268899641118
 20
-151.0106554011565
 30
0.0
 10
-10.93040424646861
 20
-150.562940151099
 30
0.0
 10
-10.93040424646861
 20
-150.010655401406
 30
0.0
 10
-10.93040424646861
 20
-150.010655401406
 30
0.0
 10
-10.93040424646861
 20
-145.0106554026565
 30
0.0
 10
-10.93040424646861
 20
-145.0106554026565
 30
0.0
 10
-10.93040424646861
 20
-144.4583706529635
 30
0.0
 10
-10.48268899641118
 20
-144.0106554029061
 30
0.0
 10
-9.930404246718193
 20
-144.0106554029061
 30
0.0
 10
-9.930404246718193
 20
-144.0106554029061
 30
0.0
 10
-4.930404247968688
 20
-144.0106554029061
 30
0.0
 10
-4.930404247968688
 20
-144.0106554029061
 30
0.0
 10
-4.378119498275697
 20
-144.0106554029061
 30
0.0
 10
-3.930404248218274
 20
-144.4583706529635
 30
0.0
 10
-3.930404248218274
 20
-145.0106554026565
 30
0.0
 10
-3.930404248218274
 20
-145.0106554026565
 30
0.0
 10
-3.930404248218274
 20
-150.010655401406
 30
0.0
 10
-3.930404248218274
 20
-150.010655401406
 30
0.0
 10
-3.930404248218274
 20
-150.562940151099
 30
0.0
 10
-4.378119498275697
 20
-151.0106554011565
 30
0.0
 10
-4.930404247968688
 20
-151.0106554011565
 30
0.0
  0
ENDBLK
  5
D4
330
D1
100
AcDbEntity
  8
0
100
AcDbBlockEnd
  0
BLOCK
  5
ED
330
EB
100
AcDbEntity
  8
0
100
AcDbBlockBegin
  2
Block_11
 70
     0
 10
0.0
 20
0.0
 30
0.0
  3
Block_11
  1

  0
INSERT
  5
F0
330
EB
100
AcDbEntity
  8
Annotations
100
AcDbBlockReference
  2
Block_12
 10
0.0
 20
0.0
 30
0.0
  0
MTEXT
  5
FA
330
EB
100
AcDbEntity
  8
Annotations
100
AcDbMText
 10
74.08550803133756
 20
-45.28348701192674
 30
0.0
 40
0.2
 41
0.0
 46
0.0
 71
     7
 72
     1
  1
\C18;\c0;\FHelvetica LT Std Bold|b1|i0|c1;\H2.124001;\W1.000000;Cut Pattern
 73
     1
 44
1.0
  0
LWPOLYLINE
  5
FB
330
EB
100
AcDbEntity
  8
Annotations
 62
     1
420
 16711680
370
    35
100
AcDbPolyline
 90
        4
 70
     1
 43
0.0
 10
71.18529324606122
 20
-47.09094989829167
 10
66.44706694725893
 20
-47.09094989829167
 10
66.44706694725893
 20
-42.35272359948875
 10
71.18529324606122
 20
-42.35272359948875
  0
INSERT
  5
FD
330
EB
100
AcDbEntity
  8
Annotations
100
AcDbBlockReference
  2
Block_13
 10
0.0
 20
0.0
 30
0.0
  0
ENDBLK
  5
EE
330
EB
100
AcDbEntity
  8
0
100
AcDbBlockEnd
  0
BLOCK
  5
F1
330
EF
100
AcDbEntity
  8
0
100
AcDbBlockBegin
  2
Block_12
 70
     0
 10
0.0
 20
0.0
 30
0.0
  3
Block_12
  1

  0
MTEXT
  5
F3
330
EF
100
AcDbEntity
  8
Annotations
100
AcDbMText
 10
74.90550535236737
 20
-0.3293726602366673
 30
0.0
 40
0.2
 41
0.0
 46
0.0
 71
     7
 72
     1
  1
\C18;\c0;\FHelvetica LT Std Bold|b1|i0|c1;\H2.124001;\W1.000000;Trinitron Grey
 73
     1
 44
1.0
  0
MTEXT
  5
F4
330
EF
100
AcDbEntity
  8
Annotations
100
AcDbMText
 10
74.90550535236737
 20
-3.929325187548484
 30
0.0
 40
0.2
 41
0.0
 46
0.0
 71
     7
 72
     1
  1
\C18;\c0;\FHelvetica LT Std Roman|b0|i0|c1;\H2.124001;\W1.000000;Pantone 425 C
 73
     1
 44
1.0
  0
MTEXT
  5
F5
330
EF
100
AcDbEntity
  8
Annotations
100
AcDbMText
 10
74.90550535236737
 20
-7.529277714860302
 30
0.0
 40
0.2
 41
0.0
 46
0.0
 71
     7
 72
     1
  1
\C18;\c0;\FHelvetica LT Std Roman|b0|i0|c1;\H2.124001;\W1.000000;RGB 84 88 89
 73
     1
 44
1.0
  0
MTEXT
  5
F6
330
EF
100
AcDbEntity
  8
Annotations
100
AcDbMText
 10
74.90550535236737
 20
-11.12923024217212
 30
0.0
 40
0.2
 41
0.0
 46
0.0
 71
     7
 72
     1
  1
\C18;\c0;\FHelvetica LT Std Roman|b0|i0|c1;\H2.124001;\W1.000000;HEX/HTML 545859
 73
     1
 44
1.0
  0
MTEXT
  5
F7
330
EF
100
AcDbEntity
  8
Annotations
100
AcDbMText
 10
74.90550535236737
 20
-14.7293550242582
 30
0.0
 40
0.2
 41
0.0
 46
0.0
 71
     7
 72
     1
  1
\C18;\c0;\FHelvetica LT Std Roman|b0|i0|c1;\H2.124001;\W1.000000;CMYK 63 51 45 33
 73
     1
 44
1.0
  0
LWPOLYLINE
  5
F8
330
EF
100
AcDbEntity
  8
Annotations
100
AcDbPolyline
 90
        4
 70
     1
 43
0.0
 10
71.18529324606122
 20
-2.772073720573658
 10
66.44706694725893
 20
-2.772073720573658
 10
66.44706694725893
 20
1.966152578228943
 10
71.18529324606122
 20
1.966152578228943
  0
HATCH
  5
F9
330
EF
100
AcDbEntity
  8
Annotations
 62
   251
420
  6710886
440
 33554687
100
AcDbHatch
 10
0.0
 20
0.0
 30
0.0
210
0.0
220
0.0
230
1.0
  2
SOLID
 70
     1
 71
     1
 91
        1
 92
        1
 93
        4
 72
     1
 10
71.18529324606122
 20
-2.772073720573658
 11
66.44706694725893
 21
-2.772073720573658
 72
     1
 10
66.44706694725893
 20
-2.772073720573658
 11
66.44706694725893
 21
1.966152578228943
 72
     1
 10
66.44706694725893
 20
1.966152578228943
 11
71.18529324606122
 21
1.966152578228943
 72
     1
 10
71.18529324606122
 20
1.966152578228943
 11
71.18529324606122
 21
-2.772073720573658
 97
        1
330
F8
 75
     2
 76
     1
 98
        1
 10
0.0
 20
0.0
450
        0
451
        0
460
0.0
461
0.0
452
        0
462
0.0
453
        0
470

  0
ENDBLK
  5
F2
330
EF
100
AcDbEntity
  8
0
100
AcDbBlockEnd
  0
BLOCK
  5
FE
330
FC
100
AcDbEntity
  8
0
100
AcDbBlockBegin
  2
Block_13
 70
     0
 10
0.0
 20
0.0
 30
0.0
  3
Block_13
  1

  0
MTEXT
  5
100
330
FC
100
AcDbEntity
  8
Annotations
100
AcDbMText
 10
74.90550535236737
 20
-22.91240420298501
 30
0.0
 40
0.2
 41
0.0
 46
0.0
 71
     7
 72
     1
  1
\C18;\c0;\FHelvetica LT Std Bold|b1|i0|c1;\H2.124001;\W1.000000;White
 73
     1
 44
1.0
  0
MTEXT
  5
101
330
FC
100
AcDbEntity
  8
Annotations
100
AcDbMText
 10
74.90550535236737
 20
-26.51235673029683
 30
0.0
 40
0.2
 41
0.0
 46
0.0
 71
     7
 72
     1
  1
\C18;\c0;\FHelvetica LT Std Roman|b0|i0|c1;\H2.124001;\W1.000000;PANTONE  11-0601 TPG
 73
     1
 44
1.0
  0
MTEXT
  5
102
330
FC
100
AcDbEntity
  8
Annotations
100
AcDbMText
 10
74.90550535236737
 20
-30.11230925760865
 30
0.0
 40
0.2
 41
0.0
 46
0.0
 71
     7
 72
     1
  1
\C18;\c0;\FHelvetica LT Std Roman|b0|i0|c1;\H2.124001;\W1.000000;Bright White
 73
     1
 44
1.0
  0
MTEXT
  5
103
330
FC
100
AcDbEntity
  8
Annotations
100
AcDbMText
 10
74.90550535236737
 20
-33.71226178492046
 30
0.0
 40
0.2
 41
0.0
 46
0.0
 71
     7
 72
     1
  1
\C18;\c0;\FHelvetica LT Std Roman|b0|i0|c1;\H2.124001;\W1.000000;RGB 245 247 246
 73
     1
 44
1.0
  0
MTEXT
  5
104
330
FC
100
AcDbEntity
  8
Annotations
100
AcDbMText
 10
74.90550535236737
 20
-37.31238656700654
 30
0.0
 40
0.2
 41
0.0
 46
0.0
 71
     7
 72
     1
  1
\C18;\c0;\FHelvetica LT Std Roman|b0|i0|c1;\H2.124001;\W1.000000;HEX/HTML F5F7F6
 73
     1
 44
1.0
  0
LWPOLYLINE
  5
105
330
FC
100
AcDbEntity
  8
Annotations
 62
    18
420
        0
370
     9
100
AcDbPolyline
 90
        4
 70
     1
 43
0.0
 10
71.18529324606122
 20
-24.88865118671765
 10
66.44706694725893
 20
-24.88865118671765
 10
66.44706694725893
 20
-20.15042488791505
 10
71.18529324606122
 20
-20.15042488791505
  0
ENDBLK
  5
FF
330
FC
100
AcDbEntity
  8
0
100
AcDbBlockEnd
  0
BLOCK
  5
110
330
10E
100
AcDbEntity
  8
0
100
AcDbBlockBegin
  2
Block_14
 70
     0
 10
0.0
 20
0.0
 30
0.0
  3
Block_14
  1

  0
MTEXT
  5
112
330
10E
100
AcDbEntity
  8
Annotations
100
AcDbMText
 10
21.53697405382664
 20
-105.9363308959605
 30
0.0
 40
0.2
 41
0.0
 46
0.0
 71
     7
 72
     1
  1
\C18;\c0;\FHelvetica LT Std Bold|b1|i0|c1;\H2.124001;\W1.000000;235.25
 73
     1
 44
1.0
  0
INSERT
  5
114
330
10E
100
AcDbEntity
  8
Annotations
100
AcDbBlockReference
  2
Block_15
 10
0.0
 20
0.0
 30
0.0
  0
ENDBLK
  5
111
330
10E
100
AcDbEntity
  8
0
100
AcDbBlockEnd
  0
BLOCK
  5
115
330
113
100
AcDbEntity
  8
0
100
AcDbBlockBegin
  2
Block_15
 70
     0
 10
0.0
 20
0.0
 30
0.0
  3
Block_15
  1

  0
LINE
  5
117
330
113
100
AcDbEntity
  8
Annotations
 62
    18
420
        0
370
    35
100
AcDbLine
 10
-79.93040909439916
 20
-92.41250987886472
 30
0.0
 11
-79.93040909439916
 21
-108.576413874438
 31
0.0
  0
INSERT
  5
119
330
113
100
AcDbEntity
  8
Annotations
100
AcDbBlockReference
  2
Block_16
 10
0.0
 20
0.0
 30
0.0
  0
ENDBLK
  5
116
330
113
100
AcDbEntity
  8
0
100
AcDbBlockEnd
  0
BLOCK
  5
11A
330
118
100
AcDbEntity
  8
0
100
AcDbBlockBegin
  2
Block_16
 70
     0
 10
0.0
 20
0.0
 30
0.0
  3
Block_16
  1

  0
LINE
  5
11C
330
118
100
AcDbEntity
  8
Annotations
 62
    18
420
        0
370
    35
100
AcDbLine
 10
-79.93040909439916
 20
-100.4944618766515
 30
0.0
 11
155.3195908467889
 21
-100.4944618766515
 31
0.0
  0
LINE
  5
11D
330
118
100
AcDbEntity
  8
Annotations
 62
    18
420
        0
370
    35
100
AcDbLine
 10
155.3195908467889
 20
-92.41250987886472
 30
0.0
 11
155.3195908467889
 21
-108.576413874438
 31
0.0
  0
ENDBLK
  5
11B
330
118
100
AcDbEntity
  8
0
100
AcDbBlockEnd
  0
BLOCK
  5
120
330
11E
100
AcDbEntity
  8
0
100
AcDbBlockBegin
  2
Block_17
 70
     0
 10
0.0
 20
0.0
 30
0.0
  3
Block_17
  1

  0
LINE
  5
122
330
11E
100
AcDbEntity
  8
Annotations
 62
    18
420
        0
370
    35
100
AcDbLine
 10
157.3106815700436
 20
-163.5106610255832
 30
0.0
 11
175.8976989493944
 21
-163.5106610255832
 31
0.0
  0
INSERT
  5
124
330
11E
100
AcDbEntity
  8
Annotations
100
AcDbBlockReference
  2
Block_18
 10
0.0
 20
0.0
 30
0.0
  0
ENDBLK
  5
121
330
11E
100
AcDbEntity
  8
0
100
AcDbBlockEnd
  0
BLOCK
  5
125
330
123
100
AcDbEntity
  8
0
100
AcDbBlockBegin
  2
Block_18
 70
     0
 10
0.0
 20
0.0
 30
0.0
  3
Block_18
  1

  0
LINE
  5
127
330
123
100
AcDbEntity
  8
Annotations
 62
    18
420
        0
370
    35
100
AcDbLine
 10
166.6041902597187
 20
-163.5106610255832
 30
0.0
 11
166.6041902597187
 21
-130.510661033833
 31
0.0
  0
LINE
  5
128
330
123
100
AcDbEntity
  8
Annotations
 62
    18
420
        0
370
    35
100
AcDbLine
 10
157.3106815700436
 20
-130.510661033833
 30
0.0
 11
175.8976989493944
 21
-130.510661033833
 31
0.0
  0
ENDBLK
  5
126
330
123
100
AcDbEntity
  8
0
100
AcDbBlockEnd
  0
BLOCK
  5
12B
330
129
100
AcDbEntity
  8
0
100
AcDbBlockBegin
  2
Block_19
 70
     0
 10
0.0
 20
0.0
 30
0.0
  3
Block_19
  1

  0
MTEXT
  5
12D
330
129
100
AcDbEntity
  8
Annotations
100
AcDbMText
 10
-92.06893337915019
 20
-120.6090356313332
 30
0.0
 40
0.2
 41
0.0
 46
0.0
 71
     7
 72
     1
  1
\C18;\c0;\FHelvetica LT Std Bold|b1|i0|c1;\H2.124001;\W1.000000;r 1
 73
     1
 44
1.0
  0
INSERT
  5
12F
330
129
100
AcDbEntity
  8
Annotations
100
AcDbBlockReference
  2
Block_20
 10
0.0
 20
0.0
 30
0.0
  0
LINE
  5
176
330
129
100
AcDbEntity
  8
Annotations
 62
    18
420
        0
370
    35
100
AcDbLine
 10
-80.96590008470114
 20
-128.7036143945784
 30
0.0
 11
-88.16062485354425
 21
-121.5088896257353
 31
0.0
  0
MTEXT
  5
177
330
129
100
AcDbEntity
  8
Annotations
100
AcDbMText
 10
17.79182319991046
 20
-119.0213647226962
 30
0.0
 40
0.2
 41
0.0
 46
0.0
 71
     7
 72
     1
  1
\C18;\c0;\FHelvetica LT Std Bold|b1|i0|c1;\H2.124001;\W1.000000;52
 73
     1
 44
1.0
  0
ENDBLK
  5
12C
330
129
100
AcDbEntity
  8
0
100
AcDbBlockEnd
  0
BLOCK
  5
130
330
12E
100
AcDbEntity
  8
0
100
AcDbBlockBegin
  2
Block_20
 70
     0
 10
0.0
 20
0.0
 30
0.0
  3
Block_20
  1

  0
INSERT
  5
133
330
12E
100
AcDbEntity
  8
Annotations
100
AcDbBlockReference
  2
Block_21
 10
0.0
 20
0.0
 30
0.0
  0
INSERT
  5
139
330
12E
100
AcDbEntity
  8
Annotations
100
AcDbBlockReference
  2
Block_22
 10
0.0
 20
0.0
 30
0.0
  0
INSERT
  5
13F
330
12E
100
AcDbEntity
  8
Annotations
100
AcDbBlockReference
  2
Block_23
 10
0.0
 20
0.0
 30
0.0
  0
LINE
  5
144
330
12E
100
AcDbEntity
  8
Annotations
 62
    18
420
        0
370
    35
100
AcDbLine
 10
-7.465682025112527
 20
-120.158906891402
 30
0.0
 11
44.53430931524034
 21
-120.158906891402
 31
0.0
  0
LINE
  5
145
330
12E
100
AcDbEntity
  8
Annotations
 62
    18
420
        0
370
    35
100
AcDbLine
 10
44.53430931524034
 20
-112.0769548936152
 30
0.0
 11
44.53430931524034
 21
-128.2408588891885
 31
0.0
  0
INSERT
  5
147
330
12E
100
AcDbEntity
  8
Annotations
100
AcDbBlockReference
  2
Block_24
 10
0.0
 20
0.0
 30
0.0
  0
INSERT
  5
14D
330
12E
100
AcDbEntity
  8
Annotations
100
AcDbBlockReference
  2
Block_25
 10
0.0
 20
0.0
 30
0.0
  0
INSERT
  5
159
330
12E
100
AcDbEntity
  8
Annotations
100
AcDbBlockReference
  2
Block_26
 10
0.0
 20
0.0
 30
0.0
  0
INSERT
  5
15F
330
12E
100
AcDbEntity
  8
Annotations
100
AcDbBlockReference
  2
Block_27
 10
0.0
 20
0.0
 30
0.0
  0
INSERT
  5
165
330
12E
100
AcDbEntity
  8
Annotations
100
AcDbBlockReference
  2
Block_28
 10
0.0
 20
0.0
 30
0.0
  0
INSERT
  5
16B
330
12E
100
AcDbEntity
  8
Annotations
100
AcDbBlockReference
  2
Block_29
 10
0.0
 20
0.0
 30
0.0
  0
INSERT
  5
171
330
12E
100
AcDbEntity
  8
Annotations
100
AcDbBlockReference
  2
Block_30
 10
0.0
 20
0.0
 30
0.0
  0
ENDBLK
  5
131
330
12E
100
AcDbEntity
  8
0
100
AcDbBlockEnd
  0
BLOCK
  5
134
330
132
100
AcDbEntity
  8
0
100
AcDbBlockBegin
  2
Block_21
 70
     0
 10
0.0
 20
0.0
 30
0.0
  3
Block_21
  1

  0
LINE
  5
136
330
132
100
AcDbEntity
  8
Annotations
 62
    18
420
        0
370
    35
100
AcDbLine
 10
-49.46568082815439
 20
-112.0769548936152
 30
0.0
 11
-49.46568082815439
 21
-128.2408588891885
 31
0.0
  0
LINE
  5
137
330
132
100
AcDbEntity
  8
Annotations
 62
    18
420
        0
370
    35
100
AcDbLine
 10
-49.46568082815439
 20
-120.158906891402
 30
0.0
 11
-28.46569219238857
 21
-120.158906891402
 31
0.0
  0
ENDBLK
  5
135
330
132
100
AcDbEntity
  8
0
100
AcDbBlockEnd
  0
BLOCK
  5
13A
330
138
100
AcDbEntity
  8
0
100
AcDbBlockBegin
  2
Block_22
 70
     0
 10
0.0
 20
0.0
 30
0.0
  3
Block_22
  1

  0
LINE
  5
13C
330
138
100
AcDbEntity
  8
Annotations
 62
    18
420
        0
370
    35
100
AcDbLine
 10
-79.96568687216856
 20
-112.0769548936152
 30
0.0
 11
-79.96568687216856
 21
-128.2408588891885
 31
0.0
  0
LINE
  5
13D
330
138
100
AcDbEntity
  8
Annotations
 62
    18
420
        0
370
    35
100
AcDbLine
 10
-79.96568687216856
 20
-120.158906891402
 30
0.0
 11
-49.46568082815439
 21
-120.158906891402
 31
0.0
  0
ENDBLK
  5
13B
330
138
100
AcDbEntity
  8
0
100
AcDbBlockEnd
  0
BLOCK
  5
140
330
13E
100
AcDbEntity
  8
0
100
AcDbBlockBegin
  2
Block_23
 70
     0
 10
0.0
 20
0.0
 30
0.0
  3
Block_23
  1

  0
LINE
  5
142
330
13E
100
AcDbEntity
  8
Annotations
 62
    18
420
        0
370
    35
100
AcDbLine
 10
-28.40591066818681
 20
-120.158906891402
 30
0.0
 11
-7.40592203242098
 21
-120.158906891402
 31
0.0
  0
LINE
  5
143
330
13E
100
AcDbEntity
  8
Annotations
 62
    18
420
        0
370
    35
100
AcDbLine
 10
-7.40592203242098
 20
-112.0769548936152
 30
0.0
 11
-7.40592203242098
 21
-128.2408588891885
 31
0.0
  0
ENDBLK
  5
141
330
13E
100
AcDbEntity
  8
0
100
AcDbBlockEnd
  0
BLOCK
  5
148
330
146
100
AcDbEntity
  8
0
100
AcDbBlockBegin
  2
Block_24
 70
     0
 10
0.0
 20
0.0
 30
0.0
  3
Block_24
  1

  0
LINE
  5
14A
330
146
100
AcDbEntity
  8
Annotations
 62
    18
420
        0
370
    35
100
AcDbLine
 10
44.53430931524034
 20
-120.158906891402
 30
0.0
 11
65.53430871659299
 21
-120.158906891402
 31
0.0
  0
LINE
  5
14B
330
146
100
AcDbEntity
  8
Annotations
 62
    18
420
        0
370
    35
100
AcDbLine
 10
65.53430871659299
 20
-112.0769548936152
 30
0.0
 11
65.53430871659299
 21
-128.2408588891885
 31
0.0
  0
ENDBLK
  5
149
330
146
100
AcDbEntity
  8
0
100
AcDbBlockEnd
  0
BLOCK
  5
14E
330
14C
100
AcDbEntity
  8
0
100
AcDbBlockBegin
  2
Block_25
 70
     0
 10
0.0
 20
0.0
 30
0.0
  3
Block_25
  1

  0
MTEXT
  5
150
330
14C
100
AcDbEntity
  8
Annotations
100
AcDbMText
 10
-68.18717619992641
 20
-118.4924227948126
 30
0.0
 40
0.2
 41
0.0
 46
0.0
 71
     7
 72
     1
  1
\C18;\c0;\FHelvetica LT Std Bold|b1|i0|c1;\H2.124001;\W1.000000;30.5
 73
     1
 44
1.0
  0
MTEXT
  5
151
330
14C
100
AcDbEntity
  8
Annotations
100
AcDbMText
 10
-30.58118675315115
 20
-118.4924227948126
 30
0.0
 40
0.2
 41
0.0
 46
0.0
 71
     7
 72
     1
  1
\C18;\c0;\FHelvetica LT Std Bold|b1|i0|c1;\H2.124001;\W1.000000;42
 73
     1
 44
1.0
  0
MTEXT
  5
152
330
14C
100
AcDbEntity
  8
Annotations
100
AcDbMText
 10
52.81257094016599
 20
-118.4924227948126
 30
0.0
 40
0.2
 41
0.0
 46
0.0
 71
     7
 72
     1
  1
\C18;\c0;\FHelvetica LT Std Bold|b1|i0|c1;\H2.124001;\W1.000000;21
 73
     1
 44
1.0
  0
MTEXT
  5
153
330
14C
100
AcDbEntity
  8
Annotations
100
AcDbMText
 10
71.19261828867971
 20
-118.4924227948126
 30
0.0
 40
0.2
 41
0.0
 46
0.0
 71
     7
 72
     1
  1
\C18;\c0;\FHelvetica LT Std Bold|b1|i0|c1;\H2.124001;\W1.000000;15
 73
     1
 44
1.0
  0
MTEXT
  5
154
330
14C
100
AcDbEntity
  8
Annotations
100
AcDbMText
 10
89.39513556046914
 20
-118.4924227948126
 30
0.0
 40
0.2
 41
0.0
 46
0.0
 71
     7
 72
     1
  1
\C18;\c0;\FHelvetica LT Std Bold|b1|i0|c1;\H2.124001;\W1.000000;21
 73
     1
 44
1.0
  0
MTEXT
  5
155
330
14C
100
AcDbEntity
  8
Annotations
100
AcDbMText
 10
112.4648514360494
 20
-118.4924227948126
 30
0.0
 40
0.2
 41
0.0
 46
0.0
 71
     7
 72
     1
  1
\C18;\c0;\FHelvetica LT Std Bold|b1|i0|c1;\H2.124001;\W1.000000;25
 73
     1
 44
1.0
  0
MTEXT
  5
156
330
14C
100
AcDbEntity
  8
Annotations
100
AcDbMText
 10
144.0985148599443
 20
-118.4924227948126
 30
0.0
 40
0.2
 41
0.0
 46
0.0
 71
     7
 72
     1
  1
\C18;\c0;\FHelvetica LT Std Bold|b1|i0|c1;\H2.124001;\W1.000000;14.25
 73
     1
 44
1.0
  0
MTEXT
  5
157
330
14C
100
AcDbEntity
  8
Annotations
100
AcDbMText
 10
130.4642910949067
 20
-118.4924227948126
 30
0.0
 40
0.2
 41
0.0
 46
0.0
 71
     7
 72
     1
  1
\C18;\c0;\FHelvetica LT Std Bold|b1|i0|c1;\H2.124001;\W1.000000;14.5
 73
     1
 44
1.0
  0
ENDBLK
  5
14F
330
14C
100
AcDbEntity
  8
0
100
AcDbBlockEnd
  0
BLOCK
  5
15A
330
158
100
AcDbEntity
  8
0
100
AcDbBlockBegin
  2
Block_26
 70
     0
 10
0.0
 20
0.0
 30
0.0
  3
Block_26
  1

  0
LINE
  5
15C
330
158
100
AcDbEntity
  8
Annotations
 62
    18
420
        0
370
    35
100
AcDbLine
 10
80.53430828898774
 20
-120.158906891402
 30
0.0
 11
101.5343076903403
 21
-120.158906891402
 31
0.0
  0
LINE
  5
15D
330
158
100
AcDbEntity
  8
Annotations
 62
    18
420
        0
370
    35
100
AcDbLine
 10
101.5343076903403
 20
-112.0769548936152
 30
0.0
 11
101.5343076903403
 21
-128.2408588891885
 31
0.0
  0
ENDBLK
  5
15B
330
158
100
AcDbEntity
  8
0
100
AcDbBlockEnd
  0
BLOCK
  5
160
330
15E
100
AcDbEntity
  8
0
100
AcDbBlockBegin
  2
Block_27
 70
     0
 10
0.0
 20
0.0
 30
0.0
  3
Block_27
  1

  0
LINE
  5
162
330
15E
100
AcDbEntity
  8
Annotations
 62
    18
420
        0
370
    35
100
AcDbLine
 10
101.5343076903403
 20
-120.158906891402
 30
0.0
 11
126.5343105663061
 21
-120.158906891402
 31
0.0
  0
LINE
  5
163
330
15E
100
AcDbEntity
  8
Annotations
 62
    18
420
        0
370
    35
100
AcDbLine
 10
126.5343105663061
 20
-112.0769548936152
 30
0.0
 11
126.5343105663061
 21
-128.2408588891885
 31
0.0
  0
ENDBLK
  5
161
330
15E
100
AcDbEntity
  8
0
100
AcDbBlockEnd
  0
BLOCK
  5
166
330
164
100
AcDbEntity
  8
0
100
AcDbBlockBegin
  2
Block_28
 70
     0
 10
0.0
 20
0.0
 30
0.0
  3
Block_28
  1

  0
LINE
  5
168
330
164
100
AcDbEntity
  8
Annotations
 62
    18
420
        0
370
    35
100
AcDbLine
 10
126.5343105663061
 20
-120.158906891402
 30
0.0
 11
141.0343191245572
 21
-120.158906891402
 31
0.0
  0
LINE
  5
169
330
164
100
AcDbEntity
  8
Annotations
 62
    18
420
        0
370
    35
100
AcDbLine
 10
141.0343191245572
 20
-112.0769548936152
 30
0.0
 11
141.0343191245572
 21
-128.2408588891885
 31
0.0
  0
ENDBLK
  5
167
330
164
100
AcDbEntity
  8
0
100
AcDbBlockEnd
  0
BLOCK
  5
16C
330
16A
100
AcDbEntity
  8
0
100
AcDbBlockBegin
  2
Block_29
 70
     0
 10
0.0
 20
0.0
 30
0.0
  3
Block_29
  1

  0
LINE
  5
16E
330
16A
100
AcDbEntity
  8
Annotations
 62
    18
420
        0
370
    35
100
AcDbLine
 10
141.0343191245572
 20
-120.158906891402
 30
0.0
 11
155.2843130690201
 21
-120.158906891402
 31
0.0
  0
LINE
  5
16F
330
16A
100
AcDbEntity
  8
Annotations
 62
    18
420
        0
370
    35
100
AcDbLine
 10
155.2843130690201
 20
-112.0769548936152
 30
0.0
 11
155.2843130690201
 21
-128.2408588891885
 31
0.0
  0
ENDBLK
  5
16D
330
16A
100
AcDbEntity
  8
0
100
AcDbBlockEnd
  0
BLOCK
  5
172
330
170
100
AcDbEntity
  8
0
100
AcDbBlockBegin
  2
Block_30
 70
     0
 10
0.0
 20
0.0
 30
0.0
  3
Block_30
  1

  0
LINE
  5
174
330
170
100
AcDbEntity
  8
Annotations
 62
    18
420
        0
370
    35
100
AcDbLine
 10
65.53430871659299
 20
-120.158906891402
 30
0.0
 11
80.53430828898774
 21
-120.158906891402
 31
0.0
  0
LINE
  5
175
330
170
100
AcDbEntity
  8
Annotations
 62
    18
420
        0
370
    35
100
AcDbLine
 10
80.53430828898774
 20
-112.0769548936152
 30
0.0
 11
80.53430828898774
 21
-128.2408588891885
 31
0.0
  0
ENDBLK
  5
173
330
170
100
AcDbEntity
  8
0
100
AcDbBlockEnd
  0
ENDSEC
  0
SECTION
  2
ENTITIES
  0
LWPOLYLINE
  5
79
330
70
100
AcDbEntity
  8
Print Artwork
100
AcDbPolyline
 90
        5
 70
     1
 43
0.0
 10
159.8606801932583
 20
-168.5104684245084
 10
-84.93043254149926
 20
-168.5104684245084
 10
-84.93043254149926
 20
-125.5106813801358
 10
159.8605079384841
 20
-125.5106813801358
 10
159.8606801932583
 20
-125.5108536349101
  0
HATCH
  5
7A
330
70
100
AcDbEntity
  8
Print Artwork
 62
   251
420
  6710886
440
 33554687
100
AcDbHatch
 10
0.0
 20
0.0
 30
0.0
210
0.0
220
0.0
230
1.0
  2
SOLID
 70
     1
 71
     1
 91
        1
 92
        1
 93
        5
 72
     1
 10
159.8606801932583
 20
-168.5104684245084
 11
-84.93043254149927
 21
-168.5104684245084
 72
     1
 10
-84.93043254149926
 20
-168.5104684245084
 11
-84.93043254149926
 21
-125.5106813801358
 72
     1
 10
-84.93043254149926
 20
-125.5106813801358
 11
159.8605079384841
 21
-125.5106813801358
 72
     1
 10
159.8605079384841
 20
-125.5106813801358
 11
159.8606801932583
 21
-125.5108536349101
 72
     1
 10
159.8606801932583
 20
-125.5108536349101
 11
159.8606801932583
 21
-168.5104684245084
 97
        1
330
79
 75
     2
 76
     1
 98
        1
 10
0.0
 20
0.0
450
        0
451
        0
460
0.0
461
0.0
452
        0
462
0.0
453
        0
470

  0
INSERT
  5
7C
330
70
100
AcDbEntity
  8
Print Artwork
100
AcDbBlockReference
  2
Block_0
 10
0.0
 20
0.0
 30
0.0
  0
INSERT
  5
D2
330
70
100
AcDbEntity
  8
Dieline
100
AcDbBlockReference
  2
Block_10
 10
0.0
 20
0.0
 30
0.0
  0
MTEXT
  5
DF
330
70
100
AcDbEntity
  8
Annotations
100
AcDbMText
 10
-101.5861334652718
 20
5.024434914922276
 30
0.0
 40
0.2
 41
0.0
 46
0.0
 71
     7
 72
     1
  1
\C18;\c0;\FHelvetica LT Std Bold|b1|i0|c1;\H2.831999;\W1.000000;Material Specification:
 73
     1
 44
1.0
  0
MTEXT
  5
E0
330
70
100
AcDbEntity
  8
Annotations
100
AcDbMText
 10
-101.5861334652718
 20
-2.175470139701358
 30
0.0
 40
0.2
 41
0.0
 46
0.0
 71
     7
 72
     1
  1
\C18;\c0;\FHelvetica LT Std Roman|b0|i0|c1;\H2.124001;\W1.000000;Adhesive backed vinyl or similar. Printed and diecut with added film laminate to protect from 
 73
     1
 44
1.0
  0
MTEXT
  5
E1
330
70
100
AcDbEntity
  8
Annotations
100
AcDbMText
 10
-101.5861334652718
 20
-5.775594921787438
 30
0.0
 40
0.2
 41
0.0
 46
0.0
 71
     7
 72
     1
  1
\C18;\c0;\FHelvetica LT Std Roman|b0|i0|c1;\H2.124001;\W1.000000;scratching. 0.6 mm overall material thickness (substrate + film laminate +adhesive). Decals may 
 73
     1
 44
1.0
  0
MTEXT
  5
E2
330
70
100
AcDbEntity
  8
Annotations
100
AcDbMText
 10
-101.5861334652718
 20
-9.375547449099256
 30
0.0
 40
0.2
 41
0.0
 46
0.0
 71
     7
 72
     1
  1
\C18;\c0;\FHelvetica LT Std Roman|b0|i0|c1;\H2.124001;\W1.000000;be thinner than 0.6mm, however, due to irregularities in the molded plastic case, the decal may 
 73
     1
 44
1.0
  0
MTEXT
  5
E3
330
70
100
AcDbEntity
  8
Annotations
100
AcDbMText
 10
-101.5861334652718
 20
-12.97549997641107
 30
0.0
 40
0.2
 41
0.0
 46
0.0
 71
     7
 72
     1
  1
\C18;\c0;\FHelvetica LT Std Roman|b0|i0|c1;\H2.124001;\W1.000000;not sit totally smooth when applied. Clean surface well before application to remove dirt and 
 73
     1
 44
1.0
  0
MTEXT
  5
E4
330
70
100
AcDbEntity
  8
Annotations
100
AcDbMText
 10
-101.5861334652718
 20
-16.57545250372289
 30
0.0
 40
0.2
 41
0.0
 46
0.0
 71
     7
 72
     1
  1
\C18;\c0;\FHelvetica LT Std Roman|b0|i0|c1;\H2.124001;\W1.000000;adhesive residue from old decal.
 73
     1
 44
1.0
  0
MTEXT
  5
E5
330
70
100
AcDbEntity
  8
Annotations
100
AcDbMText
 10
-101.5861334652718
 20
-26.55581876302793
 30
0.0
 40
0.2
 41
0.0
 46
0.0
 71
     7
 72
     1
  1
\C18;\c0;\FHelvetica LT Std Bold|b1|i0|c1;\H2.831999;\W1.000000;Designers Notes:
 73
     1
 44
1.0
  0
MTEXT
  5
E6
330
70
100
AcDbEntity
  8
Annotations
100
AcDbMText
 10
-101.5861334652718
 20
-33.75572381765156
 30
0.0
 40
0.2
 41
0.0
 46
0.0
 71
     7
 72
     1
  1
\C18;\c0;\FHelvetica LT Std Roman|b0|i0|c1;\H2.124001;\W1.000000;Button hole spacing is annotated in drawing. Button holes are 10mm x 10mm with 1mm radius 
 73
     1
 44
1.0
  0
MTEXT
  5
E7
330
70
100
AcDbEntity
  8
Annotations
100
AcDbMText
 10
-101.5861334652718
 20
-37.35584859973765
 30
0.0
 40
0.2
 41
0.0
 46
0.0
 71
     7
 72
     1
  1
\C18;\c0;\FHelvetica LT Std Roman|b0|i0|c1;\H2.124001;\W1.000000;(7x7 for modded LINE A and RGB). Labels are created using \FHelvetica LT Std Bold|b1|i0|c1;Helvetica Neue LT Com Extend-
 73
     1
 44
1.0
  0
MTEXT
  5
E8
330
70
100
AcDbEntity
  8
Annotations
100
AcDbMText
 10
-101.5861334652718
 20
-40.95580112704946
 30
0.0
 40
0.2
 41
0.0
 46
0.0
 71
     7
 72
     1
  3
\C18;\c0;\FHelvetica LT Std Bold|b1|i0|c1;\H2.124001;\W1.000000;ed\FHelvetica LT Std Roman|b0|i0|c1; \FHelvetica LT Std Bold|b1|i0|c1;53\FHelvetica LT Std Roman|b0|i0|c1; typeface. Print artwork and dieline (toolpath cutline) are separated into indiv
  1
idual layers in 
 73
     1
 44
1.0
  0
MTEXT
  5
E9
330
70
100
AcDbEntity
  8
Annotations
100
AcDbMText
 10
-101.5861334652718
 20
-44.55575365436128
 30
0.0
 40
0.2
 41
0.0
 46
0.0
 71
     7
 72
     1
  1
\C18;\c0;\FHelvetica LT Std Roman|b0|i0|c1;\H2.124001;\W1.000000;this PDF. Verify reference dimensions before cutting.
 73
     1
 44
1.0
  0
MTEXT
  5
EA
330
70
100
AcDbEntity
  8
Annotations
100
AcDbMText
 10
37.91314662409376
 20
5.024434914922276
 30
0.0
 40
0.2
 41
0.0
 46
0.0
 71
     7
 72
     1
  1
\C18;\c0;\FHelvetica LT Std Bold|b1|i0|c1;\H2.831999;\W1.000000;Color Specs:
 73
     1
 44
1.0
  0
INSERT
  5
EC
330
70
100
AcDbEntity
  8
Annotations
100
AcDbBlockReference
  2
Block_11
 10
0.0
 20
0.0
 30
0.0
  0
MTEXT
  5
106
330
70
100
AcDbEntity
  8
Annotations
100
AcDbMText
 10
-103.3883921046867
 20
17.65241088425877
 30
0.0
 40
0.2
 41
0.0
 46
0.0
 71
     7
 72
     1
  1
\C18;\c0;\FHelvetica LT Std Bold|b1|i0|c1;\H2.831999;\W1.000000;Part Name:  PVM-14N_Faceplate_Mod2
 73
     1
 44
1.0
  0
LWPOLYLINE
  5
107
330
70
100
AcDbEntity
  8
Annotations
 62
    18
420
        0
370
    35
100
AcDbPolyline
 90
        4
 70
     1
 43
0.0
 10
112.6849897781492
 20
-53.94447864254512
 10
-106.827039431818
 20
-53.94447864254512
 10
-106.827039431818
 20
24.86429372040371
 10
112.6849897781492
 20
24.86429372040371
  0
LWPOLYLINE
  5
108
330
70
100
AcDbEntity
  8
Annotations
 62
    18
420
        0
370
    35
100
AcDbPolyline
 90
        4
 70
     1
 43
0.0
 10
112.6849897781492
 20
24.86429372040371
 10
-106.827039431818
 20
24.86429372040371
 10
-106.827039431818
 20
12.65038152615554
 10
112.6849897781492
 20
12.65038152615554
  0
MTEXT
  5
109
330
70
100
AcDbEntity
  8
Annotations
100
AcDbMText
 10
-103.3883921046867
 20
-65.69139292452224
 30
0.0
 40
0.2
 41
0.0
 46
0.0
 71
     7
 72
     1
  1
\C18;\c0;\FHelvetica LT Std Bold|b1|i0|c1;\H2.831999;\W1.000000;Dieline/ Print Artwork
 73
     1
 44
1.0
  0
LWPOLYLINE
  5
10A
330
70
100
AcDbEntity
  8
Annotations
 62
    18
420
        0
370
    35
100
AcDbPolyline
 90
        4
 70
     1
 43
0.0
 10
194.0115952624052
 20
-216.7219863509971
 10
-106.827039431818
 20
-216.7219863509971
 10
-106.827039431818
 20
-58.51478804980901
 10
194.0115952624052
 20
-58.51478804980901
  0
LWPOLYLINE
  5
10B
330
70
100
AcDbEntity
  8
Annotations
 62
    18
420
        0
370
    35
100
AcDbPolyline
 90
        4
 70
     1
 43
0.0
 10
194.0115952624052
 20
-58.51478804980901
 10
-106.827039431818
 20
-58.51478804980901
 10
-106.827039431818
 20
-70.72870024405685
 10
194.0115952624052
 20
-70.72870024405685
  0
LWPOLYLINE
  5
10C
330
70
100
AcDbEntity
  8
Annotations
 62
    18
420
        0
370
    35
100
AcDbPolyline
 90
        4
 70
     1
 43
0.0
 10
112.6849897781492
 20
12.65038152615554
 10
32.87306319259757
 20
12.65038152615554
 10
32.87306319259757
 20
-53.94447864254512
 10
112.6849897781492
 20
-53.94447864254512
  0
MTEXT
  5
10D
330
70
100
AcDbEntity
  8
Annotations
100
AcDbMText
 10
167.9592892544782
 20
-147.7299200324441
 30
0.0
 40
0.2
 41
0.0
 46
0.0
 71
     7
 72
     1
  1
\C18;\c0;\FHelvetica LT Std Bold|b1|i0|c1;\H2.124001;\W1.000000;33
 73
     1
 44
1.0
  0
INSERT
  5
10F
330
70
100
AcDbEntity
  8
Annotations
100
AcDbBlockReference
  2
Block_14
 10
0.0
 20
0.0
 30
0.0
  0
INSERT
  5
11F
330
70
100
AcDbEntity
  8
Annotations
100
AcDbBlockReference
  2
Block_17
 10
0.0
 20
0.0
 30
0.0
  0
INSERT
  5
12A
330
70
100
AcDbEntity
  8
Annotations
100
AcDbBlockReference
  2
Block_19
 10
0.0
 20
0.0
 30
0.0
  0
ENDSEC
  0
SECTION
  2
OBJECTS
  0
DICTIONARY
  5
C
330
0
100
AcDbDictionary
281
     1
  3
ACAD_COLOR
350
63
  3
ACAD_DETAILVIEWSTYLE
350
6A
  3
ACAD_GROUP
350
D
  3
ACAD_LAYOUT
350
62
  3
ACAD_MATERIAL
350
10
  3
ACAD_MLEADERSTYLE
350
66
  3
ACAD_MLINESTYLE
350
5F
  3
ACAD_PLOTSETTINGS
350
61
  3
ACAD_PLOTSTYLENAME
350
E
  3
ACAD_SCALELIST
350
42
  3
ACAD_SECTIONVIEWSTYLE
350
68
  3
ACAD_TABLESTYLE
350
64
  3
ACAD_VISUALSTYLE
350
29
  3
ACDB_RECOMPOSE_DATA
350
180
  3
AcDbVariableDictionary
350
178
  0
DICTIONARY
  5
63
102
{ACAD_REACTORS
330
C
102
}
330
C
100
AcDbDictionary
281
     1
  0
DICTIONARY
  5
6A
102
{ACAD_REACTORS
330
C
102
}
330
C
100
AcDbDictionary
281
     1
  3
Imperial24
350
6B
  0
DICTIONARY
  5
D
102
{ACAD_REACTORS
330
C
102
}
330
C
100
AcDbDictionary
281
     1
  0
DICTIONARY
  5
62
102
{ACAD_REACTORS
330
C
102
}
330
C
100
AcDbDictionary
281
     1
  3
Layout1
350
6F
  3
Layout2
350
77
  3
Model
350
73
  0
DICTIONARY
  5
10
102
{ACAD_REACTORS
330
C
102
}
330
C
100
AcDbDictionary
281
     1
  3
ByBlock
350
19
  3
ByLayer
350
11
  3
Global
350
21
  0
DICTIONARY
  5
66
102
{ACAD_REACTORS
330
C
102
}
330
C
100
AcDbDictionary
281
     1
  3
Standard
350
67
  0
DICTIONARY
  5
5F
102
{ACAD_REACTORS
330
C
102
}
330
C
100
AcDbDictionary
281
     1
  3
Standard
350
60
  0
DICTIONARY
  5
61
102
{ACAD_REACTORS
330
C
102
}
330
C
100
AcDbDictionary
281
     1
  0
ACDBDICTIONARYWDFLT
  5
E
102
{ACAD_REACTORS
330
C
102
}
330
C
100
AcDbDictionary
281
     1
  3
Normal
350
F
100
AcDbDictionaryWithDefault
340
F
  0
DICTIONARY
  5
42
102
{ACAD_REACTORS
330
C
102
}
330
C
100
AcDbDictionary
281
     1
  3
A0
350
43
  3
A1
350
44
  3
A2
350
45
  3
A3
350
46
  3
A4
350
47
  3
A5
350
48
  3
A6
350
49
  3
A7
350
4A
  3
A8
350
4B
  3
A9
350
4C
  3
B0
350
4D
  3
B1
350
4E
  3
B2
350
4F
  3
B3
350
50
  3
B4
350
51
  3
B5
350
52
  3
B6
350
53
  0
DICTIONARY
  5
68
102
{ACAD_REACTORS
330
C
102
}
330
C
100
AcDbDictionary
281
     1
  3
Imperial24
350
69
  0
DICTIONARY
  5
64
102
{ACAD_REACTORS
330
C
102
}
330
C
100
AcDbDictionary
281
     1
  3
Standard
350
65
  0
DICTIONARY
  5
29
102
{ACAD_REACTORS
330
C
102
}
330
C
100
AcDbDictionary
281
     1
  3
2dWireframe
350
2F
  3
Basic
350
2E
  3
Brighten
350
35
  3
ColorChange
350
39
  3
Conceptual
350
32
  3
Dim
350
34
  3
EdgeColorOff
350
41
  3
Facepattern
350
38
  3
Flat
350
2A
  3
FlatWithEdges
350
2B
  3
Gouraud
350
2C
  3
GouraudWithEdges
350
2D
  3
Hidden
350
31
  3
JitterOff
350
3F
  3
Linepattern
350
37
  3
OverhangOff
350
40
  3
Realistic
350
33
  3
Shaded
350
3E
  3
Shaded with edges
350
3D
  3
Shades of Gray
350
3A
  3
Sketchy
350
3B
  3
Thicken
350
36
  3
Wireframe
350
30
  3
X-Ray
350
3C
  0
XRECORD
  5
180
102
{ACAD_REACTORS
330
C
102
}
330
C
100
AcDbXrecord
280
     1
 90
        1
330
65
  0
DICTIONARY
  5
178
102
{ACAD_REACTORS
330
C
102
}
330
C
100
AcDbDictionary
281
     1
  3
CANNOSCALE
350
17D
  3
CMLEADERSTYLE
350
17A
  3
CTABLESTYLE
350
179
  3
CVIEWDETAILSTYLE
350
17B
  3
CVIEWSECTIONSTYLE
350
17C
  0
ACDBDETAILVIEWSTYLE
  5
6B
102
{ACAD_REACTORS
330
6A
102
}
330
6A
100
AcDbModelDocViewStyle
 70
     0
  3
Imperial24
290
     1
300
Imperial24
 90
        0
100
AcDbDetailViewStyle
 70
     0
 71
     0
 90
        3
 71
     1
340
55
 62
   256
 40
0.24
340
0
 62
   256
 40
0.24
300

 40
0.36
280
     3
 71
     2
340
5D
 90
       25
 62
   256
 71
     3
340
55
 62
   256
 40
0.24
 90
        1
 40
0.75
 90
        1
300
%<\AcVar ViewType \f "%tc1">% %<\AcVar ViewDetailId>%\PSCALE %<\AcVar ViewScale \f "%sn">%
 71
     4
340
5D
 90
       25
 62
   256
340
5D
 90
       25
 62
   256
280
     0
  0
LAYOUT
  5
6F
102
{ACAD_REACTORS
330
62
102
}
330
62
100
AcDbPlotSettings
  1

  2

  4

  6

 40
0.0
 41
0.0
 42
0.0
 43
0.0
 44
0.0
 45
0.0
 46
0.0
 47
0.0
 48
0.0
 49
0.0
140
0.0
141
0.0
142
1.0
143
1.0
 70
   688
 72
     0
 73
     0
 74
     5
  7

 75
    16
147
1.0
 76
     0
 77
     2
 78
   300
148
0.0
149
0.0
100
AcDbLayout
  1
Layout1
 70
     1
 71
     1
 10
0.0
 20
0.0
 11
12.0
 21
9.0
 12
0.0
 22
0.0
 32
0.0
 14
0.0
 24
0.0
 34
0.0
 15
0.0
 25
0.0
 35
0.0
146
0.0
 13
0.0
 23
0.0
 33
0.0
 16
1.0
 26
0.0
 36
0.0
 17
0.0
 27
1.0
 37
0.0
 76
     0
330
6C
  0
LAYOUT
  5
77
102
{ACAD_REACTORS
330
62
102
}
330
62
100
AcDbPlotSettings
  1

  2

  4

  6

 40
0.0
 41
0.0
 42
0.0
 43
0.0
 44
0.0
 45
0.0
 46
0.0
 47
0.0
 48
0.0
 49
0.0
140
0.0
141
0.0
142
1.0
143
1.0
 70
   688
 72
     0
 73
     0
 74
     5
  7

 75
    16
147
1.0
 76
     0
 77
     2
 78
   300
148
0.0
149
0.0
100
AcDbLayout
  1
Layout2
 70
     1
 71
     2
 10
0.0
 20
0.0
 11
12.0
 21
9.0
 12
0.0
 22
0.0
 32
0.0
 14
0.0
 24
0.0
 34
0.0
 15
0.0
 25
0.0
 35
0.0
146
0.0
 13
0.0
 23
0.0
 33
0.0
 16
1.0
 26
0.0
 36
0.0
 17
0.0
 27
1.0
 37
0.0
 76
     0
330
74
  0
LAYOUT
  5
73
102
{ACAD_REACTORS
330
62
102
}
330
62
100
AcDbPlotSettings
  1

  2

  4

  6

 40
0.0
 41
0.0
 42
0.0
 43
0.0
 44
0.0
 45
0.0
 46
0.0
 47
0.0
 48
0.0
 49
0.0
140
0.0
141
0.0
142
1.0
143
1.0
 70
  1712
 72
     0
 73
     0
 74
     0
  7

 75
     0
147
1.0
 76
     0
 77
     2
 78
   300
148
0.0
149
0.0
100
AcDbLayout
  1
Model
 70
     1
 71
     0
 10
0.0
 20
0.0
 11
12.0
 21
9.0
 12
0.0
 22
0.0
 32
0.0
 14
0.0
 24
0.0
 34
0.0
 15
0.0
 25
0.0
 35
0.0
146
0.0
 13
0.0
 23
0.0
 33
0.0
 16
1.0
 26
0.0
 36
0.0
 17
0.0
 27
1.0
 37
0.0
 76
     0
330
70
  0
MATERIAL
  5
19
102
{ACAD_XDICTIONARY
360
1A
102
}
102
{ACAD_REACTORS
330
10
102
}
330
10
100
AcDbMaterial
  1
ByBlock
 72
     0
 43
0.0208333333333333
 43
0.0
 43
0.0
 43
0.0
 43
0.0
 43
0.0208333333333333
 43
0.0
 43
0.0
 43
0.0
 43
0.0
 43
1.0
 43
0.0
 43
0.0
 43
0.0
 43
0.0
 43
1.0
 77
     0
 47
0.0208333333333333
 47
0.0
 47
0.0
 47
0.0
 47
0.0
 47
0.0208333333333333
 47
0.0
 47
0.0
 47
0.0
 47
0.0
 47
1.0
 47
0.0
 47
0.0
 47
0.0
 47
0.0
 47
1.0
171
     0
 49
0.0208333333333333
 49
0.0
 49
0.0
 49
0.0
 49
0.0
 49
0.0208333333333333
 49
0.0
 49
0.0
 49
0.0
 49
0.0
 49
1.0
 49
0.0
 49
0.0
 49
0.0
 49
0.0
 49
1.0
175
     0
142
0.0208333333333333
142
0.0
142
0.0
142
0.0
142
0.0
142
0.0208333333333333
142
0.0
142
0.0
142
0.0
142
0.0
142
1.0
142
0.0
142
0.0
142
0.0
142
0.0
142
1.0
179
     0
144
0.0208333333333333
144
0.0
144
0.0
144
0.0
144
0.0
144
0.0208333333333333
144
0.0
144
0.0
144
0.0
144
0.0
144
1.0
144
0.0
144
0.0
144
0.0
144
0.0
144
1.0
147
0.0208333333333333
147
0.0
147
0.0
147
0.0
147
0.0
147
0.0208333333333333
147
0.0
147
0.0
147
0.0
147
0.0
147
1.0
147
0.0
147
0.0
147
0.0
147
0.0
147
1.0
  0
MATERIAL
  5
11
102
{ACAD_XDICTIONARY
360
12
102
}
102
{ACAD_REACTORS
330
10
102
}
330
10
100
AcDbMaterial
  1
ByLayer
 72
     0
 43
0.0208333333333333
 43
0.0
 43
0.0
 43
0.0
 43
0.0
 43
0.0208333333333333
 43
0.0
 43
0.0
 43
0.0
 43
0.0
 43
1.0
 43
0.0
 43
0.0
 43
0.0
 43
0.0
 43
1.0
 77
     0
 47
0.0208333333333333
 47
0.0
 47
0.0
 47
0.0
 47
0.0
 47
0.0208333333333333
 47
0.0
 47
0.0
 47
0.0
 47
0.0
 47
1.0
 47
0.0
 47
0.0
 47
0.0
 47
0.0
 47
1.0
171
     0
 49
0.0208333333333333
 49
0.0
 49
0.0
 49
0.0
 49
0.0
 49
0.0208333333333333
 49
0.0
 49
0.0
 49
0.0
 49
0.0
 49
1.0
 49
0.0
 49
0.0
 49
0.0
 49
0.0
 49
1.0
175
     0
142
0.0208333333333333
142
0.0
142
0.0
142
0.0
142
0.0
142
0.0208333333333333
142
0.0
142
0.0
142
0.0
142
0.0
142
1.0
142
0.0
142
0.0
142
0.0
142
0.0
142
1.0
179
     0
144
0.0208333333333333
144
0.0
144
0.0
144
0.0
144
0.0
144
0.0208333333333333
144
0.0
144
0.0
144
0.0
144
0.0
144
1.0
144
0.0
144
0.0
144
0.0
144
0.0
144
1.0
147
0.0208333333333333
147
0.0
147
0.0
147
0.0
147
0.0
147
0.0208333333333333
147
0.0
147
0.0
147
0.0
147
0.0
147
1.0
147
0.0
147
0.0
147
0.0
147
0.0
147
1.0
  0
MATERIAL
  5
21
102
{ACAD_XDICTIONARY
360
22
102
}
102
{ACAD_REACTORS
330
10
102
}
330
10
100
AcDbMaterial
  1
Global
 72
     0
 43
0.0208333333333333
 43
0.0
 43
0.0
 43
0.0
 43
0.0
 43
0.0208333333333333
 43
0.0
 43
0.0
 43
0.0
 43
0.0
 43
1.0
 43
0.0
 43
0.0
 43
0.0
 43
0.0
 43
1.0
 77
     0
 47
0.0208333333333333
 47
0.0
 47
0.0
 47
0.0
 47
0.0
 47
0.0208333333333333
 47
0.0
 47
0.0
 47
0.0
 47
0.0
 47
1.0
 47
0.0
 47
0.0
 47
0.0
 47
0.0
 47
1.0
171
     0
 49
0.0208333333333333
 49
0.0
 49
0.0
 49
0.0
 49
0.0
 49
0.0208333333333333
 49
0.0
 49
0.0
 49
0.0
 49
0.0
 49
1.0
 49
0.0
 49
0.0
 49
0.0
 49
0.0
 49
1.0
175
     0
142
0.0208333333333333
142
0.0
142
0.0
142
0.0
142
0.0
142
0.0208333333333333
142
0.0
142
0.0
142
0.0
142
0.0
142
1.0
142
0.0
142
0.0
142
0.0
142
0.0
142
1.0
179
     0
144
0.0208333333333333
144
0.0
144
0.0
144
0.0
144
0.0
144
0.0208333333333333
144
0.0
144
0.0
144
0.0
144
0.0
144
1.0
144
0.0
144
0.0
144
0.0
144
0.0
144
1.0
147
0.0208333333333333
147
0.0
147
0.0
147
0.0
147
0.0
147
0.0208333333333333
147
0.0
147
0.0
147
0.0
147
0.0
147
1.0
147
0.0
147
0.0
147
0.0
147
0.0
147
1.0
  0
MLEADERSTYLE
  5
67
102
{ACAD_REACTORS
330
66
102
}
330
66
100
AcDbMLeaderStyle
179
     2
170
     2
171
     1
172
     0
 90
        2
 40
0.0
 41
0.0
173
     1
 91
-1056964608
340
5B
 92
       -2
290
     1
 42
0.09
291
     1
 43
0.36
  3
Standard
 44
0.18
300

342
55
174
     1
178
     6
175
     1
176
     0
 93
-1056964608
 45
0.18
292
     0
297
     0
 46
0.18
 94
-1056964608
 47
1.0
 49
1.0
140
1.0
293
     1
141
0.0
294
     1
177
     0
142
1.0
295
     1
296
     0
143
0.125
271
     0
272
     9
273
     9
298
     1
  0
MLINESTYLE
  5
60
102
{ACAD_REACTORS
330
5F
102
}
330
5F
100
AcDbMlineStyle
  2
STANDARD
 70
     0
  3

 62
   256
 51
90.0
 52
90.0
 71
     2
 49
0.5
 62
   256
  6
BYLAYER
 49
-0.5
 62
   256
  6
BYLAYER
  0
ACDBPLACEHOLDER
  5
F
102
{ACAD_REACTORS
330
E
102
}
330
E
  0
SCALE
  5
43
102
{ACAD_REACTORS
330
42
102
}
330
42
100
AcDbScale
 70
     0
300
1:1
140
1.0
141
1.0
290
     1
  0
SCALE
  5
44
102
{ACAD_REACTORS
330
42
102
}
330
42
100
AcDbScale
 70
     0
300
1/128" = 1'-0"
140
0.0078125
141
12.0
290
     0
  0
SCALE
  5
45
102
{ACAD_REACTORS
330
42
102
}
330
42
100
AcDbScale
 70
     0
300
1/64" = 1'-0"
140
0.015625
141
12.0
290
     0
  0
SCALE
  5
46
102
{ACAD_REACTORS
330
42
102
}
330
42
100
AcDbScale
 70
     0
300
1/32" = 1'-0"
140
0.03125
141
12.0
290
     0
  0
SCALE
  5
47
102
{ACAD_REACTORS
330
42
102
}
330
42
100
AcDbScale
 70
     0
300
1/16" = 1'-0"
140
0.0625
141
12.0
290
     0
  0
SCALE
  5
48
102
{ACAD_REACTORS
330
42
102
}
330
42
100
AcDbScale
 70
     0
300
3/32" = 1'-0"
140
0.09375
141
12.0
290
     0
  0
SCALE
  5
49
102
{ACAD_REACTORS
330
42
102
}
330
42
100
AcDbScale
 70
     0
300
1/8" = 1'-0"
140
0.125
141
12.0
290
     0
  0
SCALE
  5
4A
102
{ACAD_REACTORS
330
42
102
}
330
42
100
AcDbScale
 70
     0
300
3/16" = 1'-0"
140
0.1875
141
12.0
290
     0
  0
SCALE
  5
4B
102
{ACAD_REACTORS
330
42
102
}
330
42
100
AcDbScale
 70
     0
300
1/4" = 1'-0"
140
0.25
141
12.0
290
     0
  0
SCALE
  5
4C
102
{ACAD_REACTORS
330
42
102
}
330
42
100
AcDbScale
 70
     0
300
3/8" = 1'-0"
140
0.375
141
12.0
290
     0
  0
SCALE
  5
4D
102
{ACAD_REACTORS
330
42
102
}
330
42
100
AcDbScale
 70
     0
300
1/2" = 1'-0"
140
0.5
141
12.0
290
     0
  0
SCALE
  5
4E
102
{ACAD_REACTORS
330
42
102
}
330
42
100
AcDbScale
 70
     0
300
3/4" = 1'-0"
140
0.75
141
12.0
290
     0
  0
SCALE
  5
4F
102
{ACAD_REACTORS
330
42
102
}
330
42
100
AcDbScale
 70
     0
300
1" = 1'-0"
140
1.0
141
12.0
290
     0
  0
SCALE
  5
50
102
{ACAD_REACTORS
330
42
102
}
330
42
100
AcDbScale
 70
     0
300
1-1/2" = 1'-0"
140
1.5
141
12.0
290
     0
  0
SCALE
  5
51
102
{ACAD_REACTORS
330
42
102
}
330
42
100
AcDbScale
 70
     0
300
3" = 1'-0"
140
3.0
141
12.0
290
     0
  0
SCALE
  5
52
102
{ACAD_REACTORS
330
42
102
}
330
42
100
AcDbScale
 70
     0
300
6" = 1'-0"
140
6.0
141
12.0
290
     0
  0
SCALE
  5
53
102
{ACAD_REACTORS
330
42
102
}
330
42
100
AcDbScale
 70
     0
300
1'-0" = 1'-0"
140
12.0
141
12.0
290
     0
  0
ACDBSECTIONVIEWSTYLE
  5
69
102
{ACAD_REACTORS
330
68
102
}
330
68
100
AcDbModelDocViewStyle
 70
     0
  3
Imperial24
290
     1
300
Imperial24
 90
        0
100
AcDbSectionViewStyle
 70
     0
 71
     0
 90
       78
 71
     1
340
55
 62
   256
 40
0.24
340
0
340
0
 62
   256
 40
0.24
300
I, O, Q, S, X, Z
 40
0.48
 90
        3
 40
0.18
 90
        1
 71
     2
340
5D
 90
       25
 62
   256
340
5D
 90
       50
 62
   256
 40
0.24
 40
0.0
 40
0.24
 71
     3
340
55
 62
   256
 40
0.24
 90
        1
 40
0.75
 90
        1
300
%<\AcVar ViewType \f "%tc1">% %<\AcVar ViewSectionStartId>%-%<\AcVar ViewSectionEndId>%\PSCALE %<\AcVar ViewScale \f "%sn">%
 71
     4
 62
   256
 62
   257
300
ANSI31
 40
1.0
 90
        0
290
     0
290
     0
 90
        6
 40
0.0
 40
1.570796326794896
 40
0.2617993877991494
 40
1.308996938995747
 40
-0.2617993877991494
 40
1.832595714594046
  0
TABLESTYLE
  5
65
102
{ACAD_XDICTIONARY
360
17E
102
}
102
{ACAD_REACTORS
330
64
102
}
330
64
100
AcDbTableStyle
280
     0
  3
Standard
 70
     0
 71
     0
 40
0.06
 41
0.06
280
     0
281
     0
  7
Standard
140
0.18
170
     2
 62
     0
 63
     7
283
     0
 90
      512
 91
        0
  1

274
    -2
284
     1
 64
     0
275
    -2
285
     1
 65
     0
276
    -2
286
     1
 66
     0
277
    -2
287
     1
 67
     0
278
    -2
288
     1
 68
     0
279
    -2
289
     1
 69
     0
  7
Standard
140
0.25
170
     5
 62
     0
 63
     7
283
     0
 90
      512
 91
        0
  1

274
    -2
284
     1
 64
     0
275
    -2
285
     1
 65
     0
276
    -2
286
     1
 66
     0
277
    -2
287
     1
 67
     0
278
    -2
288
     1
 68
     0
279
    -2
289
     1
 69
     0
  7
Standard
140
0.18
170
     5
 62
     0
 63
     7
283
     0
 90
      512
 91
        0
  1

274
    -2
284
     1
 64
     0
275
    -2
285
     1
 65
     0
276
    -2
286
     1
 66
     0
277
    -2
287
     1
 67
     0
278
    -2
288
     1
 68
     0
279
    -2
289
     1
 69
     0
  0
VISUALSTYLE
  5
2F
102
{ACAD_REACTORS
330
29
102
}
330
29
100
AcDbVisualStyle
  2
2dWireframe
 70
     4
177
     3
291
     0
 70
    58
 90
        0
176
     1
 90
        2
176
     1
 90
        0
176
     1
 90
        0
176
     1
 40
0.6
176
     1
 40
30.0
176
     1
 62
     7
420
 16777215
176
     1
 90
        1
176
     1
 90
        4
176
     1
 62
     7
176
     1
 62
   257
176
     1
 90
        1
176
     1
 90
        1
176
     1
 40
1.0
176
     1
 90
        0
176
     1
 62
   257
176
     1
 40
1.0
176
     1
 90
        1
176
     1
 90
        6
176
     1
 90
        2
176
     1
 62
     7
176
     1
 90
        5
176
     1
 90
        0
176
     1
 90
        0
176
     1
290
     0
176
     1
 90
        1
176
     1
 40
0.0
176
     1
 90
        0
176
     1
290
     1
176
     1
290
     1
176
     1
290
     0
176
     1
290
     0
176
     1
290
     0
176
     1
290
     0
176
     1
290
     0
176
     1
290
     0
176
     1
290
     0
176
     1
 90
       50
176
     1
 40
0.0
176
     1
 40
1.0
176
     1
 90
        0
176
     1
 62
    18
420
        0
176
     1
 90
       50
176
     1
 90
        3
176
     1
 62
     5
420
      255
176
     1
290
     0
176
     1
 90
       50
176
     1
 90
       50
176
     1
 90
       50
176
     1
290
     0
176
     1
 90
       50
176
     1
 62
   256
176
     0
 40
1.0
176
     0
 90
        2
176
     1
  1
strokes_ogs.tif
176
     1
290
     0
176
     1
 40
1.0
176
     1
 40
1.0
176
     1
  0
VISUALSTYLE
  5
2E
102
{ACAD_REACTORS
330
29
102
}
330
29
100
AcDbVisualStyle
  2
Basic
 70
     7
177
     3
291
     1
 70
    58
 90
        1
176
     1
 90
        0
176
     1
 90
        1
176
     1
 90
        0
176
     1
 40
0.6
176
     1
 40
30.0
176
     1
 62
     7
420
 16777215
176
     1
 90
        0
176
     1
 90
        4
176
     1
 62
     7
176
     1
 62
   257
176
     1
 90
        1
176
     1
 90
        1
176
     1
 40
1.0
176
     1
 90
        8
176
     1
 62
     7
176
     1
 40
1.0
176
     1
 90
        1
176
     1
 90
        6
176
     1
 90
        2
176
     1
 62
     7
176
     1
 90
        5
176
     1
 90
        0
176
     1
 90
        0
176
     1
290
     0
176
     1
 90
        1
176
     1
 40
0.0
176
     1
 90
        0
176
     1
290
     0
176
     1
290
     1
176
     1
290
     1
176
     1
290
     0
176
     1
290
     0
176
     1
290
     0
176
     1
290
     0
176
     1
290
     0
176
     1
290
     0
176
     1
 90
       50
176
     1
 40
0.0
176
     1
 40
1.0
176
     1
 90
        0
176
     1
 62
    18
420
        0
176
     1
 90
       50
176
     1
 90
        3
176
     1
 62
     5
420
      255
176
     1
290
     0
176
     1
 90
       50
176
     1
 90
       50
176
     1
 90
       50
176
     1
290
     0
176
     1
 90
       50
176
     1
 62
   256
176
     0
 40
1.0
176
     0
 90
        2
176
     1
  1
strokes_ogs.tif
176
     1
290
     0
176
     1
 40
1.0
176
     1
 40
1.0
176
     1
  0
VISUALSTYLE
  5
35
102
{ACAD_REACTORS
330
29
102
}
330
29
100
AcDbVisualStyle
  2
Brighten
 70
    12
177
     3
291
     1
 70
    58
 90
        2
176
     1
 90
        2
176
     1
 90
        0
176
     1
 90
        0
176
     1
 40
0.6
176
     1
 40
30.0
176
     1
 62
     7
420
 16777215
176
     1
 90
        1
176
     1
 90
        4
176
     1
 62
     7
176
     1
 62
   257
176
     1
 90
        1
176
     1
 90
        1
176
     1
 40
1.0
176
     1
 90
        8
176
     1
 62
     7
176
     1
 40
1.0
176
     1
 90
        1
176
     1
 90
        6
176
     1
 90
        2
176
     1
 62
     7
176
     1
 90
        5
176
     1
 90
        0
176
     1
 90
        0
176
     1
290
     0
176
     1
 90
        1
176
     1
 40
50.0
176
     1
 90
        0
176
     1
290
     0
176
     1
290
     1
176
     1
290
     1
176
     1
290
     0
176
     1
290
     0
176
     1
290
     0
176
     1
290
     0
176
     1
290
     0
176
     1
290
     0
176
     1
 90
       50
176
     1
 40
0.0
176
     1
 40
1.0
176
     1
 90
        0
176
     1
 62
    18
420
        0
176
     1
 90
       50
176
     1
 90
        3
176
     1
 62
     5
420
      255
176
     1
290
     0
176
     1
 90
       50
176
     1
 90
       50
176
     1
 90
       50
176
     1
290
     0
176
     1
 90
       50
176
     1
 62
   256
176
     0
 40
1.0
176
     0
 90
        2
176
     1
  1
strokes_ogs.tif
176
     1
290
     0
176
     1
 40
1.0
176
     1
 40
1.0
176
     1
  0
VISUALSTYLE
  5
39
102
{ACAD_REACTORS
330
29
102
}
330
29
100
AcDbVisualStyle
  2
ColorChange
 70
    16
177
     3
291
     1
 70
    58
 90
        2
176
     1
 90
        2
176
     1
 90
        3
176
     1
 90
        0
176
     1
 40
0.6
176
     1
 40
30.0
176
     1
 62
     8
420
  8421504
176
     1
 90
        1
176
     1
 90
        4
176
     1
 62
     7
176
     1
 62
   257
176
     1
 90
        1
176
     1
 90
        1
176
     1
 40
1.0
176
     1
 90
        8
176
     1
 62
     8
420
  8421504
176
     1
 40
1.0
176
     1
 90
        1
176
     1
 90
        6
176
     1
 90
        2
176
     1
 62
     7
176
     1
 90
        5
176
     1
 90
        0
176
     1
 90
        0
176
     1
290
     0
176
     1
 90
        1
176
     1
 40
0.0
176
     1
 90
        0
176
     1
290
     0
176
     1
290
     1
176
     1
290
     1
176
     1
290
     0
176
     1
290
     0
176
     1
290
     0
176
     1
290
     0
176
     1
290
     0
176
     1
290
     0
176
     1
 90
       50
176
     1
 40
0.0
176
     1
 40
1.0
176
     1
 90
        0
176
     1
 62
    18
420
        0
176
     1
 90
       50
176
     1
 90
        3
176
     1
 62
     5
420
      255
176
     1
290
     0
176
     1
 90
       50
176
     1
 90
       50
176
     1
 90
       50
176
     1
290
     0
176
     1
 90
       50
176
     1
 62
   256
176
     0
 40
1.0
176
     0
 90
        2
176
     1
  1
strokes_ogs.tif
176
     1
290
     0
176
     1
 40
1.0
176
     1
 40
1.0
176
     1
  0
VISUALSTYLE
  5
32
102
{ACAD_REACTORS
330
29
102
}
330
29
100
AcDbVisualStyle
  2
Conceptual
 70
     9
177
     3
291
     0
 70
    58
 90
        3
176
     1
 90
        2
176
     1
 90
        0
176
     1
 90
        0
176
     1
 40
0.6
176
     1
 40
30.0
176
     1
 62
     7
420
 16777215
176
     1
 90
        2
176
     1
 90
        2
176
     1
 62
     7
176
     1
 62
   257
176
     1
 90
        1
176
     1
 90
        1
176
     1
 40
179.0
176
     1
 90
        8
176
     1
 62
     7
176
     1
 40
1.0
176
     1
 90
        1
176
     1
 90
        6
176
     1
 90
        2
176
     1
 62
     7
176
     1
 90
        3
176
     1
 90
        0
176
     1
 90
        0
176
     1
290
     0
176
     1
 90
        1
176
     1
 40
0.0
176
     1
 90
        0
176
     1
290
     0
176
     1
290
     1
176
     1
290
     1
176
     1
290
     0
176
     1
290
     0
176
     1
290
     0
176
     1
290
     0
176
     1
290
     0
176
     1
290
     0
176
     1
 90
       50
176
     1
 40
0.0
176
     1
 40
1.0
176
     1
 90
        0
176
     1
 62
    18
420
        0
176
     1
 90
       50
176
     1
 90
        3
176
     1
 62
     5
420
      255
176
     1
290
     0
176
     1
 90
       50
176
     1
 90
       50
176
     1
 90
       50
176
     1
290
     0
176
     1
 90
       50
176
     1
 62
   256
176
     0
 40
1.0
176
     0
 90
        2
176
     1
  1
strokes_ogs.tif
176
     1
290
     0
176
     1
 40
1.0
176
     1
 40
1.0
176
     1
  0
VISUALSTYLE
  5
34
102
{ACAD_REACTORS
330
29
102
}
330
29
100
AcDbVisualStyle
  2
Dim
 70
    11
177
     3
291
     1
 70
    58
 90
        2
176
     1
 90
        2
176
     1
 90
        0
176
     1
 90
        0
176
     1
 40
0.6
176
     1
 40
30.0
176
     1
 62
     7
420
 16777215
176
     1
 90
        1
176
     1
 90
        4
176
     1
 62
     7
176
     1
 62
   257
176
     1
 90
        1
176
     1
 90
        1
176
     1
 40
1.0
176
     1
 90
        8
176
     1
 62
     7
176
     1
 40
1.0
176
     1
 90
        1
176
     1
 90
        6
176
     1
 90
        2
176
     1
 62
     7
176
     1
 90
        5
176
     1
 90
        0
176
     1
 90
        0
176
     1
290
     0
176
     1
 90
        1
176
     1
 40
-50.0
176
     1
 90
        0
176
     1
290
     0
176
     1
290
     1
176
     1
290
     1
176
     1
290
     0
176
     1
290
     0
176
     1
290
     0
176
     1
290
     0
176
     1
290
     0
176
     1
290
     0
176
     1
 90
       50
176
     1
 40
0.0
176
     1
 40
1.0
176
     1
 90
        0
176
     1
 62
    18
420
        0
176
     1
 90
       50
176
     1
 90
        3
176
     1
 62
     5
420
      255
176
     1
290
     0
176
     1
 90
       50
176
     1
 90
       50
176
     1
 90
       50
176
     1
290
     0
176
     1
 90
       50
176
     1
 62
   256
176
     0
 40
1.0
176
     0
 90
        2
176
     1
  1
strokes_ogs.tif
176
     1
290
     0
176
     1
 40
1.0
176
     1
 40
1.0
176
     1
  0
VISUALSTYLE
  5
41
102
{ACAD_REACTORS
330
29
102
}
330
29
100
AcDbVisualStyle
  2
EdgeColorOff
 70
    22
177
     3
291
     1
 70
    58
 90
        2
176
     0
 90
        2
176
     0
 90
        0
176
     0
 90
        0
176
     0
 40
0.6
176
     0
 40
30.0
176
     0
 62
     7
420
 16777215
176
     0
 90
        1
176
     0
 90
        4
176
     0
 62
     7
176
     0
 62
   257
176
     0
 90
        1
176
     0
 90
        1
176
     0
 40
1.0
176
     0
 90
        8
176
     2
 62
     7
176
     0
 40
1.0
176
     0
 90
        1
176
     0
 90
        6
176
     0
 90
        2
176
     0
 62
     7
176
     0
 90
        5
176
     0
 90
        0
176
     0
 90
        0
176
     0
290
     0
176
     0
 90
        1
176
     0
 40
0.0
176
     0
 90
        0
176
     0
290
     0
176
     0
290
     1
176
     0
290
     1
176
     0
290
     0
176
     0
290
     0
176
     0
290
     0
176
     0
290
     0
176
     0
290
     0
176
     0
290
     0
176
     0
 90
       50
176
     0
 40
0.0
176
     0
 40
1.0
176
     0
 90
        0
176
     0
 62
    18
420
        0
176
     0
 90
       50
176
     0
 90
        3
176
     0
 62
     5
420
      255
176
     0
290
     0
176
     0
 90
       50
176
     0
 90
       50
176
     0
 90
       50
176
     0
290
     0
176
     0
 90
       50
176
     0
 62
   256
176
     0
 40
1.0
176
     0
 90
        2
176
     0
  1
strokes_ogs.tif
176
     0
290
     0
176
     0
 40
1.0
176
     0
 40
1.0
176
     0
  0
VISUALSTYLE
  5
38
102
{ACAD_REACTORS
330
29
102
}
330
29
100
AcDbVisualStyle
  2
Facepattern
 70
    15
177
     3
291
     1
 70
    58
 90
        2
176
     1
 90
        2
176
     1
 90
        0
176
     1
 90
        0
176
     1
 40
0.6
176
     1
 40
30.0
176
     1
 62
     7
420
 16777215
176
     1
 90
        1
176
     1
 90
        4
176
     1
 62
     7
176
     1
 62
   257
176
     1
 90
        1
176
     1
 90
        1
176
     1
 40
1.0
176
     1
 90
        8
176
     1
 62
     7
176
     1
 40
1.0
176
     1
 90
        1
176
     1
 90
        6
176
     1
 90
        2
176
     1
 62
     7
176
     1
 90
        5
176
     1
 90
        0
176
     1
 90
        0
176
     1
290
     0
176
     1
 90
        1
176
     1
 40
0.0
176
     1
 90
        0
176
     1
290
     0
176
     1
290
     1
176
     1
290
     1
176
     1
290
     0
176
     1
290
     0
176
     1
290
     0
176
     1
290
     0
176
     1
290
     0
176
     1
290
     0
176
     1
 90
       50
176
     1
 40
0.0
176
     1
 40
1.0
176
     1
 90
        0
176
     1
 62
    18
420
        0
176
     1
 90
       50
176
     1
 90
        3
176
     1
 62
     5
420
      255
176
     1
290
     0
176
     1
 90
       50
176
     1
 90
       50
176
     1
 90
       50
176
     1
290
     0
176
     1
 90
       50
176
     1
 62
   256
176
     0
 40
1.0
176
     0
 90
        2
176
     1
  1
strokes_ogs.tif
176
     1
290
     0
176
     1
 40
1.0
176
     1
 40
1.0
176
     1
  0
VISUALSTYLE
  5
2A
102
{ACAD_REACTORS
330
29
102
}
330
29
100
AcDbVisualStyle
  2
Flat
 70
     0
177
     3
291
     1
 70
    58
 90
        2
176
     1
 90
        1
176
     1
 90
        1
176
     1
 90
        2
176
     1
 40
0.6
176
     1
 40
30.0
176
     1
 62
     7
420
 16777215
176
     1
 90
        0
176
     1
 90
        0
176
     1
 62
     7
176
     1
 62
   257
176
     1
 90
        1
176
     1
 90
        1
176
     1
 40
1.0
176
     1
 90
        8
176
     1
 62
     7
176
     1
 40
1.0
176
     1
 90
        1
176
     1
 90
        6
176
     1
 90
        2
176
     1
 62
     7
176
     1
 90
        5
176
     1
 90
        0
176
     1
 90
        0
176
     1
290
     0
176
     1
 90
       13
176
     1
 40
0.0
176
     1
 90
        0
176
     1
290
     0
176
     1
290
     1
176
     1
290
     1
176
     1
290
     0
176
     1
290
     0
176
     1
290
     0
176
     1
290
     0
176
     1
290
     0
176
     1
290
     0
176
     1
 90
       50
176
     1
 40
0.0
176
     1
 40
1.0
176
     1
 90
        0
176
     1
 62
    18
420
        0
176
     1
 90
       50
176
     1
 90
        3
176
     1
 62
     5
420
      255
176
     1
290
     0
176
     1
 90
       50
176
     1
 90
       50
176
     1
 90
       50
176
     1
290
     0
176
     1
 90
       50
176
     1
 62
   256
176
     0
 40
1.0
176
     0
 90
        2
176
     1
  1
strokes_ogs.tif
176
     1
290
     0
176
     1
 40
1.0
176
     1
 40
1.0
176
     1
  0
VISUALSTYLE
  5
2B
102
{ACAD_REACTORS
330
29
102
}
330
29
100
AcDbVisualStyle
  2
FlatWithEdges
 70
     1
177
     3
291
     1
 70
    58
 90
        2
176
     1
 90
        1
176
     1
 90
        1
176
     1
 90
        2
176
     1
 40
0.6
176
     1
 40
30.0
176
     1
 62
     7
420
 16777215
176
     1
 90
        1
176
     1
 90
        0
176
     1
 62
     7
176
     1
 62
   257
176
     1
 90
        1
176
     1
 90
        1
176
     1
 40
1.0
176
     1
 90
        0
176
     1
 62
   257
176
     1
 40
1.0
176
     1
 90
        1
176
     1
 90
        6
176
     1
 90
        2
176
     1
 62
     7
176
     1
 90
        5
176
     1
 90
        0
176
     1
 90
        0
176
     1
290
     0
176
     1
 90
       13
176
     1
 40
0.0
176
     1
 90
        0
176
     1
290
     0
176
     1
290
     1
176
     1
290
     1
176
     1
290
     0
176
     1
290
     0
176
     1
290
     0
176
     1
290
     0
176
     1
290
     0
176
     1
290
     0
176
     1
 90
       50
176
     1
 40
0.0
176
     1
 40
1.0
176
     1
 90
        0
176
     1
 62
    18
420
        0
176
     1
 90
       50
176
     1
 90
        3
176
     1
 62
     5
420
      255
176
     1
290
     0
176
     1
 90
       50
176
     1
 90
       50
176
     1
 90
       50
176
     1
290
     0
176
     1
 90
       50
176
     1
 62
   256
176
     0
 40
1.0
176
     0
 90
        2
176
     1
  1
strokes_ogs.tif
176
     1
290
     0
176
     1
 40
1.0
176
     1
 40
1.0
176
     1
  0
VISUALSTYLE
  5
2C
102
{ACAD_REACTORS
330
29
102
}
330
29
100
AcDbVisualStyle
  2
Gouraud
 70
     2
177
     3
291
     1
 70
    58
 90
        2
176
     1
 90
        2
176
     1
 90
        1
176
     1
 90
        2
176
     1
 40
0.6
176
     1
 40
30.0
176
     1
 62
     7
420
 16777215
176
     1
 90
        0
176
     1
 90
        0
176
     1
 62
     7
176
     1
 62
   257
176
     1
 90
        1
176
     1
 90
        1
176
     1
 40
1.0
176
     1
 90
        0
176
     1
 62
     7
176
     1
 40
1.0
176
     1
 90
        1
176
     1
 90
        6
176
     1
 90
        2
176
     1
 62
     7
176
     1
 90
        5
176
     1
 90
        0
176
     1
 90
        0
176
     1
290
     0
176
     1
 90
       13
176
     1
 40
0.0
176
     1
 90
        0
176
     1
290
     0
176
     1
290
     1
176
     1
290
     1
176
     1
290
     0
176
     1
290
     0
176
     1
290
     0
176
     1
290
     0
176
     1
290
     0
176
     1
290
     0
176
     1
 90
       50
176
     1
 40
0.0
176
     1
 40
1.0
176
     1
 90
        0
176
     1
 62
    18
420
        0
176
     1
 90
       50
176
     1
 90
        3
176
     1
 62
     5
420
      255
176
     1
290
     0
176
     1
 90
       50
176
     1
 90
       50
176
     1
 90
       50
176
     1
290
     0
176
     1
 90
       50
176
     1
 62
   256
176
     0
 40
1.0
176
     0
 90
        2
176
     1
  1
strokes_ogs.tif
176
     1
290
     0
176
     1
 40
1.0
176
     1
 40
1.0
176
     1
  0
VISUALSTYLE
  5
2D
102
{ACAD_REACTORS
330
29
102
}
330
29
100
AcDbVisualStyle
  2
GouraudWithEdges
 70
     3
177
     3
291
     1
 70
    58
 90
        2
176
     1
 90
        2
176
     1
 90
        1
176
     1
 90
        2
176
     1
 40
0.6
176
     1
 40
30.0
176
     1
 62
     7
420
 16777215
176
     1
 90
        1
176
     1
 90
        0
176
     1
 62
     7
176
     1
 62
   257
176
     1
 90
        1
176
     1
 90
        1
176
     1
 40
1.0
176
     1
 90
        0
176
     1
 62
   257
176
     1
 40
1.0
176
     1
 90
        1
176
     1
 90
        6
176
     1
 90
        2
176
     1
 62
     7
176
     1
 90
        5
176
     1
 90
        0
176
     1
 90
        0
176
     1
290
     0
176
     1
 90
       13
176
     1
 40
0.0
176
     1
 90
        0
176
     1
290
     0
176
     1
290
     1
176
     1
290
     1
176
     1
290
     0
176
     1
290
     0
176
     1
290
     0
176
     1
290
     0
176
     1
290
     0
176
     1
290
     0
176
     1
 90
       50
176
     1
 40
0.0
176
     1
 40
1.0
176
     1
 90
        0
176
     1
 62
    18
420
        0
176
     1
 90
       50
176
     1
 90
        3
176
     1
 62
     5
420
      255
176
     1
290
     0
176
     1
 90
       50
176
     1
 90
       50
176
     1
 90
       50
176
     1
290
     0
176
     1
 90
       50
176
     1
 62
   256
176
     0
 40
1.0
176
     0
 90
        2
176
     1
  1
strokes_ogs.tif
176
     1
290
     0
176
     1
 40
1.0
176
     1
 40
1.0
176
     1
  0
VISUALSTYLE
  5
31
102
{ACAD_REACTORS
330
29
102
}
330
29
100
AcDbVisualStyle
  2
Hidden
 70
     6
177
     3
291
     0
 70
    58
 90
        1
176
     1
 90
        2
176
     1
 90
        2
176
     1
 90
        0
176
     1
 40
0.6
176
     1
 40
30.0
176
     1
 62
     7
420
 16777215
176
     1
 90
        2
176
     1
 90
        2
176
     1
 62
     7
176
     1
 62
   257
176
     1
 90
        2
176
     1
 90
        1
176
     1
 40
40.0
176
     1
 90
        0
176
     1
 62
   257
176
     1
 40
1.0
176
     1
 90
        1
176
     1
 90
        6
176
     1
 90
        2
176
     1
 62
     7
176
     1
 90
        3
176
     1
 90
        0
176
     1
 90
        0
176
     1
290
     0
176
     1
 90
        1
176
     1
 40
0.0
176
     1
 90
        0
176
     1
290
     0
176
     1
290
     1
176
     1
290
     1
176
     1
290
     0
176
     1
290
     0
176
     1
290
     0
176
     1
290
     0
176
     1
290
     0
176
     1
290
     0
176
     1
 90
       50
176
     1
 40
0.0
176
     1
 40
1.0
176
     1
 90
        0
176
     1
 62
    18
420
        0
176
     1
 90
       50
176
     1
 90
        3
176
     1
 62
     5
420
      255
176
     1
290
     0
176
     1
 90
       50
176
     1
 90
       50
176
     1
 90
       50
176
     1
290
     0
176
     1
 90
       50
176
     1
 62
   256
176
     0
 40
1.0
176
     0
 90
        2
176
     1
  1
strokes_ogs.tif
176
     1
290
     0
176
     1
 40
1.0
176
     1
 40
1.0
176
     1
  0
VISUALSTYLE
  5
3F
102
{ACAD_REACTORS
330
29
102
}
330
29
100
AcDbVisualStyle
  2
JitterOff
 70
    20
177
     3
291
     1
 70
    58
 90
        2
176
     0
 90
        2
176
     0
 90
        0
176
     0
 90
        0
176
     0
 40
0.6
176
     0
 40
30.0
176
     0
 62
     7
420
 16777215
176
     0
 90
        1
176
     0
 90
        4
176
     0
 62
     7
176
     0
 62
   257
176
     0
 90
        1
176
     0
 90
        1
176
     0
 40
1.0
176
     0
 90
       10
176
     2
 62
     7
176
     0
 40
1.0
176
     0
 90
        1
176
     0
 90
        6
176
     0
 90
        2
176
     0
 62
     7
176
     0
 90
        5
176
     0
 90
        0
176
     0
 90
        0
176
     0
290
     0
176
     0
 90
        1
176
     0
 40
0.0
176
     0
 90
        0
176
     0
290
     0
176
     0
290
     1
176
     0
290
     1
176
     0
290
     0
176
     0
290
     0
176
     0
290
     0
176
     0
290
     0
176
     0
290
     0
176
     0
290
     0
176
     0
 90
       50
176
     0
 40
0.0
176
     0
 40
1.0
176
     0
 90
        0
176
     0
 62
    18
420
        0
176
     0
 90
       50
176
     0
 90
        3
176
     0
 62
     5
420
      255
176
     0
290
     0
176
     0
 90
       50
176
     0
 90
       50
176
     0
 90
       50
176
     0
290
     0
176
     0
 90
       50
176
     0
 62
   256
176
     0
 40
1.0
176
     0
 90
        2
176
     0
  1
strokes_ogs.tif
176
     0
290
     0
176
     0
 40
1.0
176
     0
 40
1.0
176
     0
  0
VISUALSTYLE
  5
37
102
{ACAD_REACTORS
330
29
102
}
330
29
100
AcDbVisualStyle
  2
Linepattern
 70
    14
177
     3
291
     1
 70
    58
 90
        2
176
     1
 90
        2
176
     1
 90
        0
176
     1
 90
        0
176
     1
 40
0.6
176
     1
 40
30.0
176
     1
 62
     7
420
 16777215
176
     1
 90
        1
176
     1
 90
        4
176
     1
 62
     7
176
     1
 62
   257
176
     1
 90
        7
176
     1
 90
        7
176
     1
 40
1.0
176
     1
 90
        8
176
     1
 62
     7
176
     1
 40
1.0
176
     1
 90
        1
176
     1
 90
        6
176
     1
 90
        2
176
     1
 62
     7
176
     1
 90
        5
176
     1
 90
        0
176
     1
 90
        0
176
     1
290
     0
176
     1
 90
        1
176
     1
 40
0.0
176
     1
 90
        0
176
     1
290
     0
176
     1
290
     1
176
     1
290
     1
176
     1
290
     0
176
     1
290
     0
176
     1
290
     0
176
     1
290
     0
176
     1
290
     0
176
     1
290
     0
176
     1
 90
       50
176
     1
 40
0.0
176
     1
 40
1.0
176
     1
 90
        0
176
     1
 62
    18
420
        0
176
     1
 90
       50
176
     1
 90
        3
176
     1
 62
     5
420
      255
176
     1
290
     0
176
     1
 90
       50
176
     1
 90
       50
176
     1
 90
       50
176
     1
290
     0
176
     1
 90
       50
176
     1
 62
   256
176
     0
 40
1.0
176
     0
 90
        2
176
     1
  1
strokes_ogs.tif
176
     1
290
     0
176
     1
 40
1.0
176
     1
 40
1.0
176
     1
  0
VISUALSTYLE
  5
40
102
{ACAD_REACTORS
330
29
102
}
330
29
100
AcDbVisualStyle
  2
OverhangOff
 70
    21
177
     3
291
     1
 70
    58
 90
        2
176
     0
 90
        2
176
     0
 90
        0
176
     0
 90
        0
176
     0
 40
0.6
176
     0
 40
30.0
176
     0
 62
     7
420
 16777215
176
     0
 90
        1
176
     0
 90
        4
176
     0
 62
     7
176
     0
 62
   257
176
     0
 90
        1
176
     0
 90
        1
176
     0
 40
1.0
176
     0
 90
        9
176
     2
 62
     7
176
     0
 40
1.0
176
     0
 90
        1
176
     0
 90
        6
176
     0
 90
        2
176
     0
 62
     7
176
     0
 90
        5
176
     0
 90
        0
176
     0
 90
        0
176
     0
290
     0
176
     0
 90
        1
176
     0
 40
0.0
176
     0
 90
        0
176
     0
290
     0
176
     0
290
     1
176
     0
290
     1
176
     0
290
     0
176
     0
290
     0
176
     0
290
     0
176
     0
290
     0
176
     0
290
     0
176
     0
290
     0
176
     0
 90
       50
176
     0
 40
0.0
176
     0
 40
1.0
176
     0
 90
        0
176
     0
 62
    18
420
        0
176
     0
 90
       50
176
     0
 90
        3
176
     0
 62
     5
420
      255
176
     0
290
     0
176
     0
 90
       50
176
     0
 90
       50
176
     0
 90
       50
176
     0
290
     0
176
     0
 90
       50
176
     0
 62
   256
176
     0
 40
1.0
176
     0
 90
        2
176
     0
  1
strokes_ogs.tif
176
     0
290
     0
176
     0
 40
1.0
176
     0
 40
1.0
176
     0
  0
VISUALSTYLE
  5
33
102
{ACAD_REACTORS
330
29
102
}
330
29
100
AcDbVisualStyle
  2
Realistic
 70
     8
177
     3
291
     0
 70
    58
 90
        2
176
     1
 90
        3
176
     1
 90
        0
176
     1
 90
        2
176
     1
 40
0.6
176
     1
 40
30.0
176
     1
 62
     7
420
 16777215
176
     1
 90
        0
176
     1
 90
        0
176
     1
 62
     7
176
     1
 62
   257
176
     1
 90
        1
176
     1
 90
        1
176
     1
 40
1.0
176
     1
 90
        8
176
     1
 62
   257
176
     1
 40
1.0
176
     1
 90
        1
176
     1
 90
        6
176
     1
 90
        2
176
     1
 62
     7
176
     1
 90
        3
176
     1
 90
        0
176
     1
 90
        0
176
     1
290
     0
176
     1
 90
       13
176
     1
 40
0.0
176
     1
 90
        0
176
     1
290
     0
176
     1
290
     1
176
     1
290
     1
176
     1
290
     0
176
     1
290
     0
176
     1
290
     0
176
     1
290
     0
176
     1
290
     0
176
     1
290
     0
176
     1
 90
       50
176
     1
 40
0.0
176
     1
 40
1.0
176
     1
 90
        0
176
     1
 62
    18
420
        0
176
     1
 90
       50
176
     1
 90
        3
176
     1
 62
     5
420
      255
176
     1
290
     0
176
     1
 90
       50
176
     1
 90
       50
176
     1
 90
       50
176
     1
290
     0
176
     1
 90
       50
176
     1
 62
   256
176
     0
 40
1.0
176
     0
 90
        2
176
     1
  1
strokes_ogs.tif
176
     1
290
     0
176
     1
 40
1.0
176
     1
 40
1.0
176
     1
  0
VISUALSTYLE
  5
3E
102
{ACAD_REACTORS
330
29
102
}
330
29
100
AcDbVisualStyle
  2
Shaded
 70
    27
177
     3
291
     0
 70
    58
 90
        2
176
     1
 90
        2
176
     1
 90
        1
176
     1
 90
        2
176
     1
 40
0.6
176
     1
 40
30.0
176
     1
 62
     7
420
 16777215
176
     1
 90
        0
176
     1
 90
        4
176
     1
 62
     7
176
     1
 62
   257
176
     1
 90
        1
176
     1
 90
        1
176
     1
 40
1.0
176
     1
 90
        8
176
     1
 62
   257
176
     1
 40
1.0
176
     1
 90
        1
176
     1
 90
        6
176
     1
 90
        2
176
     1
 62
     8
420
  7895160
176
     1
 90
        3
176
     1
 90
        0
176
     1
 90
        0
176
     1
290
     0
176
     1
 90
        5
176
     1
 40
0.0
176
     1
 90
        0
176
     1
290
     0
176
     1
290
     1
176
     1
290
     1
176
     1
290
     0
176
     1
290
     0
176
     1
290
     0
176
     1
290
     0
176
     1
290
     0
176
     1
290
     0
176
     1
 90
       50
176
     1
 40
0.0
176
     1
 40
1.0
176
     1
 90
        0
176
     1
 62
    18
420
        0
176
     1
 90
       50
176
     1
 90
        3
176
     1
 62
     5
420
      255
176
     1
290
     0
176
     1
 90
       50
176
     1
 90
       50
176
     1
 90
       50
176
     1
290
     0
176
     1
 90
       50
176
     1
 62
   256
176
     0
 40
1.0
176
     0
 90
        2
176
     1
  1
strokes_ogs.tif
176
     1
290
     0
176
     1
 40
1.0
176
     1
 40
1.0
176
     1
  0
VISUALSTYLE
  5
3D
102
{ACAD_REACTORS
330
29
102
}
330
29
100
AcDbVisualStyle
  2
Shaded with edges
 70
    26
177
     3
291
     0
 70
    58
 90
        2
176
     1
 90
        2
176
     1
 90
        1
176
     1
 90
        2
176
     1
 40
0.6
176
     1
 40
30.0
176
     1
 62
     7
420
 16777215
176
     1
 90
        1
176
     1
 90
        2
176
     1
 62
     7
176
     1
 62
   257
176
     1
 90
        2
176
     1
 90
        1
176
     1
 40
1.0
176
     1
 90
        8
176
     1
 62
   257
176
     1
 40
1.0
176
     1
 90
        1
176
     1
 90
        6
176
     1
 90
        2
176
     1
 62
     7
176
     1
 90
        3
176
     1
 90
        0
176
     1
 90
        0
176
     1
290
     0
176
     1
 90
        5
176
     1
 40
0.0
176
     1
 90
        0
176
     1
290
     0
176
     1
290
     1
176
     1
290
     1
176
     1
290
     0
176
     1
290
     0
176
     1
290
     0
176
     1
290
     0
176
     1
290
     0
176
     1
290
     0
176
     1
 90
       50
176
     1
 40
0.0
176
     1
 40
1.0
176
     1
 90
        0
176
     1
 62
    18
420
        0
176
     1
 90
       50
176
     1
 90
        3
176
     1
 62
     5
420
      255
176
     1
290
     0
176
     1
 90
       50
176
     1
 90
       50
176
     1
 90
       50
176
     1
290
     0
176
     1
 90
       50
176
     1
 62
   256
176
     0
 40
1.0
176
     0
 90
        2
176
     1
  1
strokes_ogs.tif
176
     1
290
     0
176
     1
 40
1.0
176
     1
 40
1.0
176
     1
  0
VISUALSTYLE
  5
3A
102
{ACAD_REACTORS
330
29
102
}
330
29
100
AcDbVisualStyle
  2
Shades of Gray
 70
    23
177
     3
291
     0
 70
    58
 90
        2
176
     1
 90
        2
176
     1
 90
        3
176
     1
 90
        0
176
     1
 40
0.6
176
     1
 40
30.0
176
     1
 62
     7
420
 16777215
176
     1
 90
        2
176
     1
 90
        2
176
     1
 62
     7
176
     1
 62
     7
176
     1
 90
        1
176
     1
 90
        1
176
     1
 40
40.0
176
     1
 90
        8
176
     1
 62
     7
176
     1
 40
1.0
176
     1
 90
        1
176
     1
 90
        6
176
     1
 90
        2
176
     1
 62
     7
176
     1
 90
        3
176
     1
 90
        0
176
     1
 90
        0
176
     1
290
     0
176
     1
 90
        1
176
     1
 40
0.0
176
     1
 90
        0
176
     1
290
     0
176
     1
290
     1
176
     1
290
     1
176
     1
290
     0
176
     1
290
     0
176
     1
290
     0
176
     1
290
     0
176
     1
290
     0
176
     1
290
     0
176
     1
 90
       50
176
     1
 40
0.0
176
     1
 40
1.0
176
     1
 90
        0
176
     1
 62
    18
420
        0
176
     1
 90
       50
176
     1
 90
        3
176
     1
 62
     5
420
      255
176
     1
290
     0
176
     1
 90
       50
176
     1
 90
       50
176
     1
 90
       50
176
     1
290
     0
176
     1
 90
       50
176
     1
 62
   256
176
     0
 40
1.0
176
     0
 90
        2
176
     1
  1
strokes_ogs.tif
176
     1
290
     0
176
     1
 40
1.0
176
     1
 40
1.0
176
     1
  0
VISUALSTYLE
  5
3B
102
{ACAD_REACTORS
330
29
102
}
330
29
100
AcDbVisualStyle
  2
Sketchy
 70
    24
177
     3
291
     0
 70
    58
 90
        1
176
     1
 90
        2
176
     1
 90
        2
176
     1
 90
        0
176
     1
 40
0.6
176
     1
 40
30.0
176
     1
 62
     7
420
 16777215
176
     1
 90
        2
176
     1
 90
        2
176
     1
 62
     7
176
     1
 62
     7
176
     1
 90
        1
176
     1
 90
        1
176
     1
 40
40.0
176
     1
 90
       11
176
     1
 62
     7
176
     1
 40
1.0
176
     1
 90
        1
176
     1
 90
        6
176
     1
 90
        2
176
     1
 62
     7
176
     1
 90
        6
176
     1
 90
        0
176
     1
 90
        0
176
     1
290
     0
176
     1
 90
        1
176
     1
 40
0.0
176
     1
 90
        0
176
     1
290
     0
176
     1
290
     1
176
     1
290
     1
176
     1
290
     0
176
     1
290
     0
176
     1
290
     0
176
     1
290
     0
176
     1
290
     0
176
     1
290
     0
176
     1
 90
       50
176
     1
 40
0.0
176
     1
 40
1.0
176
     1
 90
        0
176
     1
 62
    18
420
        0
176
     1
 90
       50
176
     1
 90
        3
176
     1
 62
     5
420
      255
176
     1
290
     0
176
     1
 90
       50
176
     1
 90
       50
176
     1
 90
       50
176
     1
290
     0
176
     1
 90
       50
176
     1
 62
   256
176
     0
 40
1.0
176
     0
 90
        2
176
     1
  1
strokes_ogs.tif
176
     1
290
     0
176
     1
 40
1.0
176
     1
 40
1.0
176
     1
  0
VISUALSTYLE
  5
36
102
{ACAD_REACTORS
330
29
102
}
330
29
100
AcDbVisualStyle
  2
Thicken
 70
    13
177
     3
291
     1
 70
    58
 90
        2
176
     1
 90
        2
176
     1
 90
        0
176
     1
 90
        0
176
     1
 40
0.6
176
     1
 40
30.0
176
     1
 62
     7
420
 16777215
176
     1
 90
        1
176
     1
 90
        4
176
     1
 62
     7
176
     1
 62
   257
176
     1
 90
        1
176
     1
 90
        1
176
     1
 40
1.0
176
     1
 90
       12
176
     1
 62
     7
176
     1
 40
1.0
176
     1
 90
        1
176
     1
 90
        6
176
     1
 90
        2
176
     1
 62
     7
176
     1
 90
        5
176
     1
 90
        0
176
     1
 90
        0
176
     1
290
     0
176
     1
 90
        1
176
     1
 40
0.0
176
     1
 90
        0
176
     1
290
     0
176
     1
290
     1
176
     1
290
     1
176
     1
290
     0
176
     1
290
     0
176
     1
290
     0
176
     1
290
     0
176
     1
290
     0
176
     1
290
     0
176
     1
 90
       50
176
     1
 40
0.0
176
     1
 40
1.0
176
     1
 90
        0
176
     1
 62
    18
420
        0
176
     1
 90
       50
176
     1
 90
        3
176
     1
 62
     5
420
      255
176
     1
290
     0
176
     1
 90
       50
176
     1
 90
       50
176
     1
 90
       50
176
     1
290
     0
176
     1
 90
       50
176
     1
 62
   256
176
     0
 40
1.0
176
     0
 90
        2
176
     1
  1
strokes_ogs.tif
176
     1
290
     0
176
     1
 40
1.0
176
     1
 40
1.0
176
     1
  0
VISUALSTYLE
  5
30
102
{ACAD_REACTORS
330
29
102
}
330
29
100
AcDbVisualStyle
  2
Wireframe
 70
     5
177
     3
291
     0
 70
    58
 90
        0
176
     1
 90
        2
176
     1
 90
        0
176
     1
 90
        0
176
     1
 40
0.6
176
     1
 40
30.0
176
     1
 62
     7
420
 16777215
176
     1
 90
        1
176
     1
 90
        4
176
     1
 62
     7
176
     1
 62
   257
176
     1
 90
        1
176
     1
 90
        1
176
     1
 40
1.0
176
     1
 90
        0
176
     1
 62
   257
176
     1
 40
1.0
176
     1
 90
        1
176
     1
 90
        6
176
     1
 90
        2
176
     1
 62
     7
176
     1
 90
        3
176
     1
 90
        0
176
     1
 90
        0
176
     1
290
     0
176
     1
 90
        1
176
     1
 40
0.0
176
     1
 90
        0
176
     1
290
     0
176
     1
290
     1
176
     1
290
     1
176
     1
290
     0
176
     1
290
     0
176
     1
290
     0
176
     1
290
     0
176
     1
290
     0
176
     1
290
     0
176
     1
 90
       50
176
     1
 40
0.0
176
     1
 40
1.0
176
     1
 90
        0
176
     1
 62
    18
420
        0
176
     1
 90
       50
176
     1
 90
        3
176
     1
 62
     5
420
      255
176
     1
290
     0
176
     1
 90
       50
176
     1
 90
       50
176
     1
 90
       50
176
     1
290
     0
176
     1
 90
       50
176
     1
 62
   256
176
     0
 40
1.0
176
     0
 90
        2
176
     1
  1
strokes_ogs.tif
176
     1
290
     0
176
     1
 40
1.0
176
     1
 40
1.0
176
     1
  0
VISUALSTYLE
  5
3C
102
{ACAD_REACTORS
330
29
102
}
330
29
100
AcDbVisualStyle
  2
X-Ray
 70
    25
177
     3
291
     0
 70
    58
 90
        2
176
     1
 90
        2
176
     1
 90
        1
176
     1
 90
        1
176
     1
 40
0.5
176
     1
 40
30.0
176
     1
 62
     7
420
 16777215
176
     1
 90
        1
176
     1
 90
        0
176
     1
 62
     7
176
     1
 62
   257
176
     1
 90
        1
176
     1
 90
        1
176
     1
 40
1.0
176
     1
 90
        8
176
     1
 62
     7
176
     1
 40
1.0
176
     1
 90
        1
176
     1
 90
        6
176
     1
 90
        2
176
     1
 62
     7
176
     1
 90
        3
176
     1
 90
        0
176
     1
 90
        0
176
     1
290
     0
176
     1
 90
       13
176
     1
 40
0.0
176
     1
 90
        0
176
     1
290
     0
176
     1
290
     1
176
     1
290
     1
176
     1
290
     0
176
     1
290
     0
176
     1
290
     0
176
     1
290
     0
176
     1
290
     0
176
     1
290
     0
176
     1
 90
       50
176
     1
 40
0.0
176
     1
 40
1.0
176
     1
 90
        0
176
     1
 62
    18
420
        0
176
     1
 90
       50
176
     1
 90
        3
176
     1
 62
     5
420
      255
176
     1
290
     0
176
     1
 90
       50
176
     1
 90
       50
176
     1
 90
       50
176
     1
290
     0
176
     1
 90
       50
176
     1
 62
   256
176
     0
 40
1.0
176
     0
 90
        2
176
     1
  1
strokes_ogs.tif
176
     1
290
     0
176
     1
 40
1.0
176
     1
 40
1.0
176
     1
  0
DICTIONARYVAR
  5
17D
102
{ACAD_REACTORS
330
178
102
}
330
178
100
DictionaryVariables
280
     0
  1
1:1
  0
DICTIONARYVAR
  5
17A
102
{ACAD_REACTORS
330
178
102
}
330
178
100
DictionaryVariables
280
     0
  1
STANDARD
  0
DICTIONARYVAR
  5
179
102
{ACAD_REACTORS
330
178
102
}
330
178
100
DictionaryVariables
280
     0
  1
STANDARD
  0
DICTIONARYVAR
  5
17B
102
{ACAD_REACTORS
330
178
102
}
330
178
100
DictionaryVariables
280
     0
  1
Imperial24
  0
DICTIONARYVAR
  5
17C
102
{ACAD_REACTORS
330
178
102
}
330
178
100
DictionaryVariables
280
     0
  1
Imperial24
  0
DICTIONARY
  5
1A
330
19
100
AcDbDictionary
280
     1
281
     1
  3
BUMPTILE
360
1C
  3
DIFFUSETILE
360
1B
  3
OPACITYTILE
360
1F
  3
REFLECTIONTILE
360
1E
  3
REFRACTIONTILE
360
20
  3
SPECULARTILE
360
1D
  0
DICTIONARY
  5
12
330
11
100
AcDbDictionary
280
     1
281
     1
  3
BUMPTILE
360
14
  3
DIFFUSETILE
360
13
  3
OPACITYTILE
360
17
  3
REFLECTIONTILE
360
16
  3
REFRACTIONTILE
360
18
  3
SPECULARTILE
360
15
  0
DICTIONARY
  5
22
330
21
100
AcDbDictionary
280
     1
281
     1
  3
BUMPTILE
360
24
  3
DIFFUSETILE
360
23
  3
OPACITYTILE
360
27
  3
REFLECTIONTILE
360
26
  3
REFRACTIONTILE
360
28
  3
SPECULARTILE
360
25
  0
DICTIONARY
  5
17E
330
65
100
AcDbDictionary
280
     1
281
     1
  3
ACAD_ROUNDTRIP_2008_TABLESTYLE_CELLSTYLEMAP
360
17F
  0
XRECORD
  5
1C
102
{ACAD_REACTORS
330
1A
102
}
330
1A
100
AcDbXrecord
280
     1
270
     1
271
     1
  0
XRECORD
  5
1B
102
{ACAD_REACTORS
330
1A
102
}
330
1A
100
AcDbXrecord
280
     1
270
     1
271
     1
  0
XRECORD
  5
1F
102
{ACAD_REACTORS
330
1A
102
}
330
1A
100
AcDbXrecord
280
     1
270
     1
271
     1
  0
XRECORD
  5
1E
102
{ACAD_REACTORS
330
1A
102
}
330
1A
100
AcDbXrecord
280
     1
270
     1
271
     1
  0
XRECORD
  5
20
102
{ACAD_REACTORS
330
1A
102
}
330
1A
100
AcDbXrecord
280
     1
270
     1
271
     1
  0
XRECORD
  5
1D
102
{ACAD_REACTORS
330
1A
102
}
330
1A
100
AcDbXrecord
280
     1
270
     1
271
     1
  0
XRECORD
  5
14
102
{ACAD_REACTORS
330
12
102
}
330
12
100
AcDbXrecord
280
     1
270
     1
271
     1
  0
XRECORD
  5
13
102
{ACAD_REACTORS
330
12
102
}
330
12
100
AcDbXrecord
280
     1
270
     1
271
     1
  0
XRECORD
  5
17
102
{ACAD_REACTORS
330
12
102
}
330
12
100
AcDbXrecord
280
     1
270
     1
271
     1
  0
XRECORD
  5
16
102
{ACAD_REACTORS
330
12
102
}
330
12
100
AcDbXrecord
280
     1
270
     1
271
     1
  0
XRECORD
  5
18
102
{ACAD_REACTORS
330
12
102
}
330
12
100
AcDbXrecord
280
     1
270
     1
271
     1
  0
XRECORD
  5
15
102
{ACAD_REACTORS
330
12
102
}
330
12
100
AcDbXrecord
280
     1
270
     1
271
     1
  0
XRECORD
  5
24
102
{ACAD_REACTORS
330
22
102
}
330
22
100
AcDbXrecord
280
     1
270
     1
271
     1
  0
XRECORD
  5
23
102
{ACAD_REACTORS
330
22
102
}
330
22
100
AcDbXrecord
280
     1
270
     1
271
     1
  0
XRECORD
  5
27
102
{ACAD_REACTORS
330
22
102
}
330
22
100
AcDbXrecord
280
     1
270
     1
271
     1
  0
XRECORD
  5
26
102
{ACAD_REACTORS
330
22
102
}
330
22
100
AcDbXrecord
280
     1
270
     1
271
     1
  0
XRECORD
  5
28
102
{ACAD_REACTORS
330
22
102
}
330
22
100
AcDbXrecord
280
     1
270
     1
271
     1
  0
XRECORD
  5
25
102
{ACAD_REACTORS
330
22
102
}
330
22
100
AcDbXrecord
280
     1
270
     1
271
     1
  0
CELLSTYLEMAP
  5
17F
102
{ACAD_REACTORS
330
17E
102
}
330
17E
100
AcDbCellStyleMap
 90
        3
300
CELLSTYLE
  1
TABLEFORMAT_BEGIN
 90
        5
170
     1
 91
        0
 92
    32768
 62
   257
 93
        1
300
CONTENTFORMAT
  1
CONTENTFORMAT_BEGIN
 90
        0
 91
        0
 92
      512
 93
        0
300

 40
0.0
140
1.0
 94
        5
 62
     0
340
55
144
0.25
309
CONTENTFORMAT_END
171
     0
 94
        0
309
TABLEFORMAT_END
  1
CELLSTYLE_BEGIN
 90
        1
 91
        1
300
_TITLE
309
CELLSTYLE_END
300
CELLSTYLE
  1
TABLEFORMAT_BEGIN
 90
        5
170
     1
 91
        0
 92
        0
 62
   257
 93
        1
300
CONTENTFORMAT
  1
CONTENTFORMAT_BEGIN
 90
        0
 91
        0
 92
      512
 93
        0
300

 40
0.0
140
1.0
 94
        5
 62
     0
340
55
144
0.18
309
CONTENTFORMAT_END
171
     0
 94
        0
309
TABLEFORMAT_END
  1
CELLSTYLE_BEGIN
 90
        2
 91
        1
300
_HEADER
309
CELLSTYLE_END
300
CELLSTYLE
  1
TABLEFORMAT_BEGIN
 90
        5
170
     1
 91
        0
 92
        0
 62
   257
 93
        1
300
CONTENTFORMAT
  1
CONTENTFORMAT_BEGIN
 90
        0
 91
        0
 92
      512
 93
        0
300

 40
0.0
140
1.0
 94
        2
 62
     0
340
55
144
0.18
309
CONTENTFORMAT_END
171
     0
 94
        0
309
TABLEFORMAT_END
  1
CELLSTYLE_BEGIN
 90
        3
 91
        2
300
_DATA
309
CELLSTYLE_END
  0
ENDSEC
  0
EOF
